<?xml version="1.0" encoding="utf-8"?>
<!-- Generator: Adobe Illustrator 24.1.0, SVG Export Plug-In . SVG Version: 6.00 Build 0)  -->
<svg version="1.1" id="Capa_1" xmlns="http://www.w3.org/2000/svg" xmlns:xlink="http://www.w3.org/1999/xlink" x="0px" y="0px"
	 viewBox="0 0 960 960" style="enable-background:new 0 0 960 960;" xml:space="preserve">
<style type="text/css">
	.st0{fill:#F4810F;}
	.st1{fill:#54565A;}
	.st2{fill:#727272;}
	.st3{fill:url(#SVGID_1_);}
</style>
<g>
	<path class="st0" d="M312.95,379.44h-34.43l-68.63,166.94h46.91l6.15-16.49c-0.38-1.49-0.66-3-0.73-4.48
		c-0.21-4.62,2.1-8.96,5.21-12.27c1.11-1.18,2.52-2.18,4.08-2.97l23.88-78.85h0.69c9.55,30.3,19.1,60.61,28.65,90.91h-0.06
		c0,0,0,0.01,0.01,0.01c0.02,0,0.04-0.01,0.06-0.01c2.93,8.05,5.85,16.1,8.78,24.15h47.38L312.95,379.44z"/>
	<path class="st0" d="M402,379.44h43.68v166.94H402V379.44z"/>
	<path class="st0" d="M480.2,379.44h54.08c30.04,0,41.6,3.61,52.69,11.96c14.1,10.83,21.03,28.43,21.03,45.57
		c0,19.18-10.17,47.38-42.52,52.56l46.45,56.85h-49.92l-39.52-53.92h-0.46v53.92H480.2V379.44z M522.03,463.36h15.48
		c25.65,0,28.66-15.79,28.66-23.91c0-15.12-11.32-22.56-28.19-22.56h-15.95V463.36z"/>
	<path class="st1" d="M275.58,609.14c-0.25,2.31-0.79,4.39-1.62,6.22c-0.83,1.83-1.95,3.38-3.36,4.65s-3.09,2.25-5.06,2.92
		s-4.2,1.01-6.7,1.01c-2.58,0-4.93-0.49-7.03-1.47c-2.1-0.98-3.91-2.37-5.41-4.17s-2.66-3.96-3.47-6.49s-1.22-5.31-1.22-8.37v-5.71
		c0-3.06,0.41-5.86,1.22-8.39c0.81-2.53,1.97-4.69,3.48-6.48c1.51-1.79,3.34-3.18,5.48-4.17c2.15-0.99,4.55-1.49,7.22-1.49
		c2.42,0,4.59,0.33,6.53,1c1.94,0.67,3.6,1.64,4.98,2.92c1.39,1.28,2.5,2.84,3.34,4.69s1.38,3.93,1.61,6.26h-3.87
		c-0.23-1.83-0.65-3.47-1.25-4.92s-1.42-2.66-2.45-3.64c-1.03-0.98-2.28-1.73-3.75-2.25c-1.47-0.52-3.18-0.78-5.14-0.78
		c-2.12,0-4.02,0.41-5.69,1.23c-1.67,0.82-3.08,1.98-4.25,3.48c-1.17,1.5-2.06,3.31-2.67,5.42c-0.61,2.11-0.92,4.46-0.92,7.05v5.78
		c0,2.5,0.29,4.81,0.87,6.92c0.58,2.11,1.44,3.94,2.56,5.47s2.51,2.73,4.16,3.58c1.65,0.85,3.53,1.28,5.66,1.28
		c4.02,0,7.05-0.96,9.09-2.89c2.04-1.93,3.3-4.82,3.78-8.67H275.58z"/>
	<path class="st1" d="M318.54,603.05c0,3.19-0.42,6.07-1.25,8.64c-0.83,2.57-2.02,4.76-3.55,6.58c-1.53,1.81-3.39,3.21-5.58,4.2
		c-2.19,0.99-4.62,1.48-7.31,1.48c-2.67,0-5.09-0.49-7.26-1.48c-2.18-0.99-4.05-2.39-5.61-4.2c-1.56-1.81-2.77-4-3.62-6.58
		s-1.28-5.45-1.28-8.64v-4.87c0-3.19,0.43-6.08,1.28-8.66s2.05-4.78,3.59-6.61c1.54-1.82,3.4-3.23,5.58-4.22
		c2.18-0.99,4.6-1.49,7.26-1.49c2.69,0,5.12,0.5,7.31,1.49c2.19,0.99,4.06,2.4,5.61,4.22c1.55,1.82,2.74,4.02,3.58,6.61
		c0.83,2.58,1.25,5.47,1.25,8.66V603.05z M314.7,598.11c0-2.69-0.31-5.12-0.94-7.28c-0.62-2.17-1.53-4-2.72-5.51
		s-2.65-2.68-4.37-3.5s-3.69-1.24-5.87-1.24c-2.15,0-4.08,0.41-5.8,1.24s-3.18,1.99-4.37,3.5s-2.11,3.35-2.75,5.51
		c-0.64,2.17-0.95,4.6-0.95,7.28v4.94c0,2.71,0.32,5.15,0.97,7.31c0.65,2.17,1.57,4.01,2.78,5.53c1.21,1.52,2.67,2.69,4.39,3.5
		c1.72,0.81,3.65,1.22,5.8,1.22c2.21,0,4.17-0.41,5.89-1.22c1.72-0.81,3.17-1.98,4.34-3.5c1.18-1.52,2.07-3.36,2.69-5.53
		c0.61-2.17,0.92-4.6,0.92-7.31V598.11z"/>
	<path class="st1" d="M335.72,577.83l16.78,40.16l16.84-40.16h5.12v45.49h-3.84v-19.87l0.31-20.25L354,623.32h-2.97l-16.87-39.96
		l0.31,20.09v19.87h-3.84v-45.49H335.72z"/>
	<path class="st1" d="M417.34,577.83v30.84c0,2.56-0.42,4.79-1.27,6.7s-1.99,3.49-3.44,4.76c-1.45,1.27-3.15,2.23-5.09,2.86
		c-1.95,0.64-4.03,0.95-6.23,0.95c-2.27,0-4.38-0.32-6.33-0.95c-1.95-0.64-3.64-1.59-5.08-2.86s-2.56-2.86-3.37-4.76
		s-1.22-4.14-1.22-6.7v-30.84h3.81v30.84c0,2,0.3,3.75,0.91,5.25s1.45,2.75,2.53,3.75c1.08,1,2.37,1.75,3.86,2.26
		c1.49,0.51,3.12,0.76,4.89,0.76s3.4-0.25,4.89-0.76c1.49-0.51,2.77-1.26,3.84-2.26c1.07-1,1.91-2.25,2.52-3.75s0.91-3.25,0.91-5.25
		v-30.84H417.34z"/>
	<path class="st1" d="M461.93,623.32h-3.84l-26.15-38.93v38.93h-3.87v-45.49h3.87l26.18,38.97v-38.97h3.81V623.32z"/>
	<path class="st1" d="M478.18,623.32h-3.84v-45.49h3.84V623.32z"/>
	<path class="st1" d="M522.73,609.14c-0.25,2.31-0.79,4.39-1.62,6.22s-1.95,3.38-3.36,4.65c-1.41,1.27-3.09,2.25-5.06,2.92
		c-1.97,0.68-4.2,1.01-6.7,1.01c-2.58,0-4.93-0.49-7.03-1.47s-3.91-2.37-5.41-4.17c-1.5-1.8-2.66-3.96-3.47-6.49
		s-1.22-5.31-1.22-8.37v-5.71c0-3.06,0.41-5.86,1.22-8.39c0.81-2.53,1.97-4.69,3.48-6.48c1.51-1.79,3.34-3.18,5.48-4.17
		c2.15-0.99,4.55-1.49,7.22-1.49c2.42,0,4.59,0.33,6.53,1c1.94,0.67,3.6,1.64,4.98,2.92c1.39,1.28,2.5,2.84,3.34,4.69
		c0.84,1.84,1.38,3.93,1.61,6.26h-3.87c-0.23-1.83-0.65-3.47-1.25-4.92c-0.6-1.45-1.42-2.66-2.45-3.64s-2.28-1.73-3.75-2.25
		c-1.47-0.52-3.18-0.78-5.14-0.78c-2.12,0-4.02,0.41-5.69,1.23c-1.67,0.82-3.08,1.98-4.25,3.48c-1.17,1.5-2.06,3.31-2.67,5.42
		c-0.61,2.11-0.92,4.46-0.92,7.05v5.78c0,2.5,0.29,4.81,0.87,6.92c0.58,2.11,1.44,3.94,2.56,5.47s2.51,2.73,4.16,3.58
		s3.53,1.28,5.66,1.28c4.02,0,7.05-0.96,9.09-2.89c2.04-1.93,3.3-4.82,3.78-8.67H522.73z"/>
	<path class="st1" d="M556.64,610.58h-20.65l-4.69,12.75h-4.03l17.22-45.49h3.66l17.22,45.49h-4L556.64,610.58z M537.17,607.3h18.25
		l-9.12-24.78L537.17,607.3z"/>
	<path class="st1" d="M598.88,581.11h-15.59v42.21h-3.84v-42.21h-15.56v-3.28h35V581.11z"/>
	<path class="st1" d="M610.91,623.32h-3.84v-45.49h3.84V623.32z"/>
	<path class="st1" d="M656.87,603.05c0,3.19-0.42,6.07-1.25,8.64c-0.83,2.57-2.02,4.76-3.55,6.58c-1.53,1.81-3.39,3.21-5.58,4.2
		c-2.19,0.99-4.62,1.48-7.31,1.48c-2.67,0-5.09-0.49-7.26-1.48c-2.18-0.99-4.05-2.39-5.61-4.2c-1.56-1.81-2.77-4-3.62-6.58
		s-1.28-5.45-1.28-8.64v-4.87c0-3.19,0.43-6.08,1.28-8.66s2.05-4.78,3.59-6.61c1.54-1.82,3.4-3.23,5.58-4.22
		c2.18-0.99,4.6-1.49,7.26-1.49c2.69,0,5.12,0.5,7.31,1.49c2.19,0.99,4.06,2.4,5.61,4.22c1.55,1.82,2.74,4.02,3.58,6.61
		c0.83,2.58,1.25,5.47,1.25,8.66V603.05z M653.03,598.11c0-2.69-0.31-5.12-0.94-7.28c-0.62-2.17-1.53-4-2.72-5.51
		s-2.65-2.68-4.37-3.5c-1.73-0.82-3.69-1.24-5.87-1.24c-2.15,0-4.08,0.41-5.8,1.24c-1.72,0.82-3.18,1.99-4.37,3.5
		c-1.2,1.51-2.11,3.35-2.75,5.51c-0.64,2.17-0.95,4.6-0.95,7.28v4.94c0,2.71,0.32,5.15,0.97,7.31c0.65,2.17,1.57,4.01,2.78,5.53
		c1.21,1.52,2.67,2.69,4.39,3.5c1.72,0.81,3.65,1.22,5.8,1.22c2.21,0,4.17-0.41,5.89-1.22c1.72-0.81,3.17-1.98,4.34-3.5
		c1.18-1.52,2.07-3.36,2.69-5.53c0.61-2.17,0.92-4.6,0.92-7.31V598.11z"/>
	<path class="st1" d="M700.43,623.32h-3.84l-26.15-38.93v38.93h-3.87v-45.49h3.87l26.18,38.97v-38.97h3.81V623.32z"/>
	<path class="st1" d="M730.47,550.09c-1.71,0.24-2.8,0.39-4.13,0.58c-1.25-5.51-2.57-10.8-3.6-16.14c-0.39-2.02-1.24-2.56-3.36-2.55
		c-18.55,0.08-37.11,0.07-55.67,0.01c-1.96-0.01-2.81,0.5-3.18,2.39c-1.05,5.34-2.33,10.65-3.6,16.3c-1.35-0.18-2.53-0.34-4.16-0.55
		c12.04-54.3,24.01-108.32,35.97-162.26c-5.63-4.26-6.58-8.58-2.85-12.29c3.13-3.11,8.57-3.04,11.6,0.16
		c3.57,3.76,2.52,8.22-3.02,12.04C706.43,441.67,718.41,495.69,730.47,550.09z M717.94,527.95c-8.77-5.84-16.72-11.07-24.55-16.43
		c-1.6-1.1-2.57-0.64-3.87,0.24c-6.86,4.63-13.77,9.21-20.64,13.81c-0.96,0.64-1.86,1.35-3.27,2.38
		C683.2,527.95,700.07,527.95,717.94,527.95z M669.19,495.46c-2.19,9.97-4.26,19.36-6.49,29.47c8.83-5.91,16.93-11.34,25.3-16.95
		C681.53,503.67,675.58,499.72,669.19,495.46z M720.57,524.93c-2.27-10.23-4.35-19.64-6.53-29.47c-6.44,4.29-12.43,8.29-18.81,12.53
		C703.65,513.62,711.7,519.01,720.57,524.93z M707.57,489.71c-5.5-5.08-11.05-10.21-16.11-14.89c-5.17,4.73-10.67,9.76-16.28,14.89
		C686.14,489.71,697.06,489.71,707.57,489.71z M709.01,494.01c-11.92,0-22.87,0-34.75,0c5.94,3.98,11.16,7.5,16.43,10.94
		c0.43,0.28,1.42,0.28,1.84,0.01C697.81,501.51,703.04,498,709.01,494.01z M702.8,453.57c-3.81-5.95-7.36-11.49-11.21-17.5
		c-3.95,6.15-7.48,11.65-11.24,17.5C688.03,453.57,695.07,453.57,702.8,453.57z M671.32,485.87c5.42-4.94,11.11-10.11,16.43-14.95
		c-3.43-3.27-6.99-6.66-10.8-10.28C675.01,469.32,673.09,477.94,671.32,485.87z M712.11,486.6c-1.94-8.67-3.88-17.32-5.83-26
		c-3.96,3.68-7.56,7.03-11.02,10.24C700.75,475.97,706.36,481.22,712.11,486.6z M681.92,457.84c3.15,3.14,6.53,6.5,9.68,9.64
		c3.4-3.19,6.82-6.39,10.29-9.64C695.09,457.84,688.21,457.84,681.92,457.84z M686.61,416.93c3.57,0,6.67,0,10.03,0
		c-1.58-7.1-3.09-13.87-4.6-20.64c-0.28,0.01-0.55,0.01-0.83,0.02C689.69,403.09,688.18,409.88,686.61,416.93z M680.19,445.55
		c0.16,0.07,0.31,0.13,0.47,0.2c2.64-4.14,5.32-8.27,7.88-12.45c0.31-0.5,0.2-1.46-0.11-2.02c-0.99-1.77-2.16-3.45-3.66-5.78
		C683.14,432.62,681.66,439.08,680.19,445.55z M698.53,425.5c-1.39,2.1-2.38,3.4-3.13,4.81c-0.46,0.87-1.09,2.19-0.71,2.83
		c2.32,3.98,4.91,7.84,7.41,11.73c0.2-0.09,0.4-0.19,0.6-0.28C701.37,438.49,700.04,432.4,698.53,425.5z M691.66,428.61
		c1.67-2.72,2.94-4.79,4.37-7.12c-3.13,0-5.75,0-8.91,0C688.69,423.97,690,426.01,691.66,428.61z"/>
	<path class="st2" d="M730.71,417.29c-0.44-0.26-0.76-0.43-1.05-0.63c-0.45-0.31-0.87-0.64-1.31-0.97
		c17.86-20.97,18-41.95,0.33-63.13c0.69-0.51,1.41-1.04,2.12-1.56C748.27,366.65,751.78,396.84,730.71,417.29z"/>
	<path class="st2" d="M654.95,415.73c-0.84,0.54-1.59,1.03-2.34,1.51c-19.39-18.1-19.45-47.99-0.31-66.24
		c0.78,0.55,1.57,1.09,2.28,1.59C636.96,373.75,637.05,394.63,654.95,415.73z"/>
	<path class="st2" d="M662.32,358.25c0.38,0.21,0.8,0.4,1.16,0.65c0.44,0.3,0.84,0.64,1.2,0.92c-13.52,16.29-13.41,32.39,0.34,48.65
		c-0.71,0.49-1.5,1.04-2.28,1.58C647.92,396.77,646.78,372.9,662.32,358.25z"/>
	<path class="st2" d="M718.36,359.54c0.35-0.16,0.79-0.34,1.2-0.57c0.47-0.26,0.91-0.56,1.35-0.83
		c15.48,14.74,14.51,38.35-0.36,51.92c-0.79-0.55-1.58-1.1-2.32-1.61C731.98,392.22,732.1,376.1,718.36,359.54z"/>
	<path class="st2" d="M675.14,401.24c-0.87,0.63-1.6,1.15-2.31,1.66c-10.22-8.64-12.22-26.17-0.52-37.53
		c0.8,0.49,1.61,0.99,2.58,1.59C665.36,378.39,665.4,389.75,675.14,401.24z"/>
	<path class="st2" d="M708.42,366.99c0.82-0.57,1.55-1.09,2.28-1.6c10.13,8.38,11.89,26.66-0.21,37.55
		c-0.77-0.56-1.55-1.12-2.36-1.71C717.77,389.89,717.91,378.59,708.42,366.99z"/>
	<linearGradient id="SVGID_1_" gradientUnits="userSpaceOnUse" x1="210.9708" y1="498.1801" x2="385.1739" y2="498.1801">
		<stop  offset="0" style="stop-color:#F4810F"/>
		<stop  offset="1" style="stop-color:#F15A24"/>
	</linearGradient>
	<path class="st3" d="M257.19,546.53c0,0,28.44-77.98,127.99-95.7c0,0-120.88-17.72-174.2,95.7"/>
	<line class="st0" x1="324.74" y1="521.65" x2="324.74" y2="521.65"/>
</g>
</svg>
