<?xml version="1.0"?>
<svg xmlns="http://www.w3.org/2000/svg" fill="#a51a17" viewBox="0 0 64 64" width="512" height="512"><g id="Internet_conection" data-name="Internet conection"><path d="M50.96,45H44.019a22.307,22.307,0,0,1-5.251,8.983A23.094,23.094,0,0,0,50.96,45Z"/><path d="M54.975,33H45.986A42.2,42.2,0,0,1,44.62,43h7.574A22.857,22.857,0,0,0,54.975,33Z"/><path d="M33,54.914c3.687-.586,6.905-4.376,8.892-9.914H33Z"/><path d="M50.96,19a23.094,23.094,0,0,0-12.192-8.983A22.307,22.307,0,0,1,44.019,19Z"/><path d="M33,9.086V19h8.892C39.905,13.462,36.687,9.672,33,9.086Z"/><path d="M52.194,21H44.62a42.2,42.2,0,0,1,1.366,10h8.989A22.857,22.857,0,0,0,52.194,21Z"/><path d="M33,43h9.536a39.992,39.992,0,0,0,1.451-10H33Z"/><path d="M33,31H43.987a39.992,39.992,0,0,0-1.451-10H33Z"/><path d="M11.806,43H19.38a42.2,42.2,0,0,1-1.366-10H9.025A22.857,22.857,0,0,0,11.806,43Z"/><path d="M9.025,31h8.989A42.2,42.2,0,0,1,19.38,21H11.806A22.857,22.857,0,0,0,9.025,31Z"/><path d="M25.232,53.983A22.307,22.307,0,0,1,19.981,45H13.04A23.094,23.094,0,0,0,25.232,53.983Z"/><path d="M22.108,19H31V9.086C27.313,9.672,24.1,13.462,22.108,19Z"/><path d="M31,33H20.013a39.992,39.992,0,0,0,1.451,10H31Z"/><path d="M31,54.914V45H22.108C24.1,50.538,27.313,54.328,31,54.914Z"/><path d="M13.04,19h6.941a22.307,22.307,0,0,1,5.251-8.983A23.094,23.094,0,0,0,13.04,19Z"/><path d="M31,21H21.464a39.992,39.992,0,0,0-1.451,10H31Z"/><path d="M59,57H55a1.994,1.994,0,0,0-1.723,1h-6.3a29.964,29.964,0,0,0,14.97-27.807c-.84-14.343-13.662-27.226-28-28.131a29.778,29.778,0,0,0-22.478,8.062A30,30,0,0,0,32,62a1,1,0,0,0,1-1V57H31v2.982A28.033,28.033,0,0,1,4,32,28,28,0,0,1,33.82,4.058C47.2,4.9,59.167,16.925,59.951,30.311A27.957,27.957,0,0,1,42.216,58.069,1,1,0,0,0,42.58,60h10.7A1.994,1.994,0,0,0,55,61h4V60h2V58H59Z"/></g></svg>
