<?xml version="1.0"?>
<svg xmlns="http://www.w3.org/2000/svg" fill="#433f49" viewBox="0 0 64 64" width="512" height="512"><g id="technician"><path d="M58.1,46.89a1.019,1.019,0,0,1,.06-.9l.65-1.08-1.72-1.72-1.08.64a.989.989,0,0,1-.9.07,1.007,1.007,0,0,1-.59-.68L54.22,42H51.78l-.3,1.22a1.007,1.007,0,0,1-.59.68.989.989,0,0,1-.9-.07l-1.08-.64-1.72,1.72.65,1.08a1.019,1.019,0,0,1,.06.9,1.007,1.007,0,0,1-.68.59l-1.22.3v2.44l1.22.3a1.007,1.007,0,0,1,.68.59,1.019,1.019,0,0,1-.06.9l-.65,1.08,1.72,1.72,1.08-.65a1.019,1.019,0,0,1,.9-.06,1.007,1.007,0,0,1,.59.68l.3,1.22h2.44l.3-1.22a1.007,1.007,0,0,1,.59-.68,1.019,1.019,0,0,1,.9.06l1.08.65,1.72-1.72-.65-1.08a1.019,1.019,0,0,1-.06-.9,1.007,1.007,0,0,1,.68-.59l1.22-.3V47.78l-1.22-.3A1.007,1.007,0,0,1,58.1,46.89ZM53,53a4,4,0,1,1,4-4A4,4,0,0,1,53,53Z"/><path d="M16.16,52.01a1.019,1.019,0,0,1-.06-.9,1.007,1.007,0,0,1,.68-.59l1.22-.3V47.78l-1.22-.3a1.007,1.007,0,0,1-.68-.59,1.019,1.019,0,0,1,.06-.9l.65-1.08-1.72-1.72-1.08.64a.989.989,0,0,1-.9.07,1.007,1.007,0,0,1-.59-.68L12.22,42H9.78l-.3,1.22a1.007,1.007,0,0,1-.59.68.989.989,0,0,1-.9-.07l-1.08-.64L5.19,44.91l.65,1.08a1.019,1.019,0,0,1,.06.9,1.007,1.007,0,0,1-.68.59L4,47.78v2.44l1.22.3a1.007,1.007,0,0,1,.68.59,1.019,1.019,0,0,1-.06.9l-.65,1.08,1.72,1.72,1.08-.65a1.019,1.019,0,0,1,.9-.06,1.007,1.007,0,0,1,.59.68L9.78,56h2.44l.3-1.22a1.007,1.007,0,0,1,.59-.68,1.019,1.019,0,0,1,.9.06l1.08.65,1.72-1.72ZM11,53a4,4,0,1,1,4-4A4,4,0,0,1,11,53Z"/><circle cx="53" cy="49" r="2"/><path d="M32,57a2,2,0,0,0-1.73,3h3.46A2,2,0,0,0,32,57Z"/><path d="M37.1,56.89a1,1,0,0,1,.06-.89l.65-1.08-1.73-1.73L35,53.84a1,1,0,0,1-.89.06.984.984,0,0,1-.59-.68L33.22,52H30.78l-.3,1.22a.984.984,0,0,1-.59.68.967.967,0,0,1-.89-.06l-1.08-.65-1.73,1.73L26.84,56a1,1,0,0,1,.06.89.984.984,0,0,1-.68.59l-1.22.3V60h3.14A4.231,4.231,0,0,1,28,59a4,4,0,0,1,8,0,4.231,4.231,0,0,1-.14,1H39V57.78l-1.22-.3A.984.984,0,0,1,37.1,56.89Z"/><path d="M45.07,52.73l.36-.59-.67-.17A1,1,0,0,1,44,51V47a1,1,0,0,1,.76-.97l.67-.17-.36-.59a1,1,0,0,1,.15-1.22L48,41.27V41a3.009,3.009,0,0,0-3-3H39.27L32.5,41.87a1.044,1.044,0,0,1-1,0L24.73,38H19a3.009,3.009,0,0,0-3,3v.27l2.78,2.78a1,1,0,0,1,.15,1.22l-.36.59.67.17A1,1,0,0,1,20,47v4a1,1,0,0,1-.76.97l-.67.17.36.59a1.012,1.012,0,0,1-.15,1.22L16,56.73V59a1,1,0,0,0,1,1h6V57a1,1,0,0,1,.76-.97l.67-.17-.36-.59a1.014,1.014,0,0,1,.15-1.22l2.83-2.83a1.014,1.014,0,0,1,1.22-.15l.59.36.17-.67A1,1,0,0,1,30,50h4a1,1,0,0,1,.97.76l.17.67.59-.36a1.014,1.014,0,0,1,1.22.15l2.83,2.83a1.014,1.014,0,0,1,.15,1.22l-.36.59.67.17A1,1,0,0,1,41,57v3h6a1,1,0,0,0,1-1V56.73l-2.78-2.78A1,1,0,0,1,45.07,52.73Z"/><path d="M46.49,31.69,42.17,36H45a4.916,4.916,0,0,1,2.26.57l2.05-2.06a1,1,0,0,1,1.1-.21,7.821,7.821,0,0,0,8.09-1.91,7.038,7.038,0,0,0,2.1-5.27l-4.32,3.24a1,1,0,0,1-1.31-.09l-4.24-4.24a1,1,0,0,1-.09-1.31l3.24-4.32a7.023,7.023,0,0,0-5.27,2.1c-2.23,2.22-3.08,5.75-1.94,8.03A1,1,0,0,1,46.49,31.69Z"/><path d="M32,32a10.2,10.2,0,0,1-2-.2V34a1.014,1.014,0,0,1-.4.8l-2.78,2.09L32,39.85l5.18-2.96L34.4,34.8A1.014,1.014,0,0,1,34,34V31.8A10.2,10.2,0,0,1,32,32Z"/><path d="M43,19a1,1,0,0,0-1-1v3a1,1,0,0,0,1-1Z"/><path d="M22,21V18a1,1,0,0,0-1,1v1A1,1,0,0,0,22,21Z"/><path d="M17.77,36.17A5,5,0,0,1,19,36h3.24l-7.17-7.7L12.3,31.07Z"/><polygon points="10.76 29.78 13.78 26.76 10.22 22.02 6.14 20.27 4.27 22.14 6.02 26.22 10.76 29.78"/><path d="M40,22V14.76l-4.22-1.15A6.049,6.049,0,0,1,34.6,14.8,7.2,7.2,0,0,1,29,16.16a1.332,1.332,0,0,1-.95-.86,1.4,1.4,0,0,1,.7-1.53,5.038,5.038,0,0,0,.52-.45,2.94,2.94,0,0,0,.53-1.14L24,14.66V22a8,8,0,0,0,16,0Z"/><path d="M22,14.72V14a1,1,0,0,1,.61-.92l7-3A1.006,1.006,0,0,1,30,10h1a1,1,0,0,1,1,1.09,7.362,7.362,0,0,1-.89,3.11,5.479,5.479,0,0,0,2.28-.99,4.485,4.485,0,0,0,1.12-1.27.983.983,0,0,1,1.11-.44l5.64,1.54a.942.942,0,0,1,.46.28A4.971,4.971,0,0,0,43,10V4H28a7.008,7.008,0,0,0-7,7v2A1.988,1.988,0,0,0,22,14.72Z"/><circle cx="11" cy="49" r="2"/></g></svg>
