<svg id="Layer_1" enable-background="new 0 0 512 512" height="512" viewBox="0 0 512 512" width="512" fill="#433f49" xmlns="http://www.w3.org/2000/svg"><g><g><path d="m311.858 472c16.542 0 30-13.458 30-30v-201.996c0-16.542-13.458-30-30-30h-120c-16.542 0-30 13.458-30 30v201.996c0 16.542 13.458 30 30 30zm0-20h-50v-40.499h60v30.499c0 5.514-4.486 10-10 10zm10-120.998h-60v-40.499h60zm-80 0h-60v-40.499h60zm-60 20h60v40.499h-60zm80 0h60v40.499h-60zm60-110.998v30.499h-60v-40.499h50c5.514 0 10 4.486 10 10zm-130-10h50v40.499h-60v-30.499c0-5.514 4.487-10 10-10zm-10 211.996v-30.499h60v40.499h-50c-5.513 0-10-4.486-10-10z"/><path d="m461.858 75.002h-80v-45.002c0-16.542-13.458-30-30-30h-200c-16.542 0-30 13.458-30 30v40.006c0 5.522 4.478 10 10 10s10-4.478 10-10v-40.006c0-5.514 4.486-10 10-10h200c5.514 0 10 4.486 10 10v45.002h-107.256c-10.164-9.584-23.677-15-37.743-15-30.327 0-55 24.673-55 55s24.673 55 55 55c14.066 0 27.58-5.417 37.744-15h107.256v326.998c0 5.514-4.486 10-10 10h-200c-5.514 0-10-4.486-10-10v-321.994c0-5.522-4.478-10-10-10s-10 4.478-10 10v321.994c0 16.542 13.458 30 30 30h200c16.542 0 30-13.458 30-30v-326.998h80c11.028 0 20-8.972 20-19.999v-40.001c-.001-11.028-8.972-20-20.001-20zm0 60h-211.462c-2.845 0-5.554 1.211-7.451 3.331-6.638 7.416-16.146 11.669-26.087 11.669-19.299 0-35-15.701-35-35s15.701-35 35-35c9.94 0 19.448 4.254 26.087 11.67 1.897 2.119 4.607 3.33 7.451 3.33h211.462z"/><path d="m433.072 277.362c-3.905 3.905-3.905 10.237 0 14.143 13.222 13.221 20.503 30.8 20.503 49.497s-7.281 36.276-20.503 49.497c-3.905 3.905-3.905 10.237 0 14.143 1.953 1.952 4.512 2.929 7.071 2.929s5.118-.977 7.071-2.929c16.999-16.999 26.36-39.6 26.36-63.64s-9.361-46.641-26.36-63.64c-3.905-3.904-10.235-3.904-14.142 0z"/><path d="m418.931 305.646c-3.906-3.904-10.236-3.904-14.143 0-3.905 3.905-3.905 10.237 0 14.143 5.666 5.666 8.787 13.199 8.787 21.213s-3.12 15.548-8.786 21.213c-3.906 3.904-3.906 10.236-.001 14.142 1.952 1.953 4.512 2.93 7.071 2.93s5.118-.977 7.07-2.929c9.444-9.442 14.646-21.999 14.646-35.355 0-13.357-5.201-25.912-14.644-35.357z"/><path d="m50.142 341.002c0-18.697 7.281-36.276 20.503-49.497 3.905-3.905 3.905-10.237 0-14.143-3.906-3.904-10.236-3.904-14.143 0-16.999 16.999-26.36 39.6-26.36 63.64s9.361 46.641 26.36 63.64c1.953 1.952 4.512 2.929 7.071 2.929s5.118-.977 7.071-2.929c3.905-3.905 3.905-10.237 0-14.143-13.221-13.221-20.502-30.8-20.502-49.497z"/><path d="m98.929 305.646c-3.906-3.904-10.236-3.904-14.143 0-9.443 9.444-14.645 22-14.645 35.355 0 13.356 5.201 25.913 14.646 35.355 1.952 1.953 4.511 2.929 7.07 2.929s5.119-.977 7.071-2.93c3.905-3.905 3.905-10.237-.001-14.142-5.666-5.665-8.786-13.199-8.786-21.213s3.121-15.547 8.787-21.213c3.906-3.903 3.906-10.235.001-14.141z"/><path d="m131.858 125.01c5.522 0 10-4.478 10-10v-.008c0-5.522-4.478-9.996-10-9.996s-10 4.481-10 10.004 4.478 10 10 10z"/></g></g></svg>