<svg id="Capa_1" fill="#433f49" enable-background="new 0 0 512.001 512.001" height="512" viewBox="0 0 512.001 512.001" width="512" xmlns="http://www.w3.org/2000/svg"><path d="m463.001 358.667c-21.787 0-40.291 14.298-46.642 34h-60.426v-73.602h47.961c59.61.001 108.106-48.495 108.106-108.105 0-57.013-44.361-103.858-100.38-107.833-8.342-27.393-24.797-52.041-47.151-70.325-25.862-21.152-58.533-32.802-91.999-32.802-30.058 0-58.908 9.097-83.432 26.308-20.881 14.654-37.352 34.23-48.11 57.06-36.389.571-66.199 28.732-69.388 64.438-40.576 7.005-71.54 42.456-71.54 85.002 0 47.563 38.695 86.258 86.258 86.258h69.811v73.602h-60.427c-6.352-19.702-24.855-34-46.642-34-27.019 0-49 21.981-49 49s21.981 49 49 49c21.787 0 40.291-14.298 46.642-34h90.426v-103.602h54.932v97.292c-19.702 6.352-34 24.855-34 46.642 0 27.019 21.981 49 49 49s49-21.981 49-49c0-21.787-14.298-40.291-34-46.642v-97.292h54.933v103.602h90.426c6.352 19.702 24.855 34 46.642 34 27.019 0 49-21.981 49-49s-21.981-49.001-49-49.001z"/></svg>