<svg height="512" fill="#433f49" viewBox="0 0 64 64" width="512" xmlns="http://www.w3.org/2000/svg"><g id="home-house-work-internet-wifi"><path d="m59 58h-38a1 1 0 0 0 0 2h38a1 1 0 0 0 0-2z"/><path d="m52 19h6a1 1 0 0 0 0-2h-6a1 1 0 0 0 0 2z"/><path d="m57 56v-20.98l-16.4-12.19a1.021 1.021 0 0 0 -1.2 0l-16.4 12.19v20.98h2v-13a5 5 0 0 1 10 0v13h2v-17a1 1 0 0 1 1-1h16a1 1 0 0 1 1 1v17z"/><path d="m57 27.13v-6.13h-4.01v3.21z"/><path d="m43 53v3h6v-3a1 1 0 0 0 -1-1h-4a1 1 0 0 0 -1 1z"/><path d="m27 43v13h6v-13a3 3 0 0 0 -6 0z"/><path d="m60.04 31.81-19.45-14.15a1.022 1.022 0 0 0 -1.18 0l-19.45 14.15a1 1 0 0 0 -.31 1.26l.18.35a.976.976 0 0 0 .66.52.933.933 0 0 0 .83-.17l16.89-12.54a2.97 2.97 0 0 1 3.58 0l16.89 12.54a.933.933 0 0 0 .83.17.976.976 0 0 0 .66-.52l.18-.35a1 1 0 0 0 -.31-1.26z"/><path d="m45 49a1 1 0 0 0 2 0v-1h-2z"/><path d="m53 56v-16h-14v16h2v-3a2.994 2.994 0 0 1 2.22-2.88 3.02 3.02 0 0 1 -.22-1.12v-4a3.009 3.009 0 0 1 3-3h4a1 1 0 0 1 1 1v2a3.014 3.014 0 0 1 -2 2.83v1.17a3.02 3.02 0 0 1 -.22 1.12 2.994 2.994 0 0 1 2.22 2.88v3z"/><path d="m49 45v-1h-3a1 1 0 0 0 -1 1v1h3a1 1 0 0 0 1-1z"/><path d="m22.194 7.809 1.412-1.417a15 15 0 0 0 -21.212 0l1.412 1.417a13 13 0 0 1 18.388 0z"/><path d="m13 6a10.929 10.929 0 0 0 -7.777 3.223l1.414 1.414a9 9 0 0 1 12.726 0l1.414-1.414a10.929 10.929 0 0 0 -7.777-3.223z"/><path d="m16.53 13.464 1.42-1.408a6.987 6.987 0 0 0 -9.9 0l1.42 1.408a4.988 4.988 0 0 1 7.06 0z"/><path d="m12 22h2v2h-2z"/><path d="m12 26h2v2h-2z"/><path d="m12 30h2v2h-2z"/><path d="m12 34h2v2h-2z"/><path d="m12 38h2v2h-2z"/><path d="m12 42h2v2h-2z"/><path d="m12 46h2v2h-2z"/><path d="m16 46h2v2h-2z"/><circle cx="13" cy="17" r="2"/></g></svg>