<?xml version="1.0" encoding="utf-8"?>
<!-- Generator: Adobe Illustrator 24.1.0, SVG Export Plug-In . SVG Version: 6.00 Build 0)  -->
<svg version="1.1" xmlns="http://www.w3.org/2000/svg" xmlns:xlink="http://www.w3.org/1999/xlink" x="0px" y="0px"
	 viewBox="0 0 595.28 841.89" style="enable-background:new 0 0 595.28 841.89;" xml:space="preserve">
<style type="text/css">
	.st0{fill:#4892CB;}
	.st1{fill:#E47D00;}
	.st2{fill:#001A66;}
	.st3{fill:#E47E00;}
</style>
<g id="Ojo_Afuera">
	<g id="LOGO_4_">
		<g>
			<polygon class="st0" points="345.26,255.29 365.32,278.22 380.71,266.52 372.25,238.8 			"/>
			<polygon class="st0" points="343.23,288.73 319.21,267.41 302.91,285.14 332.18,302.87 			"/>
			<polygon class="st0" points="329.97,316.51 296.88,315.29 296.88,342.47 329.97,331.75 			"/>
			<polygon class="st0" points="325.33,347.04 298.27,361.25 313.12,381.9 336.38,361.74 			"/>
			<polygon class="st0" points="330.57,394.54 353.16,412.33 364.87,383.83 349.9,372.94 			"/>
			<polygon class="st0" points="398.01,382.99 395.86,415.86 425.19,406.03 411.7,383.71 			"/>
			<polygon class="st0" points="447.45,375.05 461.04,402.17 482.96,379.69 459.15,362.07 			"/>
			<polygon class="st0" points="483.56,327.44 469.2,343.41 493.67,360.75 509.25,340.31 			"/>
			<polygon class="st0" points="505.77,312.48 493.89,283.26 468.6,300.27 469.2,313.92 			"/>
			<polygon class="st0" points="449.54,241.73 432.64,267.14 444.9,279.68 467.99,263.66 			"/>
			<polygon class="st0" points="398.07,267.19 416.3,266.47 427.29,238.8 394.54,238.8 			"/>
		</g>
	</g>
</g>
<g id="Ojo_Centro">
	<path class="st0" d="M460.76,305.17l-9.9,10.12c0,0-12.18-18.71-42.76-20.9c-27.01-1.93-46.36,16.84-47.19,34.48
		c-0.89,19.05,16.43,27.9,33.4,30.36c16.99,2.46,29.72-3.4,30.75-13.78c1.06-10.78-3.43-23.33-19.81-25.27
		c-4.94-0.58-7.15,3.35-7.28,7.25c-0.19,5.45,1.23,11.2,1.64,15.03c0.24,2.29-0.23,7.74-4.78,8.65c-3.28,0.66-5.46-0.89-9.35-4.6
		c-4.94-4.7-11.64-10.82-10.43-21.91c1.94-17.85,23.1-21.74,32.86-20.68c6.24,0.69,40.94,4.01,39.64,35.61
		c-1.06,25.62-24.79,38.44-49.17,36.67c-18-1.31-59.73-11.74-54.07-52.66c5.42-39.2,48.41-45.27,64.3-43.88
		c13.02,1.14,29.23,5.79,40.48,13.83C459.55,300.99,460.76,305.17,460.76,305.17z"/>
</g>
<g id="Microvision">
	<g>
		<path class="st0" d="M114.32,559.34h14.25l1.45,29.01l10.53-29.01h14.57l-2.71,46.16h-10.15l1.77-28.32l-10.47,28.32h-11.92
			l-1.64-28.32l-7.06,28.32h-10.41L114.32,559.34z"/>
		<path class="st0" d="M163.57,559.34h10.34l-7.32,46.16h-10.34L163.57,559.34z"/>
		<path class="st0" d="M195.04,558.84c7.63,0,11.1,0.63,16.02,2.4l-1.32,8.07c-0.38-0.06-6.87-1.13-13.31-1.07
			c-4.79,0-8.26-0.25-10.53,14.19c-1.7,10.34-0.63,13.94,5.99,14.06c5.68,0.06,11.48-0.38,13.69-0.57l-1.26,8.07
			c-4.48,1.64-8.64,2.02-16.65,1.89c-11.67-0.13-14.38-10.72-12.11-25.04C177.89,566.15,182.49,558.84,195.04,558.84z"/>
		<path class="st0" d="M216.04,559.34h19.42c7.5,0,12.61,4.54,10.97,15.77c-1.64,11.23-6.87,12.17-9.27,12.55l6.5,17.85h-11.73
			l-5.11-17.34l-4.98-0.44l-2.77,17.78h-10.34L216.04,559.34z M230.93,579.84c3.28,0,4.54-1.77,5.11-5.93
			c0.5-4.16-0.25-5.61-3.15-5.61H225l-1.83,11.54H230.93z"/>
		<path class="st0" d="M271.99,559.03c10.91,0,18.54,3.47,15.2,24.91c-3.15,20.37-11.04,21.82-22.26,21.82
			c-11.1,0-18.67-3.22-15.32-24.22C253,559.91,261.26,559.03,271.99,559.03z M266.18,596.36c6.31,0,8.89-2.33,10.66-13.62
			c2.02-12.74,0.06-14.32-6.18-14.32c-6.24,0-8.64,1.13-10.72,14.32C258.17,594.03,259.25,596.36,266.18,596.36z"/>
		<path class="st0" d="M302.57,559.34l3.66,33.05l14.63-33.05h11.48l-21.95,46.16h-12.23l-6.5-46.16H302.57z"/>
		<path class="st0" d="M337.58,559.34h10.34l-7.32,46.16h-10.34L337.58,559.34z"/>
		<path class="st0" d="M349.12,595.92c2.52,0.32,9.71,0.69,15.58,0.69c2.71,0,4.92-0.57,5.36-3.34l0.25-1.83
			c0.38-2.27,0.06-3.66-3.22-3.66h-5.49c-11.54,0-11.23-9.52-10.72-12.93l0.63-5.04c1.39-9.33,7.5-10.78,14.5-10.85
			c7.82-0.13,13.62,0.5,17.78,1.96l-1.26,8.07c-3.78-0.32-11.6-0.63-14.76-0.63c-3.72-0.06-5.42,0.19-5.99,3.72l-0.25,1.58
			c-0.5,3.15,0.5,3.78,3.85,3.78h5.74c9.14,0,10.28,7.69,9.59,12.74l-0.25,4.1c-0.69,11.23-9.4,11.73-15.32,11.73
			c-8.07,0-12.23-0.25-17.28-2.02L349.12,595.92z"/>
		<path class="st0" d="M391.12,559.34h10.34l-7.32,46.16h-10.34L391.12,559.34z"/>
		<path class="st0" d="M425.74,559.03c10.91,0,18.54,3.47,15.2,24.91c-3.15,20.37-11.04,21.82-22.26,21.82
			c-11.1,0-18.67-3.22-15.33-24.22C406.76,559.91,415.02,559.03,425.74,559.03z M419.94,596.36c6.31,0,8.89-2.33,10.66-13.62
			c2.02-12.74,0.06-14.32-6.18-14.32c-6.24,0-8.64,1.13-10.72,14.32C411.93,594.03,413.01,596.36,419.94,596.36z"/>
		<path class="st0" d="M449.84,559.34h10.41l11.48,27.31l4.29-27.31h10.34l-7.32,46.16h-10.28l-11.6-26.8l-4.22,26.8h-10.41
			L449.84,559.34z"/>
	</g>
</g>
<g id="Media_Luna">
	<path class="st1" d="M471.44,210.58c0,0-119.68-88.76-218.56,56.83c0,0-56.21,120.94,63.45,195.27c0,0-99.91-71.22-50.13-184.46
		C266.2,278.22,330.87,143.16,471.44,210.58z"/>
</g>
<g id="Rayita">
	<path class="st2" d="M76.35,570.07c0,0,66.16-46.47,152.35-65.78c55.12-12.34,134.34-28.06,243.11-26.07
		c-0.63-3.64-1.92-11.1-1.92-11.1s-102.98-5.39-228.53,16.09c-132.44,22.65-196.6,57.82-196.6,57.82s-8.99,3.29-8.99,9.42
		c0,6.13,2.92,7.42,8.99,10.55C50.85,564.11,76.35,570.07,76.35,570.07z"/>
</g>
<g id="Uno">
	<path class="st3" d="M187.27,203.15c0,0,107.38-44.19,167.05-87.17l8.73,4.42l-61.65,91.27c0,0-55.26,70.88-75.39,161.27
		c0,0-24.01,78.18-21.01,117.12l-42.94,9.97c0,0,22.72-111.76,94.46-239.33c0,0,54-93.79,82.74-125.75l-127.43,75.87
		C211.83,210.83,180.54,230.3,187.27,203.15z"/>
</g>
</svg>
