<?xml version="1.0" encoding="utf-8"?>
<!-- Generator: Adobe Illustrator 24.1.0, SVG Export Plug-In . SVG Version: 6.00 Build 0)  -->
<svg version="1.1" id="Capa_1" xmlns="http://www.w3.org/2000/svg" xmlns:xlink="http://www.w3.org/1999/xlink" x="0px" y="0px"
	 viewBox="0 0 2000 2000" style="enable-background:new 0 0 2000 2000;" xml:space="preserve">
<style type="text/css">
	.st0{fill:#54565A;stroke:#FFFFFF;stroke-width:0.7872;stroke-linecap:round;stroke-linejoin:round;}
	.st1{fill:url(#SVGID_1_);stroke:#FFFFFF;stroke-width:0.7872;stroke-linecap:round;stroke-linejoin:round;}
	.st2{fill:#54565A;}
	.st3{fill:url(#SVGID_2_);}
	.st4{fill:url(#SVGID_3_);}
</style>
<g>
	<g>
		<g>
			<g>
				<path class="st0" d="M694.33,1256.05v16H660.5v44.12c0,8.16,3.09,12.22,9.28,12.22c6.8,0,10.2-4.93,10.2-14.77v-3.5h17.94v4.41
					c0,4.03-0.14,7.49-0.38,10.38c-1.16,13.42-11.15,20.13-29.96,20.13c-18.76,0-28.13-8.6-28.13-25.82v-47.17h-11.41v-16h11.41
					v-19.67h21.04v19.67H694.33z"/>
				<path class="st0" d="M766.13,1315.81h21.13v3.41c0,17.14-12.86,25.72-38.61,25.72c-17.46,0-28.89-2.96-34.29-8.91
					c-5.39-5.96-8.08-18.53-8.08-37.78c0-17.1,2.81-28.58,8.45-34.48c5.64-5.88,16.64-8.82,33.01-8.82c15.7,0,26.2,2.88,31.51,8.6
					c5.36,5.74,8.01,16.98,8.01,33.78v6.44H727.8c-0.14,1.95-0.19,3.22-0.19,3.85c0,8.63,1.32,14.4,3.99,17.29
					c2.68,2.88,7.99,4.33,15.96,4.33c7.72,0,12.74-0.85,15.08-2.56C764.95,1325.02,766.13,1321.38,766.13,1315.81z M766.29,1290.91
					l-0.07-3.5c0-6.99-1.22-11.52-3.64-13.64c-2.41-2.05-7.66-3.11-15.78-3.11c-7.83,0-12.92,1.28-15.29,3.76
					c-2.35,2.52-3.53,8.02-3.53,16.48H766.29z"/>
				<path class="st0" d="M825.87,1218.46v125.47h-21.06v-125.47H825.87z"/>
				<path class="st0" d="M903.17,1315.81h21.14v3.41c0,17.14-12.86,25.72-38.61,25.72c-17.47,0-28.88-2.96-34.27-8.91
					c-5.41-5.96-8.09-18.53-8.09-37.78c0-17.1,2.82-28.58,8.45-34.48c5.64-5.88,16.65-8.82,33-8.82c15.71,0,26.21,2.88,31.54,8.6
					c5.32,5.74,7.99,16.98,7.99,33.78v6.44h-59.47c-0.11,1.95-0.18,3.22-0.18,3.85c0,8.63,1.33,14.4,3.99,17.29
					c2.68,2.88,7.99,4.33,15.96,4.33c7.72,0,12.74-0.85,15.06-2.56C902.01,1325.02,903.17,1321.38,903.17,1315.81z M903.36,1290.91
					l-0.1-3.5c0-6.99-1.21-11.52-3.63-13.64c-2.42-2.05-7.68-3.11-15.77-3.11c-7.83,0-12.93,1.28-15.3,3.76
					c-2.35,2.52-3.54,8.02-3.54,16.48H903.36z"/>
				<path class="st0" d="M997.85,1310.38h20.96v3.04l-1.3,13.34c-2.57,12.13-15.13,18.19-37.69,18.19c-16.54,0-27.54-2.99-33-8.96
					c-5.44-5.98-8.18-17.99-8.18-36.08c0-17.63,2.74-29.53,8.18-35.65c5.46-6.14,16.06-9.21,31.82-9.21
					c15.19,0,25.49,2.23,30.89,6.68c5.38,4.43,8.06,12.89,8.06,25.31h-20.87c0-10.23-5.9-15.36-17.72-15.36
					c-8.41,0-13.68,1.64-15.79,4.89c-2.17,3.25-3.22,11.2-3.22,23.89c0,12.27,1.16,19.98,3.52,23.13c2.36,3.17,8.12,4.72,17.33,4.72
					c7.24,0,11.86-1.07,13.91-3.26C996.82,1322.86,997.85,1317.99,997.85,1310.38z"/>
				<path class="st0" d="M1056.11,1281.5h-21.5c0-10.52,2.46-17.56,7.35-21.12c4.91-3.55,14.63-5.34,29.11-5.34
					c15.84,0,26.53,2.2,32.12,6.53c5.56,4.36,8.36,12.64,8.36,24.92v57.44h-21.05l1-12.04l-0.55-0.1
					c-4.05,8.76-13.4,13.14-28.02,13.14c-21.29,0-31.91-9.03-31.91-27.1c0-18.27,10.86-27.4,32.62-27.4
					c14.53,0,23.36,3.35,26.48,10.01h0.38v-14.22c0-6.87-1.2-11.44-3.61-13.66c-2.39-2.25-7.3-3.36-14.71-3.36
					C1061.5,1269.21,1056.11,1273.3,1056.11,1281.5z M1070.2,1304.59c-11.9,0-17.85,4.12-17.85,12.33c0,5.7,1.25,9.42,3.67,11.21
					c2.47,1.79,7.63,2.68,15.45,2.68c12.81,0,19.21-4.34,19.21-12.97C1090.67,1309,1083.84,1304.59,1070.2,1304.59z"/>
				<path class="st0" d="M1132.49,1343.93v-125.47h21.08v50.2l0.46,0.17c3.59-9.24,12.75-13.88,27.46-13.88
					c12.65,0,21.27,3.08,25.97,9.24c4.68,6.15,7.03,17.57,7.03,34.24c0,18.19-2.38,30.5-7.13,36.88
					c-4.76,6.42-13.86,9.62-27.34,9.62c-13.66,0-22.66-4.96-26.93-14.9h-0.46l0.93,13.89H1132.49z M1174.34,1271.59
					c-13.67,0-20.51,8.5-20.51,25.46c0,13.3,1.16,21.84,3.49,25.6c2.33,3.78,7.57,5.65,15.8,5.65c8.59,0,14.08-1.73,16.46-5.19
					c2.4-3.46,3.58-11.39,3.58-23.76c0-11.51-1.17-19.04-3.52-22.52C1187.28,1273.36,1182.18,1271.59,1174.34,1271.59z"/>
				<path class="st0" d="M1253.1,1218.46v125.47h-21.04v-125.47H1253.1z"/>
				<path class="st0" d="M1330.4,1315.81h21.16v3.41c0,17.14-12.86,25.72-38.62,25.72c-17.47,0-28.89-2.96-34.29-8.91
					c-5.39-5.96-8.07-18.53-8.07-37.78c0-17.1,2.81-28.58,8.45-34.48c5.63-5.88,16.64-8.82,32.98-8.82c15.69,0,26.22,2.88,31.54,8.6
					c5.33,5.74,8.01,16.98,8.01,33.78v6.44h-59.48c-0.14,1.95-0.19,3.22-0.19,3.85c0,8.63,1.33,14.4,4.02,17.29
					c2.65,2.88,7.94,4.33,15.96,4.33c7.71,0,12.71-0.85,15.06-2.56C1329.24,1325.02,1330.4,1321.38,1330.4,1315.81z M1330.6,1290.91
					l-0.11-3.5c0-6.99-1.19-11.52-3.63-13.64c-2.4-2.05-7.66-3.11-15.73-3.11c-7.86,0-12.98,1.28-15.34,3.76
					c-2.35,2.52-3.5,8.02-3.5,16.48H1330.6z"/>
			</g>
			<g>
				<path class="st0" d="M539.36,1432.41c-10.76-14.52-28.23-22.32-46.26-22.32c-32.25,0-54.03,24.73-54.03,56.19
					c0,31.99,22.04,55.11,54.85,55.11c17.2,0,34.41-8.32,45.43-21.49v63.19c-17.49,5.35-30.12,9.4-46.52,9.4
					c-28.21,0-55.09-10.75-76.08-29.85c-22.32-20.16-32.53-46.51-32.53-76.62c0-27.7,10.49-54.31,29.84-74.19
					c19.89-20.46,48.67-32.83,77.17-32.83c16.94,0,32.53,3.77,48.12,10.25V1432.41z"/>
				<path class="st0" d="M624.6,1409.03v33.87H684v44.62h-59.4v34.95h62.64v44.62H571.9v-202.7h115.34v44.64H624.6z"/>
				<path class="st0" d="M719.79,1364.39h52.69L869,1488.33h0.55v-123.94h52.68v202.7h-52.68l-96.54-124.19h-0.54v124.19h-52.69
					V1364.39z"/>
				<path class="st0" d="M1037.35,1567.09h-52.71v-158.06h-43.57v-44.64h139.82v44.64h-43.54V1567.09z"/>
				<path class="st0" d="M1268.58,1567.09h-65.6l-49.77-77.94h-0.53v77.94h-52.69v-202.7h78.77c40.06,0,70.45,19.07,70.45,62.39
					c0,27.94-15.6,52.16-44.37,57.27L1268.58,1567.09z M1152.68,1455.27h5.11c17.2,0,36.57-3.23,36.57-25.27
					c0-22.04-19.36-25.27-36.57-25.27h-5.11V1455.27z"/>
				<path class="st0" d="M1334.45,1531.89l-13.98,35.21h-55.92l77.97-202.7h57.53l76.35,202.7h-56.2l-13.16-35.21H1334.45z
					 M1371.29,1427.03h-0.55l-21.78,64.53h43.82L1371.29,1427.03z"/>
				<path class="st0" d="M1545.5,1522.48h63.19v44.62h-115.88v-202.7h52.69V1522.48z"/>
			</g>
			
				<linearGradient id="SVGID_1_" gradientUnits="userSpaceOnUse" x1="-392.8555" y1="1747.5865" x2="536.6023" y2="1747.5865" gradientTransform="matrix(1 0 0 1 916.912 -886.3484)">
				<stop  offset="0" style="stop-color:#54565A"/>
				<stop  offset="1" style="stop-color:#8C9091"/>
			</linearGradient>
			<path class="st1" d="M1194.07,906.66l259.45,152.61c0,0-405.96,219.81-763.08,39.72c0,0-352.54-170.94-31.28-546.39
				c0,0-219.02,402.9,186.93,467.01C846.09,1019.6,1026.18,1040.97,1194.07,906.66z"/>
		</g>
		<g>
			<g>
				<path class="st2" d="M694.33,1256.05v16H660.5v44.12c0,8.16,3.09,12.22,9.28,12.22c6.8,0,10.2-4.93,10.2-14.77v-3.5h17.94v4.41
					c0,4.03-0.14,7.49-0.38,10.38c-1.16,13.42-11.15,20.13-29.96,20.13c-18.76,0-28.13-8.6-28.13-25.82v-47.17h-11.41v-16h11.41
					v-19.67h21.04v19.67H694.33z"/>
				<path class="st2" d="M766.13,1315.81h21.13v3.41c0,17.14-12.86,25.72-38.61,25.72c-17.46,0-28.89-2.96-34.29-8.91
					c-5.39-5.96-8.08-18.53-8.08-37.78c0-17.1,2.81-28.58,8.45-34.48c5.64-5.88,16.64-8.82,33.01-8.82c15.7,0,26.2,2.88,31.51,8.6
					c5.36,5.74,8.01,16.98,8.01,33.78v6.44H727.8c-0.14,1.95-0.19,3.22-0.19,3.85c0,8.63,1.32,14.4,3.99,17.29
					c2.68,2.88,7.99,4.33,15.96,4.33c7.72,0,12.74-0.85,15.08-2.56C764.95,1325.02,766.13,1321.38,766.13,1315.81z M766.29,1290.91
					l-0.07-3.5c0-6.99-1.22-11.52-3.64-13.64c-2.41-2.05-7.66-3.11-15.78-3.11c-7.83,0-12.92,1.28-15.29,3.76
					c-2.35,2.52-3.53,8.02-3.53,16.48H766.29z"/>
				<path class="st2" d="M825.87,1218.46v125.47h-21.06v-125.47H825.87z"/>
				<path class="st2" d="M903.17,1315.81h21.14v3.41c0,17.14-12.86,25.72-38.61,25.72c-17.47,0-28.88-2.96-34.27-8.91
					c-5.41-5.96-8.09-18.53-8.09-37.78c0-17.1,2.82-28.58,8.45-34.48c5.64-5.88,16.65-8.82,33-8.82c15.71,0,26.21,2.88,31.54,8.6
					c5.32,5.74,7.99,16.98,7.99,33.78v6.44h-59.47c-0.11,1.95-0.18,3.22-0.18,3.85c0,8.63,1.33,14.4,3.99,17.29
					c2.68,2.88,7.99,4.33,15.96,4.33c7.72,0,12.74-0.85,15.06-2.56C902.01,1325.02,903.17,1321.38,903.17,1315.81z M903.36,1290.91
					l-0.1-3.5c0-6.99-1.21-11.52-3.63-13.64c-2.42-2.05-7.68-3.11-15.77-3.11c-7.83,0-12.93,1.28-15.3,3.76
					c-2.35,2.52-3.54,8.02-3.54,16.48H903.36z"/>
				<path class="st2" d="M997.85,1310.38h20.96v3.04l-1.3,13.34c-2.57,12.13-15.13,18.19-37.69,18.19c-16.54,0-27.54-2.99-33-8.96
					c-5.44-5.98-8.18-17.99-8.18-36.08c0-17.63,2.74-29.53,8.18-35.65c5.46-6.14,16.06-9.21,31.82-9.21
					c15.19,0,25.49,2.23,30.89,6.68c5.38,4.43,8.06,12.89,8.06,25.31h-20.87c0-10.23-5.9-15.36-17.72-15.36
					c-8.41,0-13.68,1.64-15.79,4.89c-2.17,3.25-3.22,11.2-3.22,23.89c0,12.27,1.16,19.98,3.52,23.13c2.36,3.17,8.12,4.72,17.33,4.72
					c7.24,0,11.86-1.07,13.91-3.26C996.82,1322.86,997.85,1317.99,997.85,1310.38z"/>
				<path class="st2" d="M1056.11,1281.5h-21.5c0-10.52,2.46-17.56,7.35-21.12c4.91-3.55,14.63-5.34,29.11-5.34
					c15.84,0,26.53,2.2,32.12,6.53c5.56,4.36,8.36,12.64,8.36,24.92v57.44h-21.05l1-12.04l-0.55-0.1
					c-4.05,8.76-13.4,13.14-28.02,13.14c-21.29,0-31.91-9.03-31.91-27.1c0-18.27,10.86-27.4,32.62-27.4
					c14.53,0,23.36,3.35,26.48,10.01h0.38v-14.22c0-6.87-1.2-11.44-3.61-13.66c-2.39-2.25-7.3-3.36-14.71-3.36
					C1061.5,1269.21,1056.11,1273.3,1056.11,1281.5z M1070.2,1304.59c-11.9,0-17.85,4.12-17.85,12.33c0,5.7,1.25,9.42,3.67,11.21
					c2.47,1.79,7.63,2.68,15.45,2.68c12.81,0,19.21-4.34,19.21-12.97C1090.67,1309,1083.84,1304.59,1070.2,1304.59z"/>
				<path class="st2" d="M1132.49,1343.93v-125.47h21.08v50.2l0.46,0.17c3.59-9.24,12.75-13.88,27.46-13.88
					c12.65,0,21.27,3.08,25.97,9.24c4.68,6.15,7.03,17.57,7.03,34.24c0,18.19-2.38,30.5-7.13,36.88
					c-4.76,6.42-13.86,9.62-27.34,9.62c-13.66,0-22.66-4.96-26.93-14.9h-0.46l0.93,13.89H1132.49z M1174.34,1271.59
					c-13.67,0-20.51,8.5-20.51,25.46c0,13.3,1.16,21.84,3.49,25.6c2.33,3.78,7.57,5.65,15.8,5.65c8.59,0,14.08-1.73,16.46-5.19
					c2.4-3.46,3.58-11.39,3.58-23.76c0-11.51-1.17-19.04-3.52-22.52C1187.28,1273.36,1182.18,1271.59,1174.34,1271.59z"/>
				<path class="st2" d="M1253.1,1218.46v125.47h-21.04v-125.47H1253.1z"/>
				<path class="st2" d="M1330.4,1315.81h21.16v3.41c0,17.14-12.86,25.72-38.62,25.72c-17.47,0-28.89-2.96-34.29-8.91
					c-5.39-5.96-8.07-18.53-8.07-37.78c0-17.1,2.81-28.58,8.45-34.48c5.63-5.88,16.64-8.82,32.98-8.82c15.69,0,26.22,2.88,31.54,8.6
					c5.33,5.74,8.01,16.98,8.01,33.78v6.44h-59.48c-0.14,1.95-0.19,3.22-0.19,3.85c0,8.63,1.33,14.4,4.02,17.29
					c2.65,2.88,7.94,4.33,15.96,4.33c7.71,0,12.71-0.85,15.06-2.56C1329.24,1325.02,1330.4,1321.38,1330.4,1315.81z M1330.6,1290.91
					l-0.11-3.5c0-6.99-1.19-11.52-3.63-13.64c-2.4-2.05-7.66-3.11-15.73-3.11c-7.86,0-12.98,1.28-15.34,3.76
					c-2.35,2.52-3.5,8.02-3.5,16.48H1330.6z"/>
			</g>
			<g>
				<path class="st2" d="M539.36,1432.41c-10.76-14.52-28.23-22.32-46.26-22.32c-32.25,0-54.03,24.73-54.03,56.19
					c0,31.99,22.04,55.11,54.85,55.11c17.2,0,34.41-8.32,45.43-21.49v63.19c-17.49,5.35-30.12,9.4-46.52,9.4
					c-28.21,0-55.09-10.75-76.08-29.85c-22.32-20.16-32.53-46.51-32.53-76.62c0-27.7,10.49-54.31,29.84-74.19
					c19.89-20.46,48.67-32.83,77.17-32.83c16.94,0,32.53,3.77,48.12,10.25V1432.41z"/>
				<path class="st2" d="M624.6,1409.03v33.87H684v44.62h-59.4v34.95h62.64v44.62H571.9v-202.7h115.34v44.64H624.6z"/>
				<path class="st2" d="M719.79,1364.39h52.69L869,1488.33h0.55v-123.94h52.68v202.7h-52.68l-96.54-124.19h-0.54v124.19h-52.69
					V1364.39z"/>
				<path class="st2" d="M1037.35,1567.09h-52.71v-158.06h-43.57v-44.64h139.82v44.64h-43.54V1567.09z"/>
				<path class="st2" d="M1268.58,1567.09h-65.6l-49.77-77.94h-0.53v77.94h-52.69v-202.7h78.77c40.06,0,70.45,19.07,70.45,62.39
					c0,27.94-15.6,52.16-44.37,57.27L1268.58,1567.09z M1152.68,1455.27h5.11c17.2,0,36.57-3.23,36.57-25.27
					c0-22.04-19.36-25.27-36.57-25.27h-5.11V1455.27z"/>
				<path class="st2" d="M1334.45,1531.89l-13.98,35.21h-55.92l77.97-202.7h57.53l76.35,202.7h-56.2l-13.16-35.21H1334.45z
					 M1371.29,1427.03h-0.55l-21.78,64.53h43.82L1371.29,1427.03z"/>
				<path class="st2" d="M1545.5,1522.48h63.19v44.62h-115.88v-202.7h52.69V1522.48z"/>
			</g>
			
				<linearGradient id="SVGID_2_" gradientUnits="userSpaceOnUse" x1="-392.8555" y1="1747.5865" x2="536.6023" y2="1747.5865" gradientTransform="matrix(1 0 0 1 916.912 -886.3484)">
				<stop  offset="0" style="stop-color:#54565A"/>
				<stop  offset="1" style="stop-color:#8C9091"/>
			</linearGradient>
			<path class="st3" d="M1194.07,906.66l259.45,152.61c0,0-405.96,219.81-763.08,39.72c0,0-352.54-170.94-31.28-546.39
				c0,0-219.02,402.9,186.93,467.01C846.09,1019.6,1026.18,1040.97,1194.07,906.66z"/>
		</g>
	</g>
	<linearGradient id="SVGID_3_" gradientUnits="userSpaceOnUse" x1="651.928" y1="602.5515" x2="1405.1567" y2="602.5515">
		<stop  offset="0" style="stop-color:#FFA400"/>
		<stop  offset="1" style="stop-color:#FF7F40"/>
	</linearGradient>
	<path class="st4" d="M1264.75,485.33l140.41-212.27c0,0-522.3-106.4-694.17,183.55s51.48,554.31,410.08,482.6
		c0,0-264.3,24.64-288.94-187.57c0,0-16.77-123.01,75.11-221.37C907.24,530.29,1019.16,390.12,1264.75,485.33z"/>
</g>
<g>
	<path class="st2" d="M696.57,1693.42c0-1.86-0.27-3.53-0.81-5.02c-0.54-1.49-1.57-2.87-3.11-4.14c-1.54-1.27-3.66-2.51-6.37-3.74
		c-2.71-1.22-6.21-2.51-10.51-3.88c-4.88-1.56-9.48-3.32-13.81-5.27c-4.32-1.95-8.11-4.26-11.35-6.92
		c-3.25-2.66-5.81-5.72-7.69-9.19c-1.88-3.47-2.82-7.52-2.82-12.16c0-4.44,0.96-8.51,2.89-12.19c1.93-3.69,4.64-6.82,8.13-9.41
		c3.49-2.59,7.64-4.6,12.45-6.04c4.81-1.44,10.09-2.16,15.86-2.16c5.91,0,11.28,0.82,16.11,2.45c4.83,1.64,8.96,3.92,12.38,6.85
		c3.42,2.93,6.05,6.41,7.91,10.44c1.85,4.03,2.78,8.44,2.78,13.22h-21.97c0-2.25-0.35-4.32-1.06-6.23c-0.71-1.9-1.79-3.54-3.26-4.91
		c-1.46-1.37-3.3-2.43-5.49-3.19s-4.79-1.14-7.76-1.14c-2.88,0-5.38,0.32-7.51,0.95c-2.12,0.63-3.88,1.51-5.27,2.64
		c-1.39,1.12-2.44,2.44-3.15,3.96c-0.71,1.51-1.06,3.13-1.06,4.83c0,3.52,1.79,6.46,5.38,8.83s8.85,4.58,15.78,6.63
		c5.81,1.81,10.92,3.81,15.34,6.01c4.42,2.2,8.1,4.69,11.06,7.47c2.95,2.78,5.19,5.91,6.7,9.38c1.51,3.47,2.27,7.4,2.27,11.79
		c0,4.69-0.92,8.86-2.75,12.52s-4.43,6.75-7.8,9.26c-3.37,2.52-7.43,4.44-12.19,5.79c-4.76,1.34-10.07,2.01-15.93,2.01
		c-3.52,0-7.03-0.31-10.55-0.92c-3.52-0.61-6.87-1.55-10.07-2.82c-3.2-1.27-6.17-2.86-8.9-4.76c-2.74-1.9-5.12-4.15-7.14-6.74
		c-2.03-2.59-3.61-5.53-4.76-8.83c-1.15-3.29-1.72-6.95-1.72-10.95h22.05c0,3.22,0.51,5.96,1.54,8.2c1.03,2.25,2.45,4.06,4.28,5.46
		c1.83,1.39,4.04,2.41,6.63,3.04c2.59,0.63,5.47,0.95,8.64,0.95c2.83,0,5.3-0.3,7.4-0.92c2.1-0.61,3.83-1.45,5.2-2.53
		c1.37-1.07,2.38-2.36,3.04-3.85C696.24,1696.73,696.57,1695.13,696.57,1693.42z"/>
	<path class="st2" d="M800.44,1699.43h-38.53l-7.32,21.97h-23.36l39.7-106.64h20.36l39.92,106.64h-23.36L800.44,1699.43z
		 M767.84,1681.63h26.66l-13.4-39.92L767.84,1681.63z"/>
	<path class="st2" d="M934.63,1721.4h-21.97l-42.77-70.17v70.17h-21.97v-106.64h21.97l42.85,70.31v-70.31h21.9V1721.4z"/>
	<path class="st2" d="M1038.72,1632.56h-32.67v88.84h-21.97v-88.84h-32.23v-17.8h86.87V1632.56z"/>
	<path class="st2" d="M1081.36,1721.4h-21.97v-106.64h21.97V1721.4z"/>
	<path class="st2" d="M1169.99,1699.43h-38.53l-7.32,21.97h-23.36l39.7-106.64h20.36l39.92,106.64h-23.36L1169.99,1699.43z
		 M1137.4,1681.63h26.66l-13.4-39.92L1137.4,1681.63z"/>
	<path class="st2" d="M1300.3,1707.92c-1.27,1.51-3,3.14-5.2,4.87s-4.96,3.34-8.28,4.83c-3.32,1.49-7.24,2.73-11.76,3.73
		c-4.52,1-9.7,1.5-15.56,1.5c-6.88,0-13.17-1.13-18.86-3.41c-5.69-2.27-10.56-5.6-14.61-10c-4.05-4.39-7.19-9.79-9.41-16.19
		c-2.22-6.4-3.33-13.72-3.33-21.97v-6.3c0-8.25,1.06-15.59,3.19-22.01c2.13-6.42,5.13-11.83,9.01-16.22
		c3.88-4.39,8.58-7.74,14.1-10.03c5.52-2.29,11.65-3.44,18.38-3.44c6.93,0,12.93,0.87,17.98,2.6c5.05,1.73,9.28,4.16,12.67,7.29
		c3.39,3.13,6.04,6.86,7.95,11.21c1.9,4.35,3.15,9.11,3.74,14.28h-21.39c-0.44-2.68-1.12-5.11-2.05-7.29
		c-0.93-2.17-2.2-4.03-3.81-5.57c-1.61-1.54-3.6-2.72-5.97-3.55c-2.37-0.83-5.19-1.25-8.46-1.25c-7.52,0-13.23,2.84-17.14,8.53
		c-3.91,5.69-5.86,14.12-5.86,25.3v6.45c0,11.18,2.12,19.63,6.37,25.34s10.47,8.57,18.68,8.57c2.64,0,4.93-0.17,6.88-0.51
		c1.95-0.34,3.63-0.77,5.02-1.28c1.39-0.51,2.55-1.07,3.48-1.69c0.93-0.61,1.68-1.21,2.27-1.79v-18.38h-20v-16.19h41.97V1707.92z"/>
	<path class="st2" d="M1412.45,1670.5c0,8.16-1.1,15.47-3.3,21.94s-5.29,11.95-9.26,16.44c-3.98,4.49-8.75,7.95-14.32,10.36
		c-5.57,2.42-11.69,3.63-18.38,3.63c-6.69,0-12.82-1.21-18.38-3.63c-5.57-2.42-10.36-5.87-14.39-10.36
		c-4.03-4.49-7.17-9.97-9.41-16.44c-2.25-6.47-3.37-13.78-3.37-21.94v-4.69c0-8.1,1.11-15.41,3.33-21.9
		c2.22-6.49,5.33-12.01,9.34-16.55c4-4.54,8.79-8.02,14.36-10.44c5.57-2.42,11.69-3.63,18.38-3.63c6.69,0,12.82,1.21,18.38,3.63
		c5.57,2.42,10.35,5.9,14.36,10.44c4,4.54,7.12,10.06,9.34,16.55c2.22,6.49,3.33,13.79,3.33,21.9V1670.5z M1390.18,1665.66
		c0-11.18-2-19.68-6.01-25.49c-4-5.81-9.72-8.72-17.14-8.72c-7.42,0-13.14,2.91-17.14,8.72c-4,5.81-6.01,14.31-6.01,25.49v4.83
		c0,5.57,0.52,10.49,1.57,14.76s2.56,7.86,4.54,10.77c1.98,2.91,4.41,5.1,7.29,6.59c2.88,1.49,6.18,2.23,9.89,2.23
		c7.42,0,13.11-2.93,17.07-8.79s5.93-14.38,5.93-25.56V1665.66z"/>
</g>
</svg>
