<svg id="Layer_1" fill="#a51a17" enable-background="new 0 0 512 512" height="512" viewBox="0 0 512 512" width="512" xmlns="http://www.w3.org/2000/svg"><path d="m491.74 0h-199.47c-11.17 0-20.27 9.09-20.27 20.27v120h48.57c16.56-22.58 43.14-36.27 71.43-36.27 48.82 0 88.54 39.72 88.54 88.53 0 48.82-39.72 88.54-88.54 88.54-28.29 0-54.87-13.69-71.43-36.27h-48.57v246.93c0 11.18 9.1 20.27 20.27 20.27h199.47c11.17 0 20.26-9.09 20.26-20.27v-471.46c0-11.18-9.09-20.27-20.26-20.27zm-83.74 404.01v33.32c0 8.84-7.16 16-16 16-8.83 0-16-7.16-16-16v-33.32c-10.77-5.75-18.13-17.1-18.13-30.14 0-18.82 15.31-34.14 34.13-34.14s34.14 15.32 34.14 34.14c0 13.04-7.36 24.39-18.14 30.14z"/><path d="m343.05 220.79c10.09 17.44 28.85 28.28 48.95 28.28 31.18 0 56.54-25.36 56.54-56.54 0-31.17-25.36-56.53-56.54-56.53-20.1 0-38.86 10.84-48.95 28.28-2.86 4.94-8.14 7.99-13.85 7.99h-236.4c-11.17 0-20.26 9.09-20.26 20.26 0 11.18 9.09 20.27 20.26 20.27h236.4c5.71 0 10.99 3.04 13.85 7.99z"/><circle cx="112.17" cy="440" r="24"/><path d="m163.078 405.088c-4.095 0-8.189-1.562-11.314-4.687-21.834-21.834-57.361-21.834-79.195 0-6.249 6.249-16.379 6.249-22.627 0-6.249-6.248-6.249-16.379 0-22.627 34.311-34.312 90.14-34.312 124.45 0 10.109 10.11 2.811 27.314-11.314 27.314z"/><path d="m208.333 359.833c-4.095 0-8.189-1.562-11.313-4.687-46.788-46.787-122.918-46.787-169.706 0-6.248 6.249-16.379 6.249-22.627 0-6.249-6.248-6.249-16.379 0-22.627 59.265-59.265 155.695-59.265 214.96 0 10.108 10.109 2.811 27.314-11.314 27.314z"/></svg>