<?xml version="1.0" encoding="utf-8"?>
<!-- Generator: Adobe Illustrator 24.1.0, SVG Export Plug-In . SVG Version: 6.00 Build 0)  -->
<svg version="1.1" id="Capa_1" xmlns="http://www.w3.org/2000/svg" xmlns:xlink="http://www.w3.org/1999/xlink" x="0px" y="0px"
	 viewBox="0 0 1920 1080" style="enable-background:new 0 0 1920 1080;" xml:space="preserve">
<style type="text/css">
	.st0{fill:#565656;}
	.st1{fill:#FC6227;}
	.st2{fill:#FC6225;}
	.st3{fill:#FC6125;}
	.st4{fill:#FC6226;}
	.st5{fill:#616161;}
	.st6{fill:#5F5F5F;}
	.st7{fill:#646464;}
	.st8{fill:#626262;}
	.st9{fill:#5C5C5C;}
	.st10{fill:#676767;}
	.st11{fill:#FB5E1F;}
	.st12{fill:#013888;}
</style>
<g>
	<path class="st0" d="M719.18,371.58c82.48,0,164.98-0.61,247.45,0.29c35.34,0.38,68.72,9.7,97.24,32.16
		c14.52,11.43,25.94,25.28,32.58,42.7c2.56,6.72,3.68,13.82,3.7,21.01c0.08,21.5,0.52,43.01-0.08,64.49
		c-1,35.44-14.98,60.98-52.09,76.29c-27.25,11.24-56.01,13.9-85.1,13.94c-63.82,0.1-127.64,0.08-191.46-0.08
		c-4.86-0.01-6.13,1.35-6.08,6.14c0.24,24.99,0.01,49.99,0.22,74.98c0.03,4.08-1.21,4.95-5.07,4.94
		c-99.65-0.11-199.31,0.76-298.94-0.49c-45.75-0.57-82.66-19.91-104.22-62.62c-7-13.86-10.44-28.78-10.52-44.24
		c-0.22-42.16-0.25-84.32,0-126.48c0.12-19.45,2.96-38.44,13.41-55.49c10.85-17.7,27.02-28.56,46.04-35.72
		c17.26-6.49,35.32-8.97,53.54-10.95c8.83-0.96,17.62-0.84,26.43-0.85C563.88,371.55,641.53,371.57,719.18,371.58z M567.65,622.68
		c0,0.01,0,0.02,0,0.03c28.16,0,56.32-0.1,84.48,0.1c4.48,0.03,5.56-1.28,5.55-5.64c-0.15-52.32-0.15-104.64,0-156.96
		c0.01-4.48-1.4-5.77-5.73-5.59c-10.48,0.43-20.97,0.58-31.46,0.61c-44.16,0.14-88.31,0.21-132.47,0.29
		c-5.89,0.01-11.69,0.8-17.01,3.32c-15.61,7.41-21.27,21.05-21.46,37.12c-0.38,32.32-0.16,64.65-0.08,96.98
		c0.01,4.33,0.78,8.57,3.24,12.36c7.53,11.59,18.55,17.11,31.96,17.27C512.33,622.91,539.99,622.68,567.65,622.68z M867.26,539.59
		c0-0.04,0-0.08,0-0.13c31.65,0,63.3-0.01,94.96,0.01c6.22,0,12.28-1.08,18.1-3.08c14.01-4.82,22.49-13.95,21.36-29.66
		c-0.46-6.47-0.13-12.99-0.13-19.49c0-7.54-2.66-14.02-8.01-19.26c-9.99-9.81-22.79-13.28-36.05-13.35
		c-61.97-0.33-123.94-0.04-185.91-0.12c-4.46-0.01-6.13,1.06-6.09,5.84c0.23,24.65,0.2,49.31,0.04,73.96
		c-0.03,4.1,1.06,5.39,5.28,5.36C802.95,539.51,835.11,539.59,867.26,539.59z"/>
	<path class="st1" d="M1191.57,545.8c13.81,0.39,27.65-0.74,41.44,0.51c7.11,0.65,10.21,3.93,10.38,10.97
		c0.24,10.32,0,20.65,0.13,30.98c0.03,2.73-1.11,3.34-3.58,3.33c-21.99-0.07-43.97-0.07-65.96,0c-2.54,0.01-3.4-0.72-3.53-3.37
		c-0.71-14.39-0.78-14.39,13.56-14.39c12.66,0,25.32,0.07,37.98-0.08c1.92-0.02,5.34,1.62,5.4-2.24c0.05-3.49,0.56-7.68-4.1-9.17
		c-1.39-0.44-2.94-0.5-4.42-0.51c-17.66-0.04-35.31-0.05-52.97-0.04c-7.35,0-9.71,2.52-9.69,9.95c0.05,13.99-0.08,27.98,0.1,41.97
		c0.04,3.28-0.93,4.32-4.2,4.42c-14,0.41-14,0.5-14-13.44c0-15.32,0-30.65,0.01-45.97c0.01-6.95,3.53-11.41,10.53-12.24
		c13.43-1.58,26.95-0.34,40.42-0.68C1189.9,545.79,1190.74,545.8,1191.57,545.8z"/>
	<path class="st2" d="M1435.07,617.92c-12.33,0-24.65,0.02-36.98-0.01c-12.85-0.03-17.82-5.01-17.81-17.78
		c0.01-16.32,0.12-32.65-0.08-48.97c-0.05-3.82,1.14-5.01,4.82-4.68c3.3,0.3,6.68,0.28,9.98,0.01c3.5-0.29,4.54,0.91,4.49,4.45
		c-0.2,14.16-0.09,28.32-0.09,42.47c0,6.84,2.11,9.09,8.8,9.1c17.66,0.03,35.31,0.03,52.97,0c6.51-0.01,8.66-2.17,8.68-8.74
		c0.05-14.16,0.12-28.32-0.08-42.47c-0.05-3.68,0.9-5.13,4.73-4.82c3.97,0.32,7.99,0.14,11.99,0.04c2.12-0.05,2.95,0.73,2.95,2.9
		c-0.06,18.99,0.07,37.98-0.11,56.97c-0.06,6.03-3.95,9.93-10.33,10.96c-7.93,1.28-15.95,0.39-23.93,0.55
		C1448.4,618.03,1441.73,617.93,1435.07,617.92z"/>
	<path class="st1" d="M1565.73,618.07c-17.48,0-31.81-0.07-46.14,0.06c-3.18,0.03-4.3-0.82-4.32-4.2
		c-0.06-11.35-0.2-11.35,10.88-11.35c22.99-0.01,45.98-0.03,68.97,0c4.17,0.01,7.19-1.14,7.63-5.91c0.57-6.13,0.4-6.37-5.96-6.37
		c-15.16,0-30.32-0.13-45.48,0.1c-3.85,0.06-4.76-1.16-4.7-4.82c0.16-9.74,0-9.74,9.71-9.74c20.49,0,40.98,0.12,61.47-0.09
		c4.23-0.04,5.36,1.2,5.18,5.35c-0.35,7.81-0.03,15.66-0.11,23.49c-0.08,8.5-3.32,12.08-11.87,12.88
		C1594.88,618.96,1578.71,617.55,1565.73,618.07z"/>
	<path class="st3" d="M1318,618.06c-10.49,0-20.98,0.06-31.47-0.02c-11.38-0.09-16.71-5.56-16.71-16.94
		c0-16.65,0.09-33.31-0.07-49.96c-0.03-3.58,0.67-5.16,4.68-4.76c3.78,0.38,7.68,0.19,11.46-0.29c3.59-0.46,4.23,0.98,4.2,4.13
		c-0.12,13.15-0.11,26.31-0.02,39.47c0.06,8.69,2.3,10.72,11.04,10.77c16.48,0.1,32.97,0.35,49.45,0.34c3.62,0,4.92,0.98,4.85,4.83
		c-0.23,12.43-0.08,12.43-12.44,12.43C1334.65,618.07,1326.32,618.07,1318,618.06z"/>
	<path class="st4" d="M1568.5,547.74c13.82,0,27.65-0.11,41.47,0.04c7.42,0.08,10.92,2.55,12.72,8.23c1.59,5.02,1.05,5.78-4.18,5.78
		c-25.32,0.01-50.63,0.02-75.95,0.01c-7.6,0-9.1,1.46-9.08,8.92c0.01,5.16-0.1,10.33,0.04,15.49c0.07,2.7-0.67,3.74-3.63,3.84
		c-14.8,0.48-14.82,0.57-15.07-14.14c-0.09-5.16-0.11-10.33-0.08-15.49c0.07-9.04,3.16-12.47,12.28-12.62
		C1540.85,547.58,1554.68,547.75,1568.5,547.74z"/>
	<path class="st5" d="M1442.55,530.1c-6.52-0.2-13.45,1.46-18.6-4.61c-1.09-1.29-2.33-2.25-2.31-4.14
		c0.05-5.16-0.08-10.32,0.05-15.47c0.08-3.12,7.6-8.45,12.14-8.55c6.49-0.14,12.98-0.16,19.47,0c4.88,0.12,10.83,6.6,10.86,11.53
		c0.02,3,0.01,5.99,0.01,8.99c0,7.71-4.31,12.09-12.14,12.25C1448.87,530.16,1445.71,530.1,1442.55,530.1z M1442.54,523.38
		c0.66,0,1.33,0,1.99,0c13.66,0,13.61,0,12.84-13.49c-0.21-3.74-2.29-5.48-5.65-5.59c-5.81-0.19-11.64-0.3-17.43,0.05
		c-3.47,0.21-6.1,1.64-6.11,6.17c-0.02,12.86-0.19,12.86,12.86,12.86C1441.55,523.38,1442.05,523.38,1442.54,523.38z"/>
	<path class="st6" d="M1214.43,530.09c-6.74,0.04-13.58,1.05-19.02-4.8c-3.59-3.85-2.44-21.37,1.83-24.33
		c4.15-2.87,8.48-4.13,13.52-3.72c3.96,0.32,7.97,0.06,11.96,0.07c7.56,0.02,12.87,5.33,12.84,12.83c-0.01,2.82-0.01,5.65-0.01,8.47
		c0.01,6.9-4.11,11.19-11.15,11.45C1221.08,530.19,1217.75,530.09,1214.43,530.09z M1214.67,523.4c0.33,0,0.67,0,1,0
		c15.52,0.05,12.74,0.8,13.09-13.57c0.09-3.91-2.04-5.42-5.47-5.57c-3.65-0.16-7.32-0.04-10.98-0.04
		c-12.55-0.01-12.8,0.35-12.65,12.84c0.05,4.24,2.15,6.09,6.02,6.3C1208.68,523.53,1211.68,523.4,1214.67,523.4z"/>
	<path class="st7" d="M1553.17,530.24c-3.33,0-6.65,0-9.98,0c-8.89,0-12.88-4.02-12.88-12.92c0-2.16,0-4.33,0-6.49
		c0-9.01,4.46-13.46,13.48-13.45c7.32,0,14.64,0.05,21.95-0.03c2.46-0.03,4.1,0.2,4.1,3.39c0,3.12-1.56,3.54-4.06,3.51
		c-7.15-0.07-14.31-0.06-21.46-0.02c-6.07,0.03-7.1,1.01-7.06,6.86c0.09,13.53-1.72,12.24,12.24,12.26
		c5.16,0.01,10.31-0.01,15.47,0.01c2.42,0.01,5.04-0.71,4.88,3.49c-0.16,4.11-2.8,3.35-5.19,3.38
		C1560.82,530.27,1556.99,530.24,1553.17,530.24z"/>
	<path class="st7" d="M1322.59,530.24c-3.67,0-7.33,0.02-11-0.01c-7.61-0.06-11.95-4.42-11.94-11.93c0-2.5,0.01-5,0-7.5
		c0-9.11,4.32-13.41,13.58-13.43c7.16-0.01,14.33,0.07,21.49,0.02c2.49-0.02,4.7-0.18,4.6,3.44c-0.1,3.58-2.44,3.38-4.83,3.38
		c-6.83,0-13.66-0.03-20.49,0c-6.68,0.02-7.63,0.93-7.58,7.36c0.09,12.08-2.03,11.89,11.82,11.78c5.66-0.05,11.33,0.06,16.99-0.04
		c2.48-0.04,4.19,0.24,4.09,3.42c-0.1,3.03-1.74,3.56-4.23,3.52C1330.92,530.19,1326.76,530.24,1322.59,530.24z"/>
	<path class="st6" d="M1162.96,530.09c-3.32,0-6.65,0.02-9.97,0c-8.99-0.06-13.52-4.63-13.51-13.6c0-1.5,0-2.99,0-4.49
		c0-9.92,4.84-14.67,14.99-14.69c6.98-0.01,13.96,0.04,20.95-0.03c2.24-0.02,3.88,0.19,3.93,3.09c0.05,2.8-1.03,3.89-3.8,3.85
		c-6.98-0.09-13.96-0.04-20.95-0.02c-7.09,0.02-8.51,1.42-8.52,8.33c0,1.5,0.05,2.99-0.02,4.49c-0.21,4.45,2.07,6.41,6.32,6.41
		c7.65,0.01,15.29,0.01,22.94-0.01c2.07-0.01,4.02-0.18,4.03,2.91c0.01,2.85-1.23,3.85-3.92,3.79
		C1171.27,530.03,1167.11,530.09,1162.96,530.09z"/>
	<path class="st5" d="M838.67,678.34c-2.5,3.42-3.11,6.63-4.18,9.65c-0.75,2.13-1.02,4.93-3.98,5.1c-3.14,0.19-3.34-2.59-4.08-4.76
		c-1.13-3.27-2.39-6.49-3.84-10.4c-2.23,3.6-0.95,6.9-1.21,9.99c-0.2,2.34,0.2,5.19-3.11,5.16c-3.02-0.03-2.76-2.71-2.76-4.9
		c0.01-7.15,0.02-14.31-0.01-21.46c-0.01-2.11-0.01-4.14,2.8-4.36c2.39-0.19,4.66-0.25,5.62,2.75c1.57,4.89,3.28,9.74,4.98,14.58
		c0.35,1.01,0.09,2.63,1.68,2.67c1.54,0.04,1.51-1.48,1.87-2.53c1.61-4.71,3.36-9.38,4.76-14.15c0.83-2.83,2.52-3.7,5.19-3.33
		c3.01,0.42,2.91,2.68,2.9,4.9c-0.01,6.66,0.02,13.31-0.02,19.97c-0.02,2.42,0.65,5.69-2.93,5.82c-3.75,0.13-2.89-3.19-3.08-5.58
		C839.08,684.75,839.95,681.96,838.67,678.34z"/>
	<path class="st7" d="M1371.45,515.42c-0.83,0-1.67,0-2.5,0c-10.98,0-11.05,0-11.55,11.14c-0.11,2.47-0.76,3.72-3.4,3.71
		c-2.5-0.02-3.7-0.95-3.48-3.59c0.44-5.26-1.41-10.79,3.77-15.24c2.56-2.2,0.72-6.37,0.95-9.64c0.17-2.34-0.4-4.7,3.36-4.61
		c3.62,0.08,2.86,2.45,2.87,4.49c0.06,7.29-1.14,6.98,6.97,6.99c1,0,2,0,3,0c8.49,0,8.56,0,9.19-8.2c0.18-2.3,0.93-3.26,3.3-3.26
		c2.31,0.01,3.42,0.82,3.35,3.19c-0.07,2.33,0.04,4.67-0.05,7c-0.07,1.81,0.28,3.44,2.09,4.12c3.91,1.48,4.37,4.5,4.07,8.09
		c-0.19,2.32-0.16,4.67,0,6.99c0.18,2.59-0.88,3.63-3.42,3.65c-2.74,0.02-3.2-1.47-3.31-3.82c-0.52-11.03-0.58-11.02-11.72-11.02
		C1373.78,515.42,1372.61,515.42,1371.45,515.42z"/>
	<path class="st7" d="M1596.66,530.24c-4.67,0-9.33-0.1-14,0.04c-2.85,0.09-3.73-1.08-3.79-3.84c-0.06-3,1.54-3.12,3.79-3.11
		c8.66,0.07,17.33,0.04,25.99,0.01c1.32,0,2.69-0.03,3.95-0.36c1.77-0.47,2.85-1.65,2.65-3.66c-0.25-2.48-2.14-2.13-3.76-2.14
		c-4.5-0.03-9-0.06-13.5,0.01c-2.28,0.03-3.82-0.33-3.83-3.22c-0.02-2.79,1.29-3.34,3.69-3.31c6.83,0.09,13.66,0.02,20.49,0.05
		c1.12,0,2.3-0.19,3.03,1.13c4.25,7.66-1.62,17.87-10.73,18.36C1606,530.44,1601.33,530.23,1596.66,530.24z"/>
	<path class="st6" d="M1243.26,677.55c0-3.82,0.1-7.65-0.04-11.46c-0.09-2.49,0.82-3.8,3.38-3.75c4.65,0.09,9.3,0.06,13.94,0.3
		c3.95,0.2,6.38,2.65,7.56,6.24c1.12,3.4-0.16,6.33-2.77,8.44c-2.26,1.82-2.85,3.17-0.6,5.5c1.58,1.63,2.63,3.8,3.81,5.8
		c0.79,1.34,2.4,2.93,0.22,4.23c-1.73,1.04-3.72,0.55-4.96-1.01c-1.44-1.8-2.45-3.94-3.77-5.85c-1.04-1.49-2.2-2.92-3.45-4.25
		c-1.67-1.77-3.93-1.91-6.02-1.28c-2.19,0.67-1.15,2.8-1.29,4.31c-0.17,1.81,0.02,3.66-0.15,5.47c-0.18,1.91-1.28,3.09-3.32,2.84
		c-1.74-0.21-2.56-1.3-2.55-3.09C1243.28,685.86,1243.26,681.7,1243.26,677.55z M1255.05,674.61c2.79-0.3,6.99,1.08,7.01-3.3
		c0.03-4.54-4.25-3.65-7.22-3.63c-2.37,0.01-5.54-1.23-5.63,3.3C1249.12,675.91,1252.61,674.24,1255.05,674.61z"/>
	<path class="st8" d="M1179.67,677.31c0-14.99,0-14.99,14.8-15.03c1.67,0,3.33-0.01,5-0.02c1.7,0,3.01,0.66,3.15,2.47
		c0.15,2-1.02,3.18-2.98,3.23c-3.48,0.08-6.98,0.11-10.46-0.09c-2.75-0.16-3.41,1.19-3.5,3.58c-0.09,2.52,1.16,3.16,3.37,3.1
		c3.16-0.08,6.33-0.01,9.5-0.03c1.97-0.01,3.3,0.74,3.2,2.88c-0.09,1.89-1.47,2.46-3.14,2.47c-3,0.02-6.01,0.16-8.99-0.04
		c-3.19-0.21-3.93,1.27-3.96,4.15c-0.02,3,1.32,3.7,3.97,3.59c3.33-0.14,6.66-0.04,10-0.04c2.07,0,3.78,0.69,3.68,3.03
		c-0.09,2.07-1.81,2.64-3.6,2.66c-5.33,0.05-10.66,0.02-15.99,0.03c-2.98,0-4.11-1.62-4.06-4.45
		C1179.72,684.98,1179.67,681.15,1179.67,677.31z"/>
	<path class="st5" d="M1611.49,693.65c-4.17-0.4-8.76-1.54-11.02-6.74c-0.79-1.82-2.04-3.8,0.69-5.06c2.25-1.04,3.2,0.54,4.24,2.23
		c2.41,3.93,6.78,5.21,10.68,3.36c1.43-0.68,2.67-1.57,2.65-3.28c-0.02-1.52-1.2-2.34-2.52-2.77c-2.84-0.92-5.72-1.68-8.56-2.59
		c-4.14-1.32-7.31-3.79-6.99-8.5c0.32-4.77,3.53-7.24,8.09-8.2c5.4-1.13,11.35,1.06,13.49,5.17c0.83,1.6,2.05,3.46-0.16,4.8
		c-1.9,1.16-3.56,0.39-4.49-1.6c-1.75-3.72-5.02-3.34-8.17-2.97c-1.51,0.18-2.89,1.03-2.97,2.86c-0.07,1.61,1.1,2.39,2.41,2.79
		c1.9,0.58,3.85,1,5.79,1.42c6.09,1.29,10.25,5.56,9.83,10.13C1624.02,689.57,1618.42,693.69,1611.49,693.65z"/>
	<path class="st6" d="M1128.42,693.64c-5.69-0.05-10.24-2.85-12.03-7.27c-0.76-1.89-1.12-3.6,1.15-4.59
		c2.01-0.87,2.89,0.44,3.85,2.02c2.62,4.3,7.78,5.74,11.48,3.39c2.82-1.79,2.85-4.07-0.08-5.7c-2.19-1.22-4.68-1.6-7.13-2.14
		c-5.94-1.32-9.64-5.45-8.94-9.63c0.79-4.76,5.91-8.28,11.76-7.86c4.29,0.31,8.23,1.42,10.23,5.85c0.72,1.59,1.34,3.26-0.55,4.4
		c-1.77,1.07-3.18,0.2-4.23-1.34c-0.46-0.67-0.68-1.6-1.29-2.07c-2.47-1.9-5.29-1.8-8.05-0.86c-1.24,0.43-2.57,1.47-2.02,3.01
		c0.93,2.58,3.67,2.55,5.76,3.39c0.6,0.24,1.32,0.15,1.97,0.26c6.62,1.17,10.66,5.22,10.21,10.2
		C1140.06,689.75,1134.71,693.7,1128.42,693.64z"/>
	<path class="st6" d="M1546.28,693.63c-8.18-0.04-14.62-6.98-14.61-15.73c0.01-9.35,6.19-16.13,14.67-16.11
		c8.51,0.02,15.01,6.96,14.95,15.93C1561.22,686.78,1554.73,693.67,1546.28,693.63z M1555.39,677.79
		c0.07-6.42-3.19-10.34-8.69-10.46c-5.97-0.12-9.1,3.4-9.16,10.32c-0.06,6.18,3.39,10.52,8.54,10.73
		C1551.44,688.6,1555.32,684.19,1555.39,677.79z"/>
	<path class="st8" d="M892.46,674.22c0,2.49,0.12,4.99-0.03,7.48c-0.27,4.52,2.34,6.53,6.28,6.59c3.99,0.06,6.48-2.09,6.43-6.49
		c-0.06-4.82,0.04-9.64-0.01-14.46c-0.03-2.42-0.28-4.99,3.19-4.96c3.12,0.03,3.09,2.43,3,4.67c-0.25,5.96,0.64,11.97-0.79,17.88
		c-1.36,5.62-5.45,8.7-11.67,8.73c-6.3,0.03-10.33-2.9-11.64-8.54c-1.53-6.56-0.41-13.23-0.72-19.85c-0.08-1.75,0.87-2.9,2.64-2.95
		c1.9-0.06,3.22,0.87,3.26,2.92c0.06,2.99,0.02,5.98,0.02,8.97C892.42,674.22,892.44,674.22,892.46,674.22z"/>
	<path class="st7" d="M1290.42,510.75c0,2.49,0,4.98,0,7.47c0,7.03-4.24,11.29-11.3,11.31c-3.65,0.01-7.31-0.09-10.96,0.03
		c-2.47,0.08-3.66-0.63-3.53-3.37c0.19-3.98,0.19-7.98,0-11.95c-0.14-2.88,1-3.72,3.77-3.73c2.9-0.01,3.32,1.47,3.11,3.76
		c-0.05,0.49-0.01,1-0.01,1.49c0.01,6.95,2.43,8.71,9.26,6.91c2.72-0.72,3.01-2.7,3-5c-0.03-5.48,0.04-10.96-0.04-16.44
		c-0.04-2.49,0.35-4.09,3.46-4.12c3.27-0.03,3.33,1.79,3.26,4.16C1290.35,504.44,1290.42,507.6,1290.42,510.75z"/>
	<path class="st8" d="M1519.5,510.37c-0.01,2.66-0.01,5.32,0,7.98c0,7.09-4.1,11.2-11.3,11.16c-4.47-0.03-10.42,1.45-13.01-0.82
		c-3.01-2.63-0.75-8.73-0.96-13.32c-0.1-2.12-0.98-4.76,2.98-4.86c4.3-0.1,3.27,2.75,3.29,5.05c0.08,7.35,0.06,7.14,6.57,7.32
		c4.35,0.12,5.99-1.47,5.77-5.83c-0.28-5.31,0.02-10.64-0.11-15.96c-0.06-2.67,0.7-3.93,3.64-3.94c2.9-0.01,3.24,1.44,3.16,3.75
		C1519.42,504.05,1519.5,507.22,1519.5,510.37z"/>
	<path class="st6" d="M1431.18,693.63c-4.79-0.23-9.22-2.43-11.58-7.68c-3.24-7.21-2.28-15.61,2.45-20.01
		c4.34-4.05,9.51-5.19,15.24-3.15c2.83,1,4.7,3.01,6.18,5.52c0.84,1.42,1.31,2.8-0.4,3.84c-1.59,0.97-3.29,1.08-4.31-0.78
		c-1.5-2.74-3.53-4.18-6.79-4.09c-5.33,0.16-7.97,2.92-8.32,9.04c-0.4,7.2,2.31,11.63,7.55,12.05c3.53,0.28,6.12-1.39,7.54-4.59
		c1.01-2.27,2.51-3.12,4.68-1.9c2.33,1.31,1.15,3.08,0.29,4.71C1441.38,691.02,1437.03,693.63,1431.18,693.63z"/>
	<path class="st6" d="M1320.68,684.38c3.52-5.16,4.14-10.26,6.29-14.69c0.58-1.19,1.03-2.46,1.41-3.73
		c0.75-2.54,2.13-4.55,4.97-3.35c3.02,1.28,0.72,3.37,0.1,5.02c-2.64,6.98-5.32,13.94-8.12,20.86c-0.83,2.06-1.34,4.75-4.42,4.72
		c-2.78-0.03-3.35-2.37-4.13-4.36c-2.9-7.43-5.75-14.88-8.68-22.29c-0.63-1.61-1.63-3.22,0.77-4.06c2.02-0.71,3.67,0.02,4.44,2.06
		c1.65,4.35,3.18,8.75,4.78,13.13C1318.78,679.52,1319.51,681.33,1320.68,684.38z"/>
	<path class="st8" d="M1475.6,517.17c0-2.66,0-5.32,0-7.98c0.01-7.26,4.65-11.83,12.02-11.83c3.16,0,6.32,0.12,9.48-0.03
		c2.69-0.13,3.35,1.06,3.4,3.57c0.06,2.79-1.48,2.86-3.47,2.82c-2.99-0.06-5.99-0.02-8.98-0.02c-3.85,0-5.83,1.77-5.76,5.78
		c0.1,5.49,0.01,10.97,0.04,16.46c0.02,2.46,0.1,4.62-3.52,4.52c-3.3-0.09-3.26-2-3.22-4.31
		C1475.64,523.15,1475.6,520.16,1475.6,517.17z"/>
	<path class="st9" d="M1246.16,517c0-2.5,0.01-5,0-7.5c-0.03-7.12,4.81-12.02,11.87-12.02c3,0,6-0.01,9,0
		c2.11,0.01,4.32-0.55,4.44,2.98c0.14,4.01-2.47,3.1-4.64,3.14c-2.66,0.05-5.33,0.06-8,0c-3.96-0.09-5.83,1.84-5.82,5.76
		c0.02,5.66-0.04,11.33,0.06,16.99c0.05,2.48-0.21,4.1-3.41,4.08c-3.01-0.02-3.69-1.26-3.54-3.94
		C1246.29,523.34,1246.16,520.16,1246.16,517z"/>
	<path class="st8" d="M1015.66,679.98c0-1.66-0.15-3.34,0.03-4.98c0.51-4.72,0.01-8.31-6.26-7.24c-1.87,0.32-3.27-0.9-3.23-2.91
		c0.04-1.86,1.5-2.49,3.13-2.5c6.31-0.04,12.62-0.04,18.94-0.01c1.63,0.01,3.04,0.58,3.09,2.49c0.06,2.11-1.39,3.23-3.2,2.93
		c-6.72-1.1-6.66,3.01-6.43,7.7c0.22,4.47,0.01,8.97,0.08,13.45c0.03,2.24-0.44,4.21-3.04,4.2c-2.52-0.01-3.19-1.88-3.13-4.17
		C1015.72,685.96,1015.66,682.97,1015.66,679.98z"/>
	<path class="st9" d="M1601.82,498.44c3.82,0,7.64,0.07,11.46-0.02c2.49-0.06,4.48-0.21,4.39,3.44c-0.09,3.37-1.9,3.18-4.21,3.15
		c-6.48-0.07-12.96-0.02-19.43-0.03c-8.1-0.01-8.52,0.21-8.48,8.25c0.02,3.61-1.58,4.33-4.53,3.91c-0.61-0.09-1.32-0.36-1.73-0.79
		c-1.53-1.64-0.45-12.06,1.39-13.56c3.53-2.89,7.24-5.09,12.18-4.43C1595.8,498.76,1598.83,498.44,1601.82,498.44z"/>
	<path class="st7" d="M951.63,677.57c0-3.82,0.05-7.64-0.02-11.46c-0.04-2.12,0.53-3.68,2.9-3.75c2.64-0.08,3.31,1.56,3.28,3.91
		c-0.08,5.65,0.11,11.3-0.09,16.94c-0.11,3.16,0.81,4.68,4.18,4.36c2.14-0.2,4.32,0.02,6.48-0.05c1.94-0.06,3.46,0.76,3.61,2.61
		c0.14,1.86-1.23,3.07-3.18,3.09c-4.65,0.05-9.31,0.11-13.95-0.05c-2.47-0.08-3.27-1.8-3.22-4.14
		C951.69,685.22,951.63,681.39,951.63,677.57z"/>
	<path class="st10" d="M1411.39,513.71c0,4.33-0.06,8.67,0.02,13c0.04,2.16-0.48,3.53-2.99,3.56c-2.48,0.02-3.69-0.96-3.66-3.54
		c0.09-8.66,0.1-17.33,0.15-25.99c0.01-2.34,0.8-3.69,3.55-3.55c2.53,0.13,3.03,1.39,2.99,3.54c-0.07,4.33-0.02,8.66-0.02,13
		C1411.42,513.71,1411.4,513.71,1411.39,513.71z"/>
	<path class="st10" d="M1491.66,677.89c0,3.82-0.04,7.63,0.02,11.45c0.03,2.08-0.56,3.79-2.87,3.84c-2.32,0.05-3.04-1.72-3.05-3.74
		c-0.03-7.8-0.02-15.6-0.02-23.4c0-2.04,0.6-3.72,2.97-3.76c2.39-0.04,2.99,1.55,2.96,3.66
		C1491.62,669.93,1491.66,673.91,1491.66,677.89z"/>
	<path class="st8" d="M1379.43,677.71c0,3.83-0.05,7.66,0.02,11.5c0.04,2.08-0.52,3.81-2.81,3.94c-2.6,0.14-3.32-1.66-3.31-3.96
		c0.02-7.66,0.04-15.33-0.01-22.99c-0.01-2.38,0.77-3.96,3.39-3.85c2.48,0.1,2.78,1.84,2.74,3.87
		C1379.38,670.05,1379.42,673.88,1379.43,677.71z"/>
	<path class="st7" d="M1069.57,677.93c0-3.97,0.07-7.95-0.03-11.92c-0.05-2.14,0.53-3.66,2.89-3.7c2.48-0.04,2.9,1.68,2.89,3.7
		c-0.02,7.78,0,15.56-0.02,23.34c0,1.98-0.47,3.81-2.91,3.76c-2.35-0.04-2.9-1.68-2.85-3.77
		C1069.63,685.55,1069.57,681.74,1069.57,677.93z"/>
	<path class="st9" d="M1556.22,510.22c2.83-0.01,5.66,0.17,8.47-0.06c2.56-0.21,3.2,1.12,3.29,3.21c0.09,2.23-0.77,3.26-3.22,3.19
		c-5.98-0.15-11.96-0.11-17.95-0.02c-2.26,0.03-3.3-0.58-3.24-3.09c0.06-2.32,0.78-3.34,3.17-3.25
		C1549.9,510.31,1553.06,510.22,1556.22,510.22z"/>
	<path class="st9" d="M1325.08,516.51c-2.82,0-5.64-0.07-8.46,0.02c-2.04,0.06-3.51-0.06-3.41-2.82c0.09-2.35,0.38-3.67,3.26-3.56
		c5.8,0.21,11.62,0.15,17.42,0.02c2.51-0.05,3.57,0.69,3.55,3.37c-0.02,2.59-1.25,3.05-3.4,2.98
		C1331.06,516.44,1328.07,516.51,1325.08,516.51z"/>
	<path class="st11" d="M567.65,622.68c-27.66,0-55.32,0.23-82.98-0.1c-13.41-0.16-24.44-5.68-31.96-17.27
		c-2.47-3.8-3.23-8.03-3.24-12.36c-0.07-32.33-0.3-64.65,0.08-96.98c0.19-16.07,5.84-29.71,21.46-37.12
		c5.32-2.53,11.12-3.31,17.01-3.32c44.16-0.08,88.31-0.15,132.47-0.29c10.49-0.03,20.98-0.19,31.46-0.61
		c4.33-0.18,5.74,1.12,5.73,5.59c-0.14,52.32-0.14,104.64,0,156.96c0.01,4.36-1.07,5.67-5.55,5.64c-28.16-0.2-56.32-0.1-84.48-0.1
		C567.65,622.7,567.65,622.69,567.65,622.68z"/>
	<path class="st12" d="M867.26,539.59c-32.15,0-64.3-0.08-96.46,0.09c-4.22,0.02-5.31-1.27-5.28-5.36
		c0.17-24.65,0.19-49.31-0.04-73.96c-0.04-4.78,1.63-5.84,6.09-5.84c61.97,0.08,123.94-0.21,185.91,0.12
		c13.26,0.07,26.06,3.54,36.05,13.35c5.35,5.25,8.01,11.73,8.01,19.26c0,6.5-0.33,13.02,0.13,19.49
		c1.12,15.71-7.35,24.85-21.36,29.66c-5.82,2-11.88,3.08-18.1,3.08c-31.65-0.02-63.3-0.01-94.96-0.01
		C867.26,539.5,867.26,539.55,867.26,539.59z"/>
</g>
</svg>
