<?xml version="1.0" encoding="utf-8"?>
<!-- Generator: Adobe Illustrator 24.1.0, SVG Export Plug-In . SVG Version: 6.00 Build 0)  -->
<svg version="1.1" id="Capa_1" xmlns="http://www.w3.org/2000/svg" xmlns:xlink="http://www.w3.org/1999/xlink" x="0px" y="0px"
	 viewBox="0 0 2000 2000" style="enable-background:new 0 0 2000 2000;" xml:space="preserve">
<style type="text/css">
	.st0{fill:#54565A;}
	.st1{fill:url(#SVGID_1_);}
	.st2{fill:url(#SVGID_2_);}
</style>
<g>
	<g>
		<g>
			<path class="st0" d="M698.5,1306.6v15.9h-33.7v44c0,8.1,3.1,12.2,9.2,12.2c6.8,0,10.2-4.9,10.2-14.7v-3.5h17.9v4.4
				c0,4-0.1,7.5-0.4,10.3c-1.2,13.4-11.1,20.1-29.8,20.1c-18.7,0-28-8.6-28-25.7v-47h-11.4v-15.9h11.4V1287h21v19.6H698.5
				L698.5,1306.6z"/>
			<path class="st0" d="M770.1,1366.1h21v3.4c0,17.1-12.8,25.6-38.5,25.6c-17.4,0-28.8-2.9-34.2-8.9c-5.4-5.9-8-18.5-8-37.6
				c0-17,2.8-28.5,8.4-34.3c5.6-5.9,16.6-8.8,32.9-8.8c15.6,0,26.1,2.9,31.4,8.6c5.3,5.7,8,16.9,8,33.6v6.4h-59.2
				c-0.1,1.9-0.2,3.2-0.2,3.8c0,8.6,1.3,14.3,4,17.2c2.7,2.9,8,4.3,15.9,4.3c7.7,0,12.7-0.8,15-2.6
				C768.9,1375.3,770.1,1371.7,770.1,1366.1z M770.2,1341.3l-0.1-3.5c0-7-1.2-11.5-3.6-13.6c-2.4-2-7.6-3.1-15.7-3.1
				c-7.8,0-12.9,1.3-15.2,3.7c-2.3,2.5-3.5,8-3.5,16.4L770.2,1341.3L770.2,1341.3z"/>
			<path class="st0" d="M829.6,1269.2v125h-21v-125H829.6z"/>
			<path class="st0" d="M906.6,1366.1h21.1v3.4c0,17.1-12.8,25.6-38.5,25.6c-17.4,0-28.8-2.9-34.1-8.9c-5.4-5.9-8.1-18.5-8.1-37.6
				c0-17,2.8-28.5,8.4-34.3c5.6-5.9,16.6-8.8,32.9-8.8c15.6,0,26.1,2.9,31.4,8.6c5.3,5.7,8,16.9,8,33.6v6.4h-59.2
				c-0.1,1.9-0.2,3.2-0.2,3.8c0,8.6,1.3,14.3,4,17.2c2.7,2.9,8,4.3,15.9,4.3c7.7,0,12.7-0.8,15-2.6
				C905.4,1375.3,906.6,1371.7,906.6,1366.1z M906.8,1341.3l-0.1-3.5c0-7-1.2-11.5-3.6-13.6c-2.4-2-7.6-3.1-15.7-3.1
				c-7.8,0-12.9,1.3-15.2,3.7c-2.3,2.5-3.5,8-3.5,16.4L906.8,1341.3L906.8,1341.3z"/>
			<path class="st0" d="M1000.9,1360.7h20.9v3l-1.3,13.3c-2.6,12.1-15.1,18.1-37.5,18.1c-16.5,0-27.4-3-32.9-8.9
				c-5.4-6-8.1-17.9-8.1-35.9c0-17.6,2.7-29.4,8.1-35.5c5.4-6.1,16-9.2,31.7-9.2c15.1,0,25.4,2.2,30.8,6.7c5.4,4.4,8,12.8,8,25.2
				h-20.8c0-10.2-5.9-15.3-17.6-15.3c-8.4,0-13.6,1.6-15.7,4.9c-2.2,3.2-3.2,11.2-3.2,23.8c0,12.2,1.2,19.9,3.5,23
				c2.4,3.2,8.1,4.7,17.3,4.7c7.2,0,11.8-1.1,13.9-3.3C999.9,1373.1,1000.9,1368.3,1000.9,1360.7z"/>
			<path class="st0" d="M1058.9,1331.9h-21.4c0-10.5,2.5-17.5,7.3-21c4.9-3.5,14.6-5.3,29-5.3c15.8,0,26.4,2.2,32,6.5
				c5.5,4.3,8.3,12.6,8.3,24.8v57.2h-21l1-12l-0.6-0.1c-4,8.7-13.3,13.1-27.9,13.1c-21.2,0-31.8-9-31.8-27
				c0-18.2,10.8-27.3,32.5-27.3c14.5,0,23.3,3.3,26.4,10h0.4v-14.2c0-6.8-1.2-11.4-3.6-13.6c-2.4-2.2-7.3-3.3-14.7-3.3
				C1064.3,1319.7,1058.9,1323.8,1058.9,1331.9z M1073,1354.9c-11.9,0-17.8,4.1-17.8,12.3c0,5.7,1.2,9.4,3.7,11.2
				c2.5,1.8,7.6,2.7,15.4,2.7c12.8,0,19.1-4.3,19.1-12.9C1093.3,1359.3,1086.5,1354.9,1073,1354.9z"/>
			<path class="st0" d="M1135,1394.1v-125h21v50l0.5,0.2c3.6-9.2,12.7-13.8,27.4-13.8c12.6,0,21.2,3.1,25.9,9.2
				c4.7,6.1,7,17.5,7,34.1c0,18.1-2.4,30.4-7.1,36.7c-4.7,6.4-13.8,9.6-27.2,9.6c-13.6,0-22.6-4.9-26.8-14.8h-0.5l0.9,13.8H1135
				L1135,1394.1z M1176.7,1322.1c-13.6,0-20.4,8.5-20.4,25.4c0,13.2,1.2,21.8,3.5,25.5c2.3,3.8,7.5,5.6,15.7,5.6
				c8.6,0,14-1.7,16.4-5.2c2.4-3.4,3.6-11.3,3.6-23.7c0-11.5-1.2-19-3.5-22.4C1189.6,1323.8,1184.5,1322.1,1176.7,1322.1z"/>
			<path class="st0" d="M1255.1,1269.2v125h-21v-125H1255.1z"/>
			<path class="st0" d="M1332.1,1366.1h21.1v3.4c0,17.1-12.8,25.6-38.5,25.6c-17.4,0-28.8-2.9-34.2-8.9c-5.4-5.9-8-18.5-8-37.6
				c0-17,2.8-28.5,8.4-34.3c5.6-5.9,16.6-8.8,32.9-8.8c15.6,0,26.1,2.9,31.4,8.6c5.3,5.7,8,16.9,8,33.6v6.4H1294
				c-0.1,1.9-0.2,3.2-0.2,3.8c0,8.6,1.3,14.3,4,17.2c2.6,2.9,7.9,4.3,15.9,4.3c7.7,0,12.7-0.8,15-2.6
				C1331,1375.3,1332.1,1371.7,1332.1,1366.1z M1332.3,1341.3l-0.1-3.5c0-7-1.2-11.5-3.6-13.6c-2.4-2-7.6-3.1-15.7-3.1
				c-7.8,0-12.9,1.3-15.3,3.7c-2.3,2.5-3.5,8-3.5,16.4L1332.3,1341.3L1332.3,1341.3z"/>
		</g>
		<g>
			<path class="st0" d="M544.2,1482.3c-10.7-14.5-28.1-22.2-46.1-22.2c-32.1,0-53.8,24.6-53.8,56c0,31.9,22,54.9,54.6,54.9
				c17.1,0,34.3-8.3,45.3-21.4v62.9c-17.4,5.3-30,9.4-46.3,9.4c-28.1,0-54.9-10.7-75.8-29.7c-22.2-20.1-32.4-46.3-32.4-76.3
				c0-27.6,10.5-54.1,29.7-73.9c19.8-20.4,48.5-32.7,76.9-32.7c16.9,0,32.4,3.8,47.9,10.2L544.2,1482.3L544.2,1482.3z"/>
			<path class="st0" d="M629.1,1459v33.7h59.2v44.5h-59.2v34.8h62.4v44.4H576.6v-201.9h114.9v44.5L629.1,1459L629.1,1459z"/>
			<path class="st0" d="M723.9,1414.5h52.5l96.2,123.5h0.5v-123.5h52.5v201.9h-52.5l-96.2-123.7h-0.5v123.7h-52.5L723.9,1414.5
				L723.9,1414.5z"/>
			<path class="st0" d="M1040.2,1616.4h-52.5V1459h-43.4v-44.5h139.3v44.5h-43.4L1040.2,1616.4L1040.2,1616.4z"/>
			<path class="st0" d="M1270.6,1616.4h-65.3l-49.6-77.6h-0.5v77.6h-52.5v-201.9h78.5c39.9,0,70.2,19,70.2,62.1
				c0,27.8-15.5,52-44.2,57L1270.6,1616.4z M1155.1,1505h5.1c17.1,0,36.4-3.2,36.4-25.2c0-22-19.3-25.2-36.4-25.2h-5.1V1505z"/>
			<path class="st0" d="M1336.2,1581.4l-13.9,35.1h-55.7l77.7-201.9h57.3l76.1,201.9h-56l-13.1-35.1H1336.2z M1372.9,1476.9h-0.5
				l-21.7,64.3h43.6L1372.9,1476.9z"/>
			<path class="st0" d="M1546.4,1572h62.9v44.4h-115.4v-201.9h52.5V1572z"/>
		</g>
		
			<linearGradient id="SVGID_1_" gradientUnits="userSpaceOnUse" x1="-257.498" y1="458.1841" x2="491.8654" y2="458.1841" gradientTransform="matrix(1 0 0 -1 916.912 1113.6516)">
			<stop  offset="0" style="stop-color:#FFA400"/>
			<stop  offset="1" style="stop-color:#FF7F40"/>
		</linearGradient>
		<path class="st1" d="M1408.8,327.5L1268.9,539c0,0-303.6-133.7-417,141.5c0,0-113.2,310.6,273.9,310.6c0,0-385.5,85.3-462-228.8
			c-2.5-10.4-4-21.1-4.3-31.9C656.9,637.6,684.2,217.4,1408.8,327.5z"/>
		
			<linearGradient id="SVGID_2_" gradientUnits="userSpaceOnUse" x1="-387.9702" y1="200.3365" x2="537.8719" y2="200.3365" gradientTransform="matrix(1 0 0 -1 916.912 1113.6516)">
			<stop  offset="0" style="stop-color:#54565A"/>
			<stop  offset="1" style="stop-color:#8C9091"/>
		</linearGradient>
		<path class="st2" d="M1196.3,958.6l258.4,152c0,0-404.4,219-760.1,39.6c0,0-351.2-170.3-31.2-544.3c0,0-218.2,401.3,186.2,465.2
			C849.7,1071.1,1029.1,1092.4,1196.3,958.6z"/>
	</g>
</g>
</svg>
