<?xml version="1.0" encoding="utf-8"?>
<!-- Generator: Adobe Illustrator 24.1.0, SVG Export Plug-In . SVG Version: 6.00 Build 0)  -->
<svg version="1.1" id="Capa_1" xmlns="http://www.w3.org/2000/svg" xmlns:xlink="http://www.w3.org/1999/xlink" x="0px" y="0px"
	 viewBox="0 0 2000 2000" style="enable-background:new 0 0 2000 2000;" xml:space="preserve">
<style type="text/css">
	.st0{fill:#3D746A;}
	.st1{fill:#285549;}
	.st2{fill:#4E867F;}
	.st3{fill:#EEB700;}
</style>
<g>
	<g>
		<path class="st0" d="M581.26,1065.1l150.68-242.22L557.86,543.05c-50.54-81.25-158.16-105.66-240.38-54.53
			c-82.2,51.14-107.88,158.46-57.33,239.72l310.84,499.7C547.84,1176.86,549.67,1115.88,581.26,1065.1z"/>
		<path class="st1" d="M1146.4,488.52c-82.22-51.14-189.84-26.73-240.38,54.53L731.94,822.87l150.68,242.22
			c31.59,50.78,33.41,111.76,10.26,162.84l310.84-499.7C1254.28,646.98,1228.6,539.66,1146.4,488.52z"/>
		<path class="st2" d="M882.62,1065.1L731.94,822.87L581.26,1065.1c-31.59,50.78-33.42,111.76-10.26,162.84l13.91,22.36
			c28.39,45.62,74.76,73.32,124.51,79.79c0.14,0.02,0.28,0.05,0.41,0.05c2.35,0.3,4.69,0.53,7.06,0.75c0.58,0.05,1.15,0.1,1.74,0.15
			c1.92,0.15,3.85,0.23,5.77,0.32c1.04,0.04,2.06,0.1,3.08,0.11c1.49,0.05,2.97,0.04,4.45,0.04c1.48,0,2.97,0.01,4.44-0.04
			c1.03-0.01,2.06-0.07,3.09-0.11c1.93-0.09,3.86-0.18,5.77-0.32c0.59-0.05,1.16-0.1,1.75-0.15c2.36-0.22,4.7-0.45,7.04-0.75
			c0.14-0.01,0.27-0.03,0.42-0.05c49.76-6.47,96.13-34.17,124.51-79.79l13.92-22.36C916.04,1176.86,914.21,1115.88,882.62,1065.1z"
			/>
		<g>
			<path class="st3" d="M1830.88,634.65c0,96.82-77.57,175.3-173.26,175.3h-614.83c-95.7,0-173.27-78.48-173.27-175.3l0,0
				c0-96.83,77.57-175.32,173.27-175.32h614.83C1753.31,459.33,1830.88,537.82,1830.88,634.65L1830.88,634.65z"/>
			<path class="st3" d="M1174.9,602.6v552.47c0,95.69,78.49,173.26,175.31,173.26c96.82,0,175.31-77.57,175.31-173.26V602.6H1174.9z
				"/>
		</g>
	</g>
	<g>
		<g>
			<path class="st2" d="M289.64,1395.28h22.49l-35.32,102.67h-20.46l-35.03-102.67h23.13l22.49,77.95L289.64,1395.28z"/>
			<path class="st2" d="M335.42,1497.95h-21.5v-102.67h21.5V1497.95z"/>
			<path class="st2" d="M346.31,1395.28h21.65v84.22h51.73v18.45h-73.39V1395.28z"/>
			<path class="st2" d="M424.88,1395.28h21.65v84.22h51.73v18.45h-73.39V1395.28z"/>
			<path class="st2" d="M533.09,1395.28h24.49l36.67,102.67h-23.48l-6.85-21.1h-38.16l-7.02,21.1h-22.64L533.09,1395.28z
				 M531.66,1459.16h26.53l-13.09-40.4L531.66,1459.16z"/>
			<path class="st1" d="M662.73,1395.28v18.18h-31v84.49h-21.79v-84.49h-31.13v-18.18H662.73z"/>
			<path class="st1" d="M685.04,1395.28h24.5l36.66,102.67h-23.48l-6.84-21.1h-38.16l-7.03,21.1h-22.64L685.04,1395.28z
				 M683.61,1459.16h26.53l-13.08-40.4L683.61,1459.16z"/>
			<path class="st1" d="M819.57,1453.51c-6.07,5.02-14.72,7.52-25.98,7.52h-21.57v36.91h-21.51v-102.67H795
				c10.25,0,18.43,2.66,24.52,7.95c6.1,5.3,9.15,13.49,9.15,24.59C828.67,1439.92,825.64,1448.49,819.57,1453.51z M803.05,1416.53
				c-2.75-2.28-6.59-3.42-11.53-3.42h-19.5v30.23h19.5c4.94,0,8.78-1.23,11.53-3.69c2.74-2.47,4.11-6.36,4.11-11.71
				C807.16,1422.61,805.79,1418.8,803.05,1416.53z"/>
			<path class="st1" d="M856.43,1497.95h-21.51v-102.67h21.51V1497.95z"/>
			<path class="st1" d="M896.94,1395.28h24.49l36.67,102.67h-23.48l-6.84-21.1h-38.16l-7.02,21.1h-22.64L896.94,1395.28z
				 M895.51,1459.16h26.54l-13.09-40.4L895.51,1459.16z"/>
		</g>
		<g>
			<g>
				<path class="st1" d="M1046.63,1432.26l-4.55,3.49c-2.51-3.27-5.53-5.74-9.05-7.43c-3.51-1.69-7.38-2.53-11.59-2.53
					c-4.6,0-8.87,1.11-12.78,3.31c-3.92,2.22-6.97,5.18-9.13,8.91c-2.15,3.73-3.24,7.91-3.24,12.57c0,7.04,2.41,12.91,7.24,17.61
					c4.82,4.71,10.91,7.06,18.26,7.06c8.08,0,14.84-3.16,20.28-9.49l4.55,3.45c-2.88,3.66-6.46,6.5-10.77,8.5c-4.3,2-9.11,3-14.42,3
					c-10.09,0-18.06-3.37-23.89-10.08c-4.89-5.66-7.34-12.52-7.34-20.55c0-8.46,2.96-15.55,8.88-21.33
					c5.93-5.76,13.35-8.64,22.27-8.64c5.38,0,10.24,1.06,14.58,3.19C1040.29,1425.43,1043.85,1428.41,1046.63,1432.26z"/>
				<path class="st1" d="M1113.42,1421.56l26.92,57.71h-6.22l-9.08-19h-24.86l-9,19h-6.42l27.26-57.71H1113.42z M1112.69,1433.81
					l-9.88,20.88h19.73L1112.69,1433.81z"/>
				<path class="st1" d="M1181.08,1421.56h11.39c4.56,0,8.08,0.54,10.55,1.62c2.45,1.09,4.39,2.76,5.82,5
					c1.42,2.26,2.14,4.75,2.14,7.5c0,2.56-0.64,4.9-1.88,7c-1.25,2.11-3.08,3.81-5.49,5.11c3,1.02,5.3,2.22,6.92,3.59
					c1.62,1.38,2.88,3.03,3.77,4.99c0.91,1.95,1.34,4.06,1.34,6.33c0,4.63-1.69,8.55-5.07,11.76c-3.39,3.2-7.94,4.8-13.64,4.8
					h-15.85V1421.56z M1186.74,1427.2v18.48h3.29c4.02,0,6.96-0.37,8.84-1.12c1.9-0.75,3.39-1.92,4.48-3.53
					c1.1-1.61,1.66-3.4,1.66-5.36c0-2.64-0.93-4.71-2.78-6.22c-1.86-1.5-4.8-2.26-8.83-2.26H1186.74z M1186.74,1451.48v22.13h7.14
					c4.22,0,7.31-0.42,9.28-1.23c1.96-0.82,3.55-2.11,4.74-3.87c1.18-1.75,1.79-3.64,1.79-5.7c0-2.56-0.85-4.79-2.52-6.7
					c-1.67-1.91-3.98-3.22-6.91-3.93c-1.96-0.47-5.39-0.7-10.26-0.7H1186.74z"/>
				<path class="st1" d="M1258.71,1421.56h5.77v52.14h22.21v5.57h-27.98V1421.56z"/>
				<path class="st1" d="M1327.52,1421.56h33.07v5.64h-27.3v18.09h27.07v5.64h-27.07v22.67h27.07v5.66h-32.84V1421.56z"/>
				<path class="st1" d="M1397.81,1421.56h6.27l19.13,44.58l19.44-44.58h6.27l-25.09,57.71h-1.26L1397.81,1421.56z"/>
				<path class="st1" d="M1489.43,1421.56h5.77v57.71h-5.77V1421.56z"/>
				<path class="st1" d="M1534.11,1468.51l4.9-2.93c3.45,6.35,7.44,9.52,11.97,9.52c1.94,0,3.75-0.45,5.45-1.34
					c1.71-0.91,3-2.12,3.88-3.64c0.89-1.51,1.34-3.13,1.34-4.82c0-1.94-0.66-3.83-1.96-5.69c-1.8-2.56-5.1-5.66-9.88-9.26
					c-4.82-3.64-7.82-6.26-8.99-7.89c-2.04-2.72-3.05-5.66-3.05-8.82c0-2.51,0.6-4.8,1.8-6.87c1.19-2.06,2.89-3.69,5.07-4.88
					c2.18-1.18,4.55-1.78,7.12-1.78c2.72,0,5.27,0.67,7.63,2.02c2.38,1.34,4.87,3.83,7.51,7.43l-4.71,3.57
					c-2.16-2.88-4.01-4.77-5.54-5.69c-1.54-0.91-3.2-1.37-5-1.37c-2.33,0-4.23,0.7-5.71,2.11c-1.48,1.42-2.22,3.16-2.22,5.23
					c0,1.25,0.26,2.45,0.78,3.64c0.53,1.17,1.48,2.46,2.87,3.85c0.75,0.72,3.24,2.65,7.45,5.76c4.99,3.69,8.42,6.97,10.27,9.84
					c1.86,2.88,2.8,5.78,2.8,8.67c0,4.19-1.59,7.82-4.77,10.9c-3.17,3.08-7.04,4.63-11.59,4.63c-3.5,0-6.69-0.93-9.54-2.8
					C1539.14,1476.04,1536.52,1472.9,1534.11,1468.51z"/>
				<path class="st1" d="M1610.92,1421.56h5.76v57.71h-5.76V1421.56z"/>
				<path class="st1" d="M1689.04,1420.11c8.73,0,16.06,2.91,21.94,8.75c5.89,5.83,8.83,13,8.83,21.53c0,8.45-2.94,15.62-8.82,21.5
					c-5.87,5.87-13.03,8.82-21.48,8.82c-8.56,0-15.78-2.93-21.67-8.79c-5.89-5.87-8.83-12.94-8.83-21.26
					c0-5.54,1.35-10.68,4.02-15.41c2.69-4.74,6.35-8.45,10.97-11.12C1678.62,1421.44,1683.63,1420.11,1689.04,1420.11z
					 M1689.28,1425.71c-4.27,0-8.31,1.11-12.14,3.33c-3.83,2.23-6.81,5.23-8.96,9c-2.14,3.77-3.21,7.97-3.21,12.61
					c0,6.85,2.38,12.65,7.12,17.36c4.76,4.73,10.49,7.09,17.19,7.09c4.48,0,8.62-1.09,12.44-3.25c3.81-2.17,6.78-5.15,8.92-8.91
					c2.13-3.77,3.2-7.95,3.2-12.57c0-4.58-1.07-8.71-3.2-12.42c-2.15-3.71-5.15-6.67-9.02-8.9
					C1697.75,1426.82,1693.63,1425.71,1689.28,1425.71z"/>
				<path class="st1" d="M1763.08,1479.26v-57.71h1.25l38.41,44.22v-44.22h5.68v57.71h-1.28l-38.1-43.71v43.71H1763.08z"/>
			</g>
		</g>
		<g>
			<g>
				<path class="st1" d="M988.82,1503.03h14.48v2.47h-11.95v7.91h11.84v2.47h-11.84v9.92h11.84v2.47h-14.38V1503.03z"/>
				<path class="st1" d="M1007.66,1503.03h2.51v22.82h9.73v2.44h-12.24V1503.03z"/>
				<path class="st1" d="M1032.48,1528.29l3.62-25.26h0.41l10.26,20.72l10.17-20.72h0.4l3.64,25.26h-2.47l-2.5-18.06l-8.93,18.06
					h-0.64l-9.03-18.2l-2.49,18.2H1032.48z"/>
				<path class="st1" d="M1066.03,1503.03h2.52v15.25c0,1.81,0.03,2.93,0.11,3.38c0.12,1,0.41,1.83,0.87,2.5
					c0.45,0.67,1.15,1.23,2.11,1.67c0.95,0.46,1.91,0.69,2.87,0.69c0.84,0,1.64-0.18,2.4-0.54c0.76-0.35,1.4-0.85,1.93-1.47
					c0.51-0.64,0.89-1.4,1.12-2.28c0.18-0.64,0.26-1.96,0.26-3.95v-15.25h2.53v15.25c0,2.26-0.22,4.08-0.66,5.46
					c-0.44,1.4-1.32,2.6-2.64,3.64c-1.33,1.02-2.93,1.54-4.8,1.54c-2.04,0-3.79-0.49-5.23-1.46c-1.46-0.98-2.43-2.26-2.93-3.87
					c-0.31-0.98-0.46-2.76-0.46-5.32V1503.03z"/>
				<path class="st1" d="M1088.98,1528.29v-25.26h0.55l16.81,19.36v-19.36h2.49v25.26h-0.57l-16.67-19.12v19.12H1088.98z"/>
				<path class="st1" d="M1114.98,1528.29v-25.26h5.23c3.77,0,6.51,0.3,8.22,0.91c2.44,0.85,4.36,2.34,5.75,4.47
					c1.37,2.11,2.06,4.64,2.06,7.56c0,2.53-0.55,4.76-1.64,6.69c-1.09,1.92-2.51,3.33-4.26,4.26c-1.74,0.91-4.19,1.37-7.34,1.37
					H1114.98z M1117.39,1525.9h2.91c3.5,0,5.92-0.21,7.26-0.65c1.9-0.62,3.39-1.73,4.5-3.33c1.08-1.61,1.63-3.58,1.63-5.9
					c0-2.43-0.6-4.51-1.78-6.25c-1.17-1.72-2.82-2.91-4.92-3.54c-1.58-0.49-4.19-0.73-7.81-0.73h-1.79V1525.9z"/>
				<path class="st1" d="M1153.16,1502.39c3.83,0,7.03,1.28,9.61,3.84c2.57,2.55,3.86,5.68,3.86,9.42c0,3.69-1.29,6.82-3.86,9.41
					c-2.57,2.57-5.71,3.86-9.4,3.86c-3.75,0-6.91-1.28-9.48-3.84c-2.58-2.57-3.86-5.67-3.86-9.31c0-2.43,0.58-4.67,1.76-6.74
					c1.17-2.08,2.78-3.7,4.81-4.88C1148.62,1502.98,1150.81,1502.39,1153.16,1502.39z M1153.28,1504.86c-1.88,0-3.64,0.49-5.31,1.45
					c-1.68,0.98-2.99,2.29-3.93,3.94c-0.93,1.65-1.41,3.49-1.41,5.51c0,3.01,1.04,5.54,3.12,7.61c2.09,2.07,4.59,3.1,7.53,3.1
					c1.96,0,3.78-0.48,5.43-1.42c1.68-0.95,2.97-2.26,3.91-3.9c0.93-1.65,1.4-3.48,1.4-5.5c0-2-0.47-3.81-1.4-5.44
					c-0.94-1.62-2.25-2.92-3.94-3.89C1156.98,1505.34,1155.18,1504.86,1153.28,1504.86z"/>
				<path class="st1" d="M1181.44,1528.29v-25.26h5.24c3.78,0,6.52,0.3,8.22,0.91c2.45,0.85,4.37,2.34,5.75,4.47
					c1.38,2.11,2.07,4.64,2.07,7.56c0,2.53-0.55,4.76-1.64,6.69c-1.1,1.92-2.51,3.33-4.27,4.26c-1.74,0.91-4.19,1.37-7.34,1.37
					H1181.44z M1183.86,1525.9h2.91c3.5,0,5.92-0.21,7.26-0.65c1.9-0.62,3.39-1.73,4.48-3.33c1.08-1.61,1.64-3.58,1.64-5.9
					c0-2.43-0.6-4.51-1.78-6.25c-1.18-1.72-2.82-2.91-4.93-3.54c-1.58-0.49-4.18-0.73-7.82-0.73h-1.78V1525.9z"/>
				<path class="st1" d="M1207.62,1503.03h14.48v2.47h-11.96v7.91h11.84v2.47h-11.84v9.92h11.84v2.47h-14.36V1503.03z"/>
				<path class="st1" d="M1226.45,1503.03h2.53v22.82h9.73v2.44h-12.25V1503.03z"/>
				<path class="st1" d="M1252.44,1503.03h14.48v2.47h-11.95v7.91h11.86v2.47h-11.86v9.92h11.86v2.47h-14.38V1503.03z"/>
				<path class="st1" d="M1271.29,1528.29v-25.26h0.56l16.8,19.36v-19.36h2.5v25.26h-0.58l-16.66-19.12v19.12H1271.29z"/>
				<path class="st1" d="M1294.78,1505.5v-2.47h13.84v2.47h-5.64v22.78h-2.57v-22.78H1294.78z"/>
				<path class="st1" d="M1312.4,1503.03h5.03c2.8,0,4.7,0.12,5.7,0.34c1.49,0.35,2.72,1.08,3.66,2.22c0.93,1.13,1.4,2.51,1.4,4.16
					c0,1.38-0.33,2.59-0.96,3.64c-0.66,1.04-1.58,1.82-2.78,2.36c-1.2,0.53-2.87,0.8-4.99,0.81l9.08,11.73h-3.12l-9.08-11.73h-1.42
					v11.73h-2.53V1503.03z M1314.92,1505.5v8.58l4.35,0.04c1.68,0,2.93-0.16,3.74-0.47c0.8-0.33,1.44-0.84,1.88-1.54
					c0.45-0.7,0.68-1.5,0.68-2.36c0-0.85-0.22-1.62-0.68-2.32c-0.47-0.69-1.06-1.18-1.81-1.48c-0.74-0.29-1.99-0.45-3.71-0.45
					H1314.92z"/>
				<path class="st1" d="M1333.61,1503.03h14.48v2.47h-11.95v7.91h11.85v2.47h-11.85v9.92h11.85v2.47h-14.37V1503.03z"/>
				<path class="st1" d="M1349.94,1505.5v-2.47h13.83v2.47h-5.63v22.78h-2.57v-22.78H1349.94z"/>
				<path class="st1" d="M1367.44,1503.03h14.47v2.47h-11.96v7.91h11.86v2.47h-11.86v9.92h11.86v2.47h-14.37V1503.03z"/>
				<path class="st1" d="M1386.28,1528.29v-25.26h0.56l16.81,19.36v-19.36h2.49v25.26h-0.57l-16.67-19.12v19.12H1386.28z"/>
				<path class="st1" d="M1411.92,1503.03h2.52v25.26h-2.52V1503.03z"/>
				<path class="st1" d="M1419.08,1528.29l3.62-25.26h0.41l10.26,20.72l10.17-20.72h0.41l3.63,25.26h-2.47l-2.5-18.06l-8.93,18.06
					h-0.64l-9.04-18.2l-2.47,18.2H1419.08z"/>
				<path class="st1" d="M1452.18,1503.03h2.53v25.26h-2.53V1503.03z"/>
				<path class="st1" d="M1460.5,1503.03h14.47v2.47h-11.94v7.91h11.84v2.47h-11.84v9.92h11.84v2.47h-14.37V1503.03z"/>
				<path class="st1" d="M1479.35,1528.29v-25.26h0.55l16.81,19.36v-19.36h2.49v25.26h-0.57l-16.67-19.12v19.12H1479.35z"/>
				<path class="st1" d="M1502.84,1505.5v-2.47h13.83v2.47h-5.62v22.78h-2.57v-22.78H1502.84z"/>
				<path class="st1" d="M1532.35,1502.39c3.83,0,7.03,1.28,9.6,3.84c2.58,2.55,3.87,5.68,3.87,9.42c0,3.69-1.29,6.82-3.86,9.41
					c-2.57,2.57-5.71,3.86-9.4,3.86c-3.75,0-6.91-1.28-9.48-3.84c-2.58-2.57-3.87-5.67-3.87-9.31c0-2.43,0.58-4.67,1.76-6.74
					c1.17-2.08,2.78-3.7,4.8-4.88C1527.79,1502.98,1529.98,1502.39,1532.35,1502.39z M1532.46,1504.86c-1.88,0-3.64,0.49-5.32,1.45
					c-1.67,0.98-2.98,2.29-3.92,3.94c-0.94,1.65-1.41,3.49-1.41,5.51c0,3.01,1.04,5.54,3.12,7.61c2.07,2.07,4.58,3.1,7.53,3.1
					c1.96,0,3.77-0.48,5.45-1.42c1.67-0.95,2.96-2.26,3.89-3.9c0.95-1.65,1.41-3.48,1.41-5.5c0-2-0.46-3.81-1.41-5.44
					c-0.93-1.62-2.24-2.92-3.94-3.89C1536.16,1505.34,1534.35,1504.86,1532.46,1504.86z"/>
				<path class="st1" d="M1560.63,1503.03h14.47v2.47h-11.95v7.91h11.86v2.47h-11.86v9.92h11.86v2.47h-14.38V1503.03z"/>
				<path class="st1" d="M1579.47,1528.29v-25.26h0.56l16.81,19.36v-19.36h2.49v25.26h-0.56l-16.67-19.12v19.12H1579.47z"/>
				<path class="st1" d="M1612.7,1505.5v-2.47h13.83v2.47h-5.63v22.78h-2.58v-22.78H1612.7z"/>
				<path class="st1" d="M1630.27,1503.03h2.51v15.25c0,1.81,0.04,2.93,0.11,3.38c0.12,1,0.41,1.83,0.87,2.5
					c0.46,0.67,1.16,1.23,2.11,1.67c0.95,0.46,1.91,0.69,2.87,0.69c0.84,0,1.64-0.18,2.4-0.54c0.77-0.35,1.42-0.85,1.93-1.47
					c0.51-0.64,0.89-1.4,1.13-2.28c0.18-0.64,0.26-1.96,0.26-3.95v-15.25h2.52v15.25c0,2.26-0.22,4.08-0.66,5.46
					c-0.45,1.4-1.32,2.6-2.64,3.64c-1.32,1.02-2.92,1.54-4.8,1.54c-2.03,0-3.78-0.49-5.24-1.46c-1.45-0.98-2.42-2.26-2.91-3.87
					c-0.31-0.98-0.45-2.76-0.45-5.32V1503.03z"/>
				<path class="st1" d="M1650.59,1523.58l2.15-1.29c1.51,2.78,3.26,4.17,5.23,4.17c0.85,0,1.65-0.2,2.4-0.6
					c0.75-0.39,1.31-0.92,1.71-1.58c0.39-0.66,0.58-1.37,0.58-2.11c0-0.85-0.29-1.68-0.86-2.49c-0.79-1.13-2.23-2.48-4.33-4.05
					c-2.1-1.59-3.41-2.74-3.93-3.45c-0.88-1.19-1.34-2.48-1.34-3.87c0-1.1,0.27-2.1,0.79-3c0.53-0.91,1.27-1.62,2.22-2.15
					c0.96-0.52,2-0.78,3.11-0.78c1.19,0,2.31,0.3,3.34,0.89c1.04,0.58,2.13,1.67,3.29,3.26l-2.05,1.55
					c-0.95-1.26-1.76-2.09-2.44-2.49c-0.67-0.4-1.39-0.6-2.18-0.6c-1.02,0-1.86,0.32-2.49,0.92c-0.66,0.62-0.97,1.38-0.97,2.28
					c0,0.55,0.11,1.08,0.34,1.59c0.22,0.52,0.64,1.08,1.25,1.69c0.32,0.32,1.42,1.16,3.25,2.52c2.19,1.62,3.69,3.06,4.5,4.31
					c0.82,1.26,1.23,2.53,1.23,3.8c0,1.83-0.7,3.42-2.09,4.77c-1.39,1.35-3.08,2.03-5.08,2.03c-1.52,0-2.91-0.41-4.17-1.23
					C1652.79,1526.88,1651.64,1525.51,1650.59,1523.58z"/>
				<path class="st1" d="M1679.29,1528.29l3.63-25.26h0.41l10.26,20.72l10.17-20.72h0.4l3.64,25.26h-2.48l-2.49-18.06l-8.93,18.06
					h-0.64l-9.04-18.2l-2.48,18.2H1679.29z"/>
				<path class="st1" d="M1723.07,1503.03l11.78,25.26h-2.72l-3.98-8.31h-10.88l-3.94,8.31h-2.82l11.92-25.26H1723.07z
					 M1722.76,1508.4l-4.33,9.13h8.64L1722.76,1508.4z"/>
				<path class="st1" d="M1738.78,1528.29v-25.26h0.56l16.8,19.36v-19.36h2.49v25.26h-0.57l-16.67-19.12v19.12H1738.78z"/>
				<path class="st1" d="M1776.81,1502.39c3.83,0,7.02,1.28,9.6,3.84c2.58,2.55,3.86,5.68,3.86,9.42c0,3.69-1.29,6.82-3.85,9.41
					c-2.57,2.57-5.71,3.86-9.41,3.86c-3.74,0-6.91-1.28-9.48-3.84c-2.58-2.57-3.86-5.67-3.86-9.31c0-2.43,0.58-4.67,1.75-6.74
					c1.19-2.08,2.79-3.7,4.81-4.88C1772.25,1502.98,1774.45,1502.39,1776.81,1502.39z M1776.92,1504.86c-1.87,0-3.64,0.49-5.32,1.45
					c-1.67,0.98-2.98,2.29-3.92,3.94c-0.94,1.65-1.4,3.49-1.4,5.51c0,3.01,1.04,5.54,3.12,7.61c2.08,2.07,4.59,3.1,7.53,3.1
					c1.95,0,3.77-0.48,5.44-1.42c1.67-0.95,2.97-2.26,3.9-3.9c0.92-1.65,1.4-3.48,1.4-5.5c0-2-0.48-3.81-1.4-5.44
					c-0.93-1.62-2.25-2.92-3.95-3.89C1780.62,1505.34,1778.82,1504.86,1776.92,1504.86z"/>
				<path class="st1" d="M1792.74,1523.58l2.14-1.29c1.51,2.78,3.25,4.17,5.24,4.17c0.84,0,1.64-0.2,2.39-0.6
					c0.74-0.39,1.3-0.92,1.69-1.58c0.39-0.66,0.58-1.37,0.58-2.11c0-0.85-0.29-1.68-0.87-2.49c-0.78-1.13-2.22-2.48-4.32-4.05
					c-2.11-1.59-3.41-2.74-3.93-3.45c-0.89-1.19-1.34-2.48-1.34-3.87c0-1.1,0.27-2.1,0.79-3c0.53-0.91,1.27-1.62,2.22-2.15
					c0.96-0.52,2-0.78,3.11-0.78c1.19,0,2.31,0.3,3.35,0.89c1.03,0.58,2.13,1.67,3.29,3.26l-2.06,1.55
					c-0.95-1.26-1.76-2.09-2.43-2.49c-0.67-0.4-1.4-0.6-2.19-0.6c-1.02,0-1.85,0.32-2.49,0.92c-0.65,0.62-0.98,1.38-0.98,2.28
					c0,0.55,0.11,1.08,0.34,1.59c0.24,0.52,0.66,1.08,1.26,1.69c0.33,0.32,1.42,1.16,3.26,2.52c2.19,1.62,3.69,3.06,4.5,4.31
					c0.82,1.26,1.22,2.53,1.22,3.8c0,1.83-0.7,3.42-2.09,4.77c-1.38,1.35-3.08,2.03-5.07,2.03c-1.53,0-2.93-0.41-4.17-1.23
					C1794.93,1526.88,1793.79,1525.51,1792.74,1523.58z"/>
			</g>
		</g>
	</g>
</g>
</svg>
