<?xml version="1.0" encoding="utf-8"?>
<!-- Generator: Adobe Illustrator 24.1.0, SVG Export Plug-In . SVG Version: 6.00 Build 0)  -->
<svg version="1.1" id="Capa_1" xmlns="http://www.w3.org/2000/svg" xmlns:xlink="http://www.w3.org/1999/xlink" x="0px" y="0px"
	 viewBox="0 0 2973.09 1243.26" style="enable-background:new 0 0 2973.09 1243.26;" xml:space="preserve">
<style type="text/css">
	.st0{fill-rule:evenodd;clip-rule:evenodd;fill:#C11411;}
	.st1{fill-rule:evenodd;clip-rule:evenodd;fill:#484546;}
	.st2{fill-rule:evenodd;clip-rule:evenodd;fill:#494647;}
	.st3{fill-rule:evenodd;clip-rule:evenodd;fill:#C21A17;}
</style>
<g>
	<path class="st0" d="M588.69,697.44c-8.04,0.06-15.24-2.58-20.78-8.19c-12.87-13.04-25.65-26.18-37.88-39.82
		c-10.26-11.43-9.75-28.7,1.13-39.39c26.26-25.8,52.88-51.24,79.37-76.81c16.66-16.08,33.36-32.13,50.04-48.18
		c25.81-24.83,51.63-49.65,77.43-74.49c24-23.1,47.98-46.23,72-69.32c9.4-9.04,20.21-15.15,33.66-14.83
		c10.83,0.26,20.66,3.69,28.33,11.57c25.32,26.03,50.5,52.21,75.69,78.36c19.42,20.16,38.79,40.36,58.17,60.54
		c31.73,33.04,63.43,66.11,95.18,99.14c34.75,36.15,69.7,72.1,104.25,108.44c17.83,18.75,15.66,44.8-2.18,61.84
		c-25.54,24.4-50.94,48.93-76.4,73.4c-26.3,25.28-52.61,50.56-78.91,75.84c-34.71,33.36-69.42,66.72-104.12,100.09
		c-6.48,6.23-12.99,12.45-19.41,18.74c-12.75,12.5-32.15,11.88-44.38-1.25c-10.9-11.7-21.67-23.56-33.18-34.63
		c-12.11-11.65-13.56-31.41-0.02-44.45c43.32-41.71,86.66-83.39,130.01-125.08c22.09-21.25,44.35-42.32,66.24-63.77
		c15.96-15.63,16.95-42.27,1.88-58.82c-16.03-17.61-32.74-34.59-49.24-51.77c-29.77-31-59.61-61.93-89.39-92.92
		c-12-12.49-24.07-24.93-35.81-37.66c-17.6-19.1-44.55-21.31-63.66-4.05c-17.17,15.51-33.57,31.88-50.27,47.91
		c-25.48,24.45-50.92,48.94-76.38,73.41c-23.3,22.39-46.6,44.78-69.9,67.18C604.18,694.26,597.09,697.4,588.69,697.44z"/>
	<path class="st1" d="M202.08,633.78c0.02-18.92,8.67-29.99,19.3-40.09c14.72-13.98,29.36-28.04,43.99-42.11
		c27.95-26.88,55.87-53.79,83.82-80.67c15.11-14.53,30.27-29.01,45.39-43.54c27.48-26.41,54.93-52.85,82.4-79.26
		c6.24-6,12.4-12.07,18.8-17.89c13.91-12.67,29.17-12.91,42.59,0.13c12.76,12.4,24.84,25.5,36.96,38.55
		c10.49,11.29,9.43,29.69-1.81,40.43c-16.97,16.21-33.87,32.49-50.78,48.75c-26.51,25.49-53,51-79.51,76.5
		c-22.19,21.34-44.52,42.53-66.54,64.04c-17.19,16.79-17.08,45.28-0.41,62.52c24.99,25.84,49.83,51.82,74.72,77.75
		c23.86,24.84,47.7,49.71,71.56,74.54c9.67,10.06,19.45,20.03,29.08,30.13c15.21,15.97,44.67,18.55,64.57-1.03
		c23.96-23.59,48.26-46.83,72.47-70.16c26.6-25.64,53.25-51.23,79.88-76.83c12.72-12.22,25.52-24.35,38.17-36.64
		c15.79-15.33,33.09-14.7,48.04,1.55c10.93,11.87,22.31,23.32,33.29,35.14c11.2,12.05,9.67,30.16-2.51,41.29
		c-13.02,11.89-25.47,24.42-38.17,36.66c-28.41,27.37-56.82,54.73-85.24,82.08c-16.19,15.58-32.4,31.12-48.59,46.69
		c-26.99,25.96-53.95,51.94-80.96,77.87c-9.96,9.56-19.72,19.35-30.12,28.41c-15.64,13.63-40.39,12.75-54.86-2.07
		c-31.27-32.04-62.23-64.38-93.29-96.63c-15.59-16.18-31.11-32.41-46.68-48.61c-25.14-26.16-50.29-52.3-75.43-78.45
		c-16.26-16.91-32.52-33.82-48.77-50.75c-23.04-24.01-46.1-48-69.1-72.05C206.45,651.81,202.34,641.93,202.08,633.78z"/>
	<path class="st2" d="M1286.86,593.01c-0.18-27.39,2.32-52.61,10.38-77.03c8.63-26.15,21.85-49.13,45.83-64.34
		c18.74-11.89,39.56-15.74,61.41-15.51c20.55,0.21,39.89,4.55,57.07,16.42c14.07,9.73,23.78,22.97,30.69,38.41
		c7.89,17.63,11.19,36.4,13.6,55.39c0.46,3.66-0.46,5.1-4.61,5.34c-16.74,0.96-33.46,2.36-50.17,3.71
		c-3.46,0.28-5.07-0.18-5.36-4.47c-0.9-12.91-2.38-25.76-7.66-37.87c-6.57-15.07-17.35-24.12-34.23-24.42
		c-16.8-0.29-28.15,8.51-35.66,22.78c-6.95,13.21-8.72,27.81-10.18,42.36c-1.71,17.06-2.33,34.2-1.74,51.33
		c0.7,20.25,1.17,40.59,8.02,60c5.18,14.68,14.22,25.7,30.51,28.2c22.16,3.4,37.3-6.55,45.19-28.99c2.99-8.49,4.94-17.24,5.95-26.16
		c0.37-3.25,1.51-4.09,4.65-3.88c17.74,1.15,35.49,2.14,53.24,3.14c2.36,0.13,3.49,0.63,3.17,3.53
		c-4.06,36.92-17.5,68.73-49.41,90.29c-16.33,11.03-34.8,15.16-54.31,15.36c-30.04,0.31-56.78-7.94-77.89-30.31
		c-16.88-17.88-26.19-39.75-32.01-63.27C1288.3,632.72,1286.57,612.05,1286.86,593.01z"/>
	<path class="st2" d="M1817.93,548.23c2.85-4.21,5.45-8.63,8.6-12.6c9.01-11.36,21-17.79,35.26-19.61
		c19.77-2.52,38.43-0.36,54.21,13.65c10.83,9.61,13.63,22.35,15.1,35.78c1.44,13.11,1.2,26.26,1.2,39.41
		c0.01,43.66-0.09,87.32,0.14,130.97c0.03,5-1.42,5.94-6.07,5.86c-17.16-0.29-34.33-0.25-51.49-0.02c-3.88,0.05-4.64-1.16-4.63-4.79
		c0.12-48.82,0.08-97.65,0.07-146.47c0-4.16-0.39-8.28-0.95-12.41c-1.85-13.69-11.52-16.39-22.68-16.31
		c-1.48,0.01-2.96,0.31-4.45,0.43c-10.32,0.79-16.46,5.86-19.11,15.89c-2.27,8.57-3.02,17.33-3.03,26.16
		c-0.02,43.99-0.07,87.98,0.08,131.97c0.01,4.15-0.64,5.65-5.3,5.57c-17.49-0.33-34.99-0.23-52.49-0.05c-3.5,0.04-4.41-0.89-4.4-4.4
		c0.11-70.99,0.11-141.97-0.01-212.96c-0.01-3.7,1.25-4.29,4.54-4.25c16.66,0.16,33.33,0.18,49.99-0.01
		c3.56-0.04,4.51,1.04,4.41,4.49c-0.24,7.78-0.08,15.58-0.08,23.37C1817.21,548.02,1817.57,548.12,1817.93,548.23z"/>
	<path class="st2" d="M2439.31,643.44c0,20.94-0.29,40.44,0.11,59.93c0.24,11.76,0.03,23.62,2.49,35.25c0.45,2.13,0.04,3-2.32,2.99
		c-17-0.07-33.99-0.08-50.99,0.01c-2.75,0.01-3.27-1.57-3.71-3.67c-1.72-8.19-1.88-16.5-1.98-24.82c-0.02-1.42,0.66-3.6-0.93-4.08
		c-1.98-0.61-2.43,1.77-3.2,3.07c-10.88,18.5-26.42,30.23-47.9,33.85c-24.54,4.13-49.08-5.38-61.1-24.69
		c-8.34-13.4-9.7-28.53-8.34-43.83c1.4-15.72,6.6-30.01,17.48-41.97c8.4-9.23,18.72-15.15,30.28-19.35
		c20.5-7.44,41.85-10.3,63.44-11.69c3.58-0.23,4.86-0.99,4.77-4.82c-0.27-10.8,0.34-21.63-2.77-32.19
		c-3.22-10.96-12-13.29-21.08-12.58c-15.91,1.24-23.89,10.19-25.53,28.23c-0.44,4.83-2.03,5.6-6.35,5.13
		c-16.34-1.78-32.7-3.39-49.09-4.71c-4.03-0.33-3.58-2.27-3.07-4.89c5.37-27.66,21.77-46.29,47.71-56.11
		c26.19-9.91,53.16-10.71,79.65-1.53c24.54,8.51,39.09,25.53,41.14,52.53C2439.83,597.31,2438.62,621.1,2439.31,643.44z
		 M2377.3,650.23c0-3.83-0.22-7.67,0.06-11.47c0.25-3.37-1.26-3.95-4.1-3.53c-9.88,1.44-19.62,3.31-28.81,7.44
		c-8.89,3.99-14.89,10.54-17.3,19.96c-2.25,8.77-2.62,17.73-0.76,26.66c3.61,17.25,20.19,23.33,34.31,12.56
		c6.26-4.77,10.33-11.11,12.57-18.65C2376.47,672.43,2377.33,661.38,2377.3,650.23z"/>
	<path class="st2" d="M1658.1,640.58c-18,0-36,0.16-53.99-0.11c-4.32-0.06-5.15,1.27-5.11,5.3c0.13,12.31,0,24.63,2.87,36.71
		c3.4,14.32,12.81,21.94,27.64,22.64c13.42,0.63,24.71-6.84,29.32-19.58c1.7-4.68,3.17-9.46,3.46-14.48
		c0.16-2.79,1.14-4.01,4.28-3.79c16.08,1.15,32.16,2.13,48.25,3.02c2.55,0.14,2.59,1.24,2.16,3.16
		c-5.94,26.39-17.37,49.18-42.09,62.88c-9.97,5.53-20.9,8.53-32.25,9.59c-19.3,1.8-38.29,0.69-56.11-7.87
		c-21.83-10.48-35.56-28.39-42.8-50.78c-13.41-41.48-13.12-83.24,5.24-123.05c27.27-59.15,101.51-61.21,137.92-27.05
		c14.58,13.68,21.7,30.68,25.9,49.41c3.61,16.11,4.66,32.53,5.13,49c0.12,4.34-1.37,5.13-5.35,5.08
		C1694.43,640.46,1676.26,640.58,1658.1,640.58z M1629.25,606.09c8.49,0,16.99-0.27,25.46,0.12c3.89,0.18,4.99-1.38,5.03-4.68
		c0.1-10.33-0.42-20.63-4.36-30.32c-4.68-11.49-13.8-16.61-25.89-16.53c-10.69,0.07-18.7,4.61-23.44,14.63
		c-5.12,10.82-6.19,22.26-6.21,33.97c0,2.71,1.41,2.85,3.46,2.84C1611.95,606.06,1620.6,606.09,1629.25,606.09z"/>
	<path class="st2" d="M1989.33,619.87c0-16.17-0.15-32.33,0.1-48.5c0.06-4.09-1.24-5.08-5.05-4.87c-5.48,0.3-11-0.01-16.49,0.11
		c-2.39,0.05-3.64-0.37-3.61-3.22c0.13-13.33,0.13-26.67,0-40c-0.03-2.76,1.07-3.36,3.54-3.3c5.5,0.13,11.02-0.26,16.49,0.13
		c4.33,0.31,5.16-1.31,5.12-5.32c-0.21-19.16,0.03-38.33-0.19-57.5c-0.05-4.38,0.83-5.94,5.67-5.96c16.8-0.06,33.61-0.59,50.4-1.27
		c3.93-0.16,4.66,1.03,4.63,4.67c-0.17,20.17,0.04,40.33-0.18,60.5c-0.05,4.09,1.25,4.96,5.05,4.88c10.83-0.24,21.67,0.02,32.5-0.16
		c3.05-0.05,3.96,0.75,3.92,3.87c-0.18,12.83-0.23,25.67,0.02,38.5c0.07,3.75-1.31,4.29-4.58,4.23c-10.83-0.19-21.67,0-32.5-0.13
		c-2.98-0.04-4.41,0.41-4.38,3.99c0.22,34.83,0.13,69.65,0.38,104.48c0.11,15.28,6.59,21.53,21.72,22.69
		c6.33,0.49,12.63,0.39,18.95,0.39c2.52,0,3.49,0.61,3.46,3.32c-0.13,12.66-0.05,25.33-0.06,38c0,1.48,0.23,2.8-2,3.24
		c-22.07,4.39-44.26,6.94-66.05-0.46c-19.85-6.73-31.18-21.13-34.18-42.05c-2.94-20.51-2.66-41.14-2.66-61.77
		C1989.33,632.2,1989.33,626.04,1989.33,619.87z"/>
	<path class="st2" d="M2488.95,591.86c0-48.16,0.07-96.32-0.12-144.48c-0.02-4.56,1.29-5.42,5.53-5.36
		c17.16,0.25,34.33,0.2,51.49,0.03c3.71-0.04,5.1,0.66,5.09,4.82c-0.13,96.65-0.12,193.3-0.03,289.95c0,3.52-0.57,4.91-4.55,4.85
		c-17.66-0.24-35.33-0.25-52.99,0.01c-4.04,0.06-4.5-1.4-4.49-4.85C2488.98,688.51,2488.95,640.19,2488.95,591.86z"/>
	<path class="st1" d="M2178.55,571.61c2.08-2.9,2.44-6.08,3.47-8.96c4.81-13.42,10.76-26.17,21.98-35.59
		c9.85-8.28,21.35-11.06,34.02-9.63c2.77,0.31,3.93,1.36,3.91,4.4c-0.15,17.65-0.12,35.31-0.03,52.97c0.01,2.77-0.56,3.91-3.63,3.4
		c-5.94-0.99-11.95-0.64-17.81,0.58c-17.79,3.69-26.56,16.25-31.35,32.5c-3.55,12.08-4.19,24.53-4.2,37.01
		c-0.03,29.31,0.06,58.62,0.24,87.93c0.02,3.84-0.7,5.54-5.14,5.48c-17.48-0.27-34.98-0.19-52.46-0.04
		c-3.28,0.03-4.56-0.53-4.55-4.24c0.12-71.12,0.1-142.24,0.03-213.37c0-2.94,0.55-4.02,3.79-3.99c15.49,0.18,30.98,0.2,46.47-0.01
		c3.51-0.05,4.04,1.25,4.01,4.29c-0.13,13.82-0.09,27.65-0.03,41.47C2177.25,567.56,2176.61,569.49,2178.55,571.61z"/>
	<path class="st3" d="M2440.38,877.1c-0.08-0.34-0.06-0.58-0.17-0.66c-6.74-5.22-10.8-11.52-8.7-20.55
		c2.57-11.04,9-18.59,19.65-22.63c5.07-1.92,10.37-2.39,15.64-2.62c7.15-0.32,14.33,0.04,21.49-0.15c3.55-0.09,4.17,0.81,3.12,4.32
		c-2.14,7.18-1.88,7.36-9.92,7.29c-3.55-0.03-5.4-0.01-2.98,4.39c3.72,6.77,1.33,13.21-2.63,19.14
		c-5.92,8.86-14.93,12.16-24.94,13.69c-2.42,0.37-4.87,1.01-7.12,1.98c-2.02,0.87-3.61,2.62-3.61,5c0,2.53,1.93,3.88,4.04,4.53
		c5.54,1.69,11.16,3.11,16.72,4.72c8.04,2.32,13.43,8.1,12.88,14.47c-0.55,6.45-2.86,12.5-8.09,16.6
		c-13.44,10.53-28.5,11.83-44.14,6.14c-5.3-1.93-9.15-6.09-9.59-12.33c-0.59-8.41,3.01-14.75,9.71-19.53
		c2.6-1.85,5.6-2.86,8.59-3.87c1.23-0.42,2.82-0.91,1.35-2.68c-1.92-2.3-4.11-4.39-2.85-7.87c1.49-4.1,4.8-6.21,8.43-7.99
		C2438.31,877.98,2439.37,877.55,2440.38,877.1z M2439.65,925.42c6.23,0.38,12.27-0.11,17.41-4.14c6.18-4.85,5.35-11.74-1.58-15.36
		c-2.74-1.43-5.69-1.97-8.54-2.29c-7.35-0.83-14.63-0.45-20.23,5.44c-5.61,5.9-3.6,13.19,4.09,15.7
		C2433.77,925.74,2436.72,925.17,2439.65,925.42z M2453.16,868.44c9.09-0.01,16.11-6.89,16.21-15.88
		c0.07-6.75-3.58-9.68-10.42-10.44c-7.72-0.86-17.12,7.81-16.88,16.64C2442.25,865.15,2445.91,868.45,2453.16,868.44z"/>
	<path class="st3" d="M1303.78,874.86c4.63,6.23,9.05,11.45,16.17,12.96c12.21,2.58,23.46-1.2,26.48-13.41
		c1.96-7.92-2.45-13.33-7.93-18.01c-4.29-3.66-9.05-6.79-13.29-10.5c-11.79-10.31-13.45-22.53-5.14-35.92
		c10.55-17,33.53-22.38,48.97-11.51c1.93,1.36,3.03,2.49,2.15,5.2c-1.21,3.72-1.74,7.65-2.69,12.12c-1.81-1.57-3.2-2.86-4.67-4.06
		c-8.66-7.03-21.07-7.74-29.62-1.7c-7.17,5.06-8.19,14.13-2.44,20.78c3.97,4.58,8.83,8.13,13.81,11.37
		c23.19,15.11,15.09,39.77,1.41,51.44c-12.74,10.87-32.7,10.97-44.43,0.63c-2.01-1.78-2.69-3.22-1.81-5.95
		C1302.06,884.25,1302.67,879.99,1303.78,874.86z"/>
	<path class="st3" d="M2115.59,794.57c-3.33,14.82-6.61,29.42-10.03,44.65c3.14-0.88,4.65-2.89,6.54-4.24
		c6.13-4.35,12.64-7.23,20.39-5.68c7.65,1.52,12.32,7.16,12.62,15.03c0.42,10.96-3.45,21.18-5.46,31.71
		c-1.27,6.65-3.3,13.16-4.5,19.83c-0.59,3.26-1.69,4.76-5.08,4.31c-1.47-0.2-3.01-0.16-4.49,0c-3.11,0.33-3.38-0.69-2.67-3.63
		c3.01-12.52,5.53-25.17,8.53-37.69c0.84-3.51,0.85-6.96,0.61-10.39c-0.48-6.88-7.34-10.38-15.19-7.52
		c-8.09,2.94-14.24,7.58-15.89,17.14c-2.16,12.52-5.36,24.85-8.07,37.28c-0.72,3.31-1.74,5.29-6.05,4.95
		c-7.14-0.56-7.26-0.16-5.7-7.12c7.09-31.43,14.32-62.82,21.24-94.29c0.84-3.8,2.4-4.76,5.86-4.38
		C2110.57,794.77,2112.91,794.57,2115.59,794.57z"/>
	<path class="st3" d="M1977.05,794.57c-1.68,4.85-0.71,10.82-3.99,13.03c-3.01,2.03-8.35,0.65-12.67,0.68
		c-6,0.04-12,0.11-17.99-0.08c-2.57-0.08-3.82,0.48-4.44,3.27c-6.2,27.76-12.7,55.45-18.74,83.25c-0.99,4.55-2.65,5.79-7.09,5.55
		c-7.45-0.4-7.56-0.13-5.95-7.3c6.04-26.95,12.01-53.92,18.35-80.79c0.96-4.08-0.46-4.09-3.42-4.05c-8.83,0.12-17.66,0.08-26.48,0.2
		c-2.73,0.04-3.73-0.22-2.84-3.61c2.62-10.08,2.38-10.14,12.83-10.14C1928.58,794.57,1952.57,794.57,1977.05,794.57z"/>
	<path class="st3" d="M2303.1,858.16c-0.23,21.8-17.95,40.92-39.72,43.33c-19.84,2.2-29.41-9.09-31.06-20.11
		c-2.39-16.03,3.59-29.43,15.74-39.87c9-7.73,19.42-11.24,31.61-10.45C2292.91,831.92,2303.98,844.04,2303.1,858.16z M2262.18,890.6
		c2.4-0.43,5.03-0.07,7.67-0.91c12.97-4.13,22.26-18.56,20.52-32.24c-0.98-7.71-5.85-13.98-12.46-14.97
		c-6.82-1.03-13.54-0.55-19.56,3.67c-9.26,6.49-13.76,15.58-14.18,26.58C2243.75,884.01,2250.74,890.73,2262.18,890.6z"/>
	<path class="st3" d="M1643.71,875.08c0.58-22.72,18.66-43.78,43.86-44.29c21.26-0.43,31.74,16.99,26.06,37.52
		c-5.38,19.42-21.96,33.18-42.08,33.64C1654.92,902.33,1643.72,892,1643.71,875.08z M1674.95,890.62c1.77-0.53,4.24-0.12,6.72-0.91
		c14.12-4.46,23.78-20.69,20.36-35.04c-1.5-6.27-5.62-10.84-11.96-12.09c-6.58-1.3-13.2-0.72-19.16,3.17
		c-8.16,5.33-12.36,13.02-14.3,22.36C1653.85,881.39,1660.9,890.5,1674.95,890.62z"/>
	<path class="st3" d="M1443.1,857.88c-0.62,24.01-19.89,43.89-44.41,44.09c-19.25,0.16-30.66-15.56-26.19-34.7
		c4.86-20.85,21.11-35.36,42.46-36.46C1432.53,829.91,1443.46,842.32,1443.1,857.88z M1402.86,890.62c1.71-0.58,4.18-0.09,6.67-0.86
		c14.18-4.4,23.69-20.38,20.58-34.95c-1.24-5.79-6.73-11.64-12.35-12.37c-7.03-0.92-13.84-0.33-19.96,4.07
		c-7.44,5.36-11.29,12.68-13.13,21.47C1381.87,881.33,1388.79,890.44,1402.86,890.62z"/>
	<path class="st3" d="M2345.63,873.35c2.04-23.4,20.6-42.14,43.7-42.59c19.31-0.38,30.06,13.78,27.51,32
		c-2.65,18.89-16.41,33.65-34.67,38.11c-16.6,4.05-30.5-2.55-35.18-16.74c-0.36-1.09-0.7-2.21-0.81-3.34
		C2345.91,878.31,2345.8,875.83,2345.63,873.35z M2376.45,890.6c2.3-0.5,4.75-0.06,7.24-0.87c12.54-4.07,21.9-17.58,20.94-30.65
		c-0.62-8.51-5.51-15.38-12.58-16.55c-6.81-1.13-13.52-0.63-19.56,3.54c-9.32,6.43-13.86,15.5-14.31,26.51
		C2357.7,884.13,2364.78,890.86,2376.45,890.6z"/>
	<path class="st3" d="M2001.67,883.08c-2.27,12.23-7.54,16.86-20.88,18.2c-3.46,0.35-7.01,1.03-10.41,0.62
		c-15.82-1.92-24.25-11.59-23.1-27.66c1.19-16.63,7.76-30.83,22.29-40.25c7.25-4.7,15.3-6.13,23.8-4.54
		c6.93,1.3,12.96,8.13,14.58,16.06c1.22,5.97,0.37,11.81-0.43,17.74c-0.47,3.5-2.01,4.02-5.15,3.97
		c-12.82-0.19-25.64,0.01-38.46-0.14c-2.95-0.03-3.9,0.63-4.02,3.8c-0.41,11.22,4.08,18.59,12.64,19.46
		c6.66,0.68,13.28,0.23,19.51-2.57C1995.3,886.31,1998.47,884.65,2001.67,883.08z M1963.32,858.41c10.34,0,20.58,0,30.82,0
		c1.21,0,2.15-0.13,2.7-1.57c2.7-7.04-2.95-16.03-10.46-16.49C1975.44,839.68,1966.46,846.59,1963.32,858.41z"/>
	<path class="st3" d="M2560.55,830.56c-5.54,8.32-10.56,15.88-15.6,23.43c-17,25.5-34.11,50.94-50.92,76.57
		c-2.78,4.23-5.74,6.43-10.82,5.63c-1.78-0.28-3.63-0.04-6.32-0.04c5.29-8,10.27-15.54,15.26-23.06c5.33-8.02,10.59-16.08,16.05-24
		c1.76-2.55,2.06-4.86,1.31-7.89c-3.83-15.4-7.3-30.88-11.1-46.29c-0.9-3.64,0.09-4.45,3.63-4.41c9.15,0.12,9.14-0.03,11.19,8.94
		c2.28,9.95,4.58,19.89,6.87,29.82c2.47-0.23,3-2.03,3.86-3.33c6.78-10.24,13.62-20.44,20.14-30.84c2.07-3.3,4.23-5.19,8.31-4.58
		C2554.69,830.84,2557.06,830.56,2560.55,830.56z"/>
	<path class="st3" d="M2182.6,830.56c-0.47,2.57-0.88,4.83-1.33,7.35c3.58-0.61,5.49-3.41,8.19-4.86c6.48-3.5,13.18-5.67,20.43-3.12
		c8.59,3.02,12.26,12.14,9.76,23.45c-3.18,14.37-6.49,28.71-9.55,43.1c-0.61,2.84-1.74,3.96-4.64,3.72
		c-2.63-0.22-5.29-0.05-8.33-0.05c3.22-14.41,6.31-28.42,9.52-42.4c0.8-3.48,0.62-6.97,0.42-10.43c-0.23-3.93-2.71-6.21-6.58-7
		c-9.49-1.94-22.37,5.78-23.81,16.05c-1.85,13.2-5.8,26.1-8.55,39.19c-0.76,3.6-2.13,5.24-5.87,4.63c-1.3-0.21-2.68-0.19-3.99,0
		c-3.29,0.47-3.58-1.26-3-3.78c4.71-20.63,9.45-41.25,14.1-61.89c0.68-3.03,1.96-4.51,5.33-4.02
		C2177.13,830.85,2179.67,830.56,2182.6,830.56z"/>
	<path class="st3" d="M1721.62,900.15c2.71-12.03,5.33-23.74,7.98-35.46c2.15-9.51,4.56-18.98,6.42-28.55
		c0.82-4.26,2.27-6.47,6.96-5.64c2.09,0.37,4.31,0.06,6.63,0.06c-0.44,2.41-0.84,4.64-1.27,7c2.21,0.53,3.2-1.23,4.59-2.16
		c6.44-4.35,13.15-7.74,21.33-6.07c7.84,1.59,12.62,7.3,12.88,15.36c0.34,10.79-3.47,20.85-5.43,31.23
		c-1.26,6.65-3.37,13.14-4.5,19.8c-0.61,3.61-1.96,4.99-5.47,4.44c-0.81-0.13-1.68-0.13-2.49,0c-4.19,0.68-5.36-0.42-4.21-4.95
		c3.13-12.33,5.64-24.82,8.52-37.22c0.42-1.82,0.42-3.61,0.63-5.41c1.52-13.03-7.36-14.32-17.17-11.14
		c-6.95,2.25-11.81,6.98-13.27,15.17c-2.36,13.32-5.83,26.44-8.76,39.67c-0.61,2.77-1.7,4.35-4.94,3.94
		C1727.42,899.88,1724.73,900.15,1721.62,900.15z"/>
	<path class="st3" d="M1553.8,830.58c-5.03,22.27-9.98,44.02-14.8,65.79c-0.66,2.96-1.94,4.3-5.02,3.82c-1.3-0.2-2.66-0.1-3.99-0.01
		c-2.71,0.17-4.84,0.04-3.17-3.67c0.52-1.16,0.6-2.56-0.14-4.17c-2.95,1.89-5.76,3.89-8.75,5.56c-4.67,2.61-9.65,4.67-15.12,3.82
		c-11.18-1.74-16.74-9.73-14.41-21.29c3.14-15.55,6.84-30.98,10.14-46.5c0.62-2.91,1.99-3.46,4.72-3.42
		c8.44,0.11,8.37-0.03,6.48,8.22c-2.78,12.08-5.39,24.19-8.2,36.26c-0.58,2.5-0.49,4.97-0.4,7.43c0.19,5.25,2.9,7.62,8.12,8.06
		c7.5,0.64,13.64-1.83,18.78-7.22c1.67-1.74,2.62-3.67,3.15-6.03c3.22-14.34,6.7-28.63,9.73-43.01c0.63-3,1.62-3.9,4.46-3.68
		C1548.02,830.74,1550.69,830.58,1553.8,830.58z"/>
	<path class="st3" d="M1797.76,882.53c6.2,4.44,12.19,8.66,20.09,7.91c4.76-0.45,8.59-2.09,10.45-6.93c1.88-4.9-1.44-7.43-4.49-9.96
		c-3.45-2.86-7.22-5.33-10.64-8.23c-9.47-8.03-9.9-20.04-1.16-28.79c8.7-8.71,24.58-10.28,34.99-3.56c1.68,1.08,2.35,2.1,1.54,4.05
		c-0.43,1.04-0.37,2.28-0.64,3.4c-1.36,5.76-1.38,5.77-6.76,2.88c-4.34-2.34-8.88-3.47-13.87-3.07c-3.67,0.29-6.63,1.7-7.86,5.11
		c-1.35,3.74-0.33,7.22,3,9.71c2.92,2.19,6.05,4.12,8.84,6.46c6.22,5.21,12.29,10.86,10.33,20.05c-2.32,10.84-9.8,17.15-20.22,19.62
		c-8.14,1.93-16.03,0.41-23.57-3.49c-2.74-1.41-3.08-3.07-2.48-5.53C1796.05,889.11,1796.85,886.07,1797.76,882.53z"/>
	<path class="st3" d="M2073.97,847.15c-14.56-12.64-30.44-7-38.54,7.42c-4.03,7.17-6.04,15-4.44,23.41
		c1.34,7.06,6.88,11.86,14.16,12.48c7.21,0.61,13.98-0.98,20.87-3.86c-0.1,3.68-1.07,6.65-1.78,9.69c-0.37,1.59-1.18,2.25-2.48,2.64
		c-9.49,2.88-19.08,4.43-28.79,1.21c-8.71-2.89-14.37-10.6-14.94-19.84c-1.35-21.84,10.17-41.69,28.76-49.02
		c9.18-3.62,18.41-3.45,27.46,0.89c2.11,1.01,3.1,1.85,2.16,4.48C2075.26,839.89,2074.81,843.38,2073.97,847.15z"/>
	<path class="st3" d="M1591.03,816.83c-0.92,4.25-1.42,7.69-2.45,10.97c-0.82,2.58,0.25,2.81,2.29,2.79
		c5.82-0.05,11.65-0.02,17.43-0.02c0.18,0.42,0.44,0.71,0.39,0.93c-2.42,10.65-2.42,10.65-13.42,10.65c-10.14,0-10.12,0-12.25,10.11
		c-1.98,9.38-4.54,18.67-5.86,28.14c-1.25,8.99,0.84,10.49,9.97,10.08c4.12-0.18,7.62-2.12,11.38-3.4
		c0.77,7.96-1.26,11.15-8.48,13.3c-3.67,1.09-7.49,2-11.24,1.54c-12.1-1.47-16.93-8.62-14.29-20.65c2.63-11.95,5.18-23.92,8.07-35.8
		c0.75-3.08-0.23-3.44-2.75-3.32c-2.41,0.12-4.83,0.03-8.76,0.03C1571.62,833.23,1581.03,825.29,1591.03,816.83z"/>
	<path class="st3" d="M2310.22,900.15c7.76-34.37,15.47-68.2,22.97-102.08c0.99-4.48,3.98-3.5,6.79-3.51
		c6.22-0.03,6.29,0.01,4.94,5.93c-7.2,31.59-14.54,63.15-21.54,94.79c-0.87,3.91-2.12,5.49-6.09,4.93
		C2315.18,899.91,2312.99,900.15,2310.22,900.15z"/>
	<path class="st3" d="M1451.22,900.15c7.78-34.41,15.48-68.25,23-102.13c0.91-4.12,3.58-3.47,6.34-3.46
		c6.73,0.02,6.77,0.01,5.28,6.5c-7.19,31.41-14.51,62.8-21.46,94.27c-0.89,4.01-2.32,5.32-6.14,4.87
		C1456.11,899.94,1453.93,900.15,1451.22,900.15z"/>
	<path class="st3" d="M1613.93,900.05c-5.62,1.63-5.79-1-4.78-5.27c4.64-19.59,9.53-39.14,13.43-58.89
		c1.27-6.41,4.87-5.06,8.82-5.41c3.89-0.35,4.6,0.72,3.7,4.53c-4.85,20.56-9.55,41.16-14.01,61.8
		C1619.99,901.93,1616.52,899.81,1613.93,900.05z"/>
	<path class="st3" d="M1642.16,807.53c-0.1,4.21-4.65,8.73-8.89,8.43c-3.36-0.24-5.52-2.39-5.7-5.78c-0.2-3.68,5.31-8.62,9.1-8.51
		C1639.78,801.76,1642.24,804.38,1642.16,807.53z"/>
</g>
</svg>
