<?xml version="1.0" encoding="utf-8"?>
<!-- Generator: Adobe Illustrator 24.1.0, SVG Export Plug-In . SVG Version: 6.00 Build 0)  -->
<svg version="1.1" id="Capa_1" xmlns="http://www.w3.org/2000/svg" xmlns:xlink="http://www.w3.org/1999/xlink" x="0px" y="0px"
	 viewBox="0 0 5000 5000" style="enable-background:new 0 0 5000 5000;" xml:space="preserve">
<style type="text/css">
	.st0{fill:#54565A;stroke:#FFFFFF;stroke-width:1.8804;stroke-linecap:round;stroke-linejoin:round;}
	.st1{fill:url(#SVGID_1_);stroke:#FFFFFF;stroke-width:1.8804;stroke-linecap:round;stroke-linejoin:round;}
	.st2{fill:url(#SVGID_2_);stroke:#FFFFFF;stroke-width:1.8804;stroke-linecap:round;stroke-linejoin:round;}
	.st3{fill:#54565A;}
	.st4{fill:url(#SVGID_3_);}
	.st5{fill:url(#SVGID_4_);}
</style>
<g>
	<g>
		<g>
			<path class="st0" d="M1463.44,3715.1v54.89h-116.08v151.38c0,28.01,10.61,41.93,31.85,41.93c23.34,0,35-16.92,35-50.69v-12h61.56
				v15.12c0,13.83-0.5,25.71-1.29,35.61c-3.97,46.04-38.27,69.06-102.8,69.06c-64.36,0-96.51-29.5-96.51-88.58v-161.83h-39.14
				v-54.89h39.14v-67.48h72.19v67.48H1463.44z"/>
			<path class="st0" d="M1709.79,3920.13h72.5v11.69c0,58.8-44.11,88.26-132.48,88.26c-59.91,0-99.11-10.15-117.65-30.56
				c-18.5-20.43-27.72-63.59-27.72-129.62c0-58.67,9.66-98.07,28.99-118.3c19.36-20.18,57.1-30.26,113.26-30.26
				c53.87,0,89.89,9.87,108.1,29.5c18.38,19.68,27.49,58.25,27.49,115.88v22.11h-204c-0.47,6.69-0.66,11.04-0.66,13.2
				c0,29.62,4.54,49.4,13.69,59.31c9.2,9.9,27.42,14.87,54.74,14.87c26.49,0,43.71-2.92,51.74-8.79
				C1705.72,3951.72,1709.79,3939.25,1709.79,3920.13z M1710.33,3834.71l-0.25-12.01c0-23.98-4.18-39.53-12.49-46.79
				c-8.27-7.05-26.3-10.66-54.13-10.66c-26.85,0-44.33,4.39-52.47,12.9c-8.06,8.65-12.12,27.5-12.12,56.55H1710.33z"/>
			<path class="st0" d="M1914.74,3586.15v430.47h-72.24v-430.47H1914.74z"/>
			<path class="st0" d="M2179.96,3920.13h72.52v11.69c0,58.8-44.12,88.26-132.47,88.26c-59.92,0-99.07-10.15-117.58-30.56
				c-18.55-20.43-27.77-63.59-27.77-129.62c0-58.67,9.67-98.07,28.98-118.3c19.35-20.18,57.12-30.26,113.2-30.26
				c53.9,0,89.94,9.87,108.22,29.5c18.26,19.68,27.42,58.25,27.42,115.88v22.11h-204.05c-0.37,6.69-0.6,11.04-0.6,13.2
				c0,29.62,4.57,49.4,13.69,59.31c9.18,9.9,27.41,14.87,54.74,14.87c26.49,0,43.7-2.92,51.68-8.79
				C2175.98,3951.72,2179.96,3939.25,2179.96,3920.13z M2180.6,3834.71l-0.34-12.01c0-23.98-4.16-39.53-12.44-46.79
				c-8.3-7.05-26.33-10.66-54.12-10.66c-26.87,0-44.36,4.39-52.49,12.9c-8.06,8.65-12.14,27.5-12.14,56.55H2180.6z"/>
			<path class="st0" d="M2504.79,3901.49h71.92v10.42l-4.47,45.75c-8.82,41.61-51.91,62.42-129.3,62.42
				c-56.73,0-94.47-10.25-113.2-30.75c-18.67-20.52-28.07-61.73-28.07-123.79c0-60.5,9.4-101.32,28.07-122.3
				c18.73-21.06,55.09-31.6,109.16-31.6c52.11,0,87.46,7.64,105.98,22.91c18.47,15.18,27.66,44.22,27.66,86.85h-71.59
				c0-35.11-20.23-52.7-60.79-52.7c-28.84,0-46.92,5.61-54.19,16.76c-7.43,11.15-11.06,38.43-11.06,81.97
				c0,42.08,3.97,68.54,12.09,79.36c8.11,10.87,27.87,16.21,59.45,16.21c24.84,0,40.71-3.68,47.72-11.2
				C2501.25,3944.32,2504.79,3927.6,2504.79,3901.49z"/>
			<path class="st0" d="M2704.67,3802.41h-73.75c0-36.1,8.44-60.26,25.22-72.45c16.85-12.18,50.19-18.32,99.87-18.32
				c54.33,0,91.02,7.53,110.21,22.41c19.09,14.95,28.7,43.36,28.7,85.48v197.08h-72.21l3.43-41.3l-1.9-0.33
				c-13.9,30.04-45.97,45.09-96.14,45.09c-73.05,0-109.47-30.99-109.47-92.99c0-62.67,37.26-94.02,111.92-94.02
				c49.86,0,80.15,11.49,90.85,34.35h1.3v-48.79c0-23.58-4.1-39.24-12.37-46.86c-8.2-7.71-25.04-11.51-50.48-11.51
				C2723.19,3760.25,2704.67,3774.3,2704.67,3802.41z M2753.01,3881.63c-40.84,0-61.24,14.13-61.24,42.29
				c0,19.56,4.28,32.31,12.59,38.46c8.48,6.14,26.17,9.2,52.99,9.2c43.96,0,65.9-14.89,65.9-44.49
				C2823.25,3896.77,2799.81,3881.63,2753.01,3881.63z"/>
			<path class="st0" d="M2966.72,4016.62v-430.47h72.33v172.22l1.59,0.59c12.32-31.69,43.74-47.61,94.22-47.61
				c43.39,0,72.99,10.57,89.11,31.72c16.06,21.11,24.13,60.28,24.13,117.46c0,62.42-8.16,104.65-24.45,126.53
				c-16.33,22.03-47.55,33.02-93.8,33.02c-46.88,0-77.73-17.02-92.4-51.11h-1.59l3.19,47.65H2966.72z M3110.33,3768.42
				c-46.91,0-70.36,29.15-70.36,87.34c0,45.63,3.97,74.94,11.98,87.84c7.99,12.96,25.98,19.4,54.2,19.4
				c29.46,0,48.31-5.94,56.47-17.8c8.22-11.88,12.27-39.08,12.27-81.52c0-39.49-4.01-65.32-12.08-77.28
				C3154.71,3774.49,3137.2,3768.42,3110.33,3768.42z"/>
			<path class="st0" d="M3380.53,3586.15v430.47h-72.17v-430.47H3380.53z"/>
			<path class="st0" d="M3645.75,3920.13h72.59v11.69c0,58.8-44.14,88.26-132.51,88.26c-59.93,0-99.12-10.15-117.66-30.56
				c-18.48-20.43-27.67-63.59-27.67-129.62c0-58.67,9.66-98.07,28.99-118.3c19.31-20.18,57.1-30.26,113.17-30.26
				c53.81,0,89.96,9.87,108.2,29.5c18.28,19.68,27.49,58.25,27.49,115.88v22.11h-204.06c-0.5,6.69-0.66,11.04-0.66,13.2
				c0,29.62,4.56,49.4,13.78,59.31c9.09,9.9,27.25,14.87,54.74,14.87c26.45,0,43.62-2.92,51.65-8.79
				C3641.77,3951.72,3645.75,3939.25,3645.75,3920.13z M3646.43,3834.71l-0.39-12.01c0-23.98-4.09-39.53-12.47-46.79
				c-8.22-7.05-26.27-10.66-53.96-10.66c-26.96,0-44.52,4.39-52.63,12.9c-8.05,8.65-12.02,27.5-12.02,56.55H3646.43z"/>
		</g>
		<g>
			<path class="st0" d="M931.74,4320.19c-36.93-49.81-96.85-76.56-158.7-76.56c-110.66,0-185.36,84.83-185.36,192.77
				c0,109.75,75.61,189.09,188.2,189.09c59.02,0,118.06-28.54,155.87-73.74v216.79c-59.99,18.37-103.33,32.24-159.62,32.24
				c-96.78,0-189.01-36.88-261.01-102.41c-76.59-69.18-111.62-159.57-111.62-262.87c0-95.03,36-186.33,102.39-254.54
				c68.24-70.2,166.97-112.65,264.76-112.65c58.13,0,111.62,12.95,165.1,35.16V4320.19z"/>
			<path class="st0" d="M1224.22,4239.97v116.21h203.79v153.1h-203.79v119.9h214.92v153.08H1043.4v-695.45h395.73v153.15H1224.22z"
				/>
			<path class="st0" d="M1550.78,4086.82h180.77l331.18,425.22h1.88v-425.22h180.73v695.45h-180.73l-331.21-426.08h-1.85v426.08
				h-180.77V4086.82z"/>
			<path class="st0" d="M2640.32,4782.26h-180.85v-542.29h-149.48v-153.15h479.71v153.15h-149.37V4782.26z"/>
			<path class="st0" d="M3433.63,4782.26h-225.06l-170.75-267.42H3036v267.42h-180.79v-695.45h270.25
				c137.44,0,241.7,65.44,241.7,214.04c0,95.85-53.52,178.97-152.23,196.48L3433.63,4782.26z M3036,4398.59h17.55
				c59.02,0,125.45-11.08,125.45-86.71s-66.44-86.7-125.45-86.7H3036V4398.59z"/>
			<path class="st0" d="M3659.62,4661.47l-47.97,120.79h-191.87l267.51-695.45h197.4l261.94,695.45h-192.81l-45.14-120.79H3659.62z
				 M3786.04,4301.73h-1.88l-74.72,221.39h150.33L3786.04,4301.73z"/>
			<path class="st0" d="M4383.72,4629.19h216.79v153.08h-397.57v-695.45h180.78V4629.19z"/>
		</g>
		
			<linearGradient id="SVGID_1_" gradientUnits="userSpaceOnUse" x1="411.7327" y1="2358.7825" x2="2992.7727" y2="2358.7825" gradientTransform="matrix(1 0 0 1 916.912 -886.3484)">
			<stop  offset="0" style="stop-color:#FFA400"/>
			<stop  offset="1" style="stop-color:#FF7F40"/>
		</linearGradient>
		<path class="st1" d="M3909.68,342.91l-481.72,728.27c0,0-1045.86-460.63-1436.33,487.45c0,0-389.87,1069.8,943.38,1069.8
			c0,0-1366.82,302.53-1602.1-836.49C1332.91,1791.94,1108.83-82.78,3909.68,342.91z"/>
		
			<linearGradient id="SVGID_2_" gradientUnits="userSpaceOnUse" x1="-37.6572" y1="3246.8867" x2="3151.2229" y2="3246.8867" gradientTransform="matrix(1 0 0 1 916.912 -886.3484)">
			<stop  offset="0" style="stop-color:#54565A"/>
			<stop  offset="1" style="stop-color:#8C9091"/>
		</linearGradient>
		<path class="st2" d="M3178,2516.36l890.14,523.59c0,0-1392.81,754.15-2618.05,136.27c0,0-1209.53-586.49-107.3-1874.62
			c0,0-751.42,1382.33,641.33,1602.25C1984.11,2903.86,2602,2977.19,3178,2516.36z"/>
	</g>
	<g>
		<g>
			<path class="st3" d="M1463.44,3715.1v54.89h-116.08v151.38c0,28.01,10.61,41.93,31.85,41.93c23.34,0,35-16.92,35-50.69v-12h61.56
				v15.12c0,13.83-0.5,25.71-1.29,35.61c-3.97,46.04-38.27,69.06-102.8,69.06c-64.36,0-96.51-29.5-96.51-88.58v-161.83h-39.14
				v-54.89h39.14v-67.48h72.19v67.48H1463.44z"/>
			<path class="st3" d="M1709.79,3920.13h72.5v11.69c0,58.8-44.11,88.26-132.48,88.26c-59.91,0-99.11-10.15-117.65-30.56
				c-18.5-20.43-27.72-63.59-27.72-129.62c0-58.67,9.66-98.07,28.99-118.3c19.36-20.18,57.1-30.26,113.26-30.26
				c53.87,0,89.89,9.87,108.1,29.5c18.38,19.68,27.49,58.25,27.49,115.88v22.11h-204c-0.47,6.69-0.66,11.04-0.66,13.2
				c0,29.62,4.54,49.4,13.69,59.31c9.2,9.9,27.42,14.87,54.74,14.87c26.49,0,43.71-2.92,51.74-8.79
				C1705.72,3951.72,1709.79,3939.25,1709.79,3920.13z M1710.33,3834.71l-0.25-12.01c0-23.98-4.18-39.53-12.49-46.79
				c-8.27-7.05-26.3-10.66-54.13-10.66c-26.85,0-44.33,4.39-52.47,12.9c-8.06,8.65-12.12,27.5-12.12,56.55H1710.33z"/>
			<path class="st3" d="M1914.74,3586.15v430.47h-72.24v-430.47H1914.74z"/>
			<path class="st3" d="M2179.96,3920.13h72.52v11.69c0,58.8-44.12,88.26-132.47,88.26c-59.92,0-99.07-10.15-117.58-30.56
				c-18.55-20.43-27.77-63.59-27.77-129.62c0-58.67,9.67-98.07,28.98-118.3c19.35-20.18,57.12-30.26,113.2-30.26
				c53.9,0,89.94,9.87,108.22,29.5c18.26,19.68,27.42,58.25,27.42,115.88v22.11h-204.05c-0.37,6.69-0.6,11.04-0.6,13.2
				c0,29.62,4.57,49.4,13.69,59.31c9.18,9.9,27.41,14.87,54.74,14.87c26.49,0,43.7-2.92,51.68-8.79
				C2175.98,3951.72,2179.96,3939.25,2179.96,3920.13z M2180.6,3834.71l-0.34-12.01c0-23.98-4.16-39.53-12.44-46.79
				c-8.3-7.05-26.33-10.66-54.12-10.66c-26.87,0-44.36,4.39-52.49,12.9c-8.06,8.65-12.14,27.5-12.14,56.55H2180.6z"/>
			<path class="st3" d="M2504.79,3901.49h71.92v10.42l-4.47,45.75c-8.82,41.61-51.91,62.42-129.3,62.42
				c-56.73,0-94.47-10.25-113.2-30.75c-18.67-20.52-28.07-61.73-28.07-123.79c0-60.5,9.4-101.32,28.07-122.3
				c18.73-21.06,55.09-31.6,109.16-31.6c52.11,0,87.46,7.64,105.98,22.91c18.47,15.18,27.66,44.22,27.66,86.85h-71.59
				c0-35.11-20.23-52.7-60.79-52.7c-28.84,0-46.92,5.61-54.19,16.76c-7.43,11.15-11.06,38.43-11.06,81.97
				c0,42.08,3.97,68.54,12.09,79.36c8.11,10.87,27.87,16.21,59.45,16.21c24.84,0,40.71-3.68,47.72-11.2
				C2501.25,3944.32,2504.79,3927.6,2504.79,3901.49z"/>
			<path class="st3" d="M2704.67,3802.41h-73.75c0-36.1,8.44-60.26,25.22-72.45c16.85-12.18,50.19-18.32,99.87-18.32
				c54.33,0,91.02,7.53,110.21,22.41c19.09,14.95,28.7,43.36,28.7,85.48v197.08h-72.21l3.43-41.3l-1.9-0.33
				c-13.9,30.04-45.97,45.09-96.14,45.09c-73.05,0-109.47-30.99-109.47-92.99c0-62.67,37.26-94.02,111.92-94.02
				c49.86,0,80.15,11.49,90.85,34.35h1.3v-48.79c0-23.58-4.1-39.24-12.37-46.86c-8.2-7.71-25.04-11.51-50.48-11.51
				C2723.19,3760.25,2704.67,3774.3,2704.67,3802.41z M2753.01,3881.63c-40.84,0-61.24,14.13-61.24,42.29
				c0,19.56,4.28,32.31,12.59,38.46c8.48,6.14,26.17,9.2,52.99,9.2c43.96,0,65.9-14.89,65.9-44.49
				C2823.25,3896.77,2799.81,3881.63,2753.01,3881.63z"/>
			<path class="st3" d="M2966.72,4016.62v-430.47h72.33v172.22l1.59,0.59c12.32-31.69,43.74-47.61,94.22-47.61
				c43.39,0,72.99,10.57,89.11,31.72c16.06,21.11,24.13,60.28,24.13,117.46c0,62.42-8.16,104.65-24.45,126.53
				c-16.33,22.03-47.55,33.02-93.8,33.02c-46.88,0-77.73-17.02-92.4-51.11h-1.59l3.19,47.65H2966.72z M3110.33,3768.42
				c-46.91,0-70.36,29.15-70.36,87.34c0,45.63,3.97,74.94,11.98,87.84c7.99,12.96,25.98,19.4,54.2,19.4
				c29.46,0,48.31-5.94,56.47-17.8c8.22-11.88,12.27-39.08,12.27-81.52c0-39.49-4.01-65.32-12.08-77.28
				C3154.71,3774.49,3137.2,3768.42,3110.33,3768.42z"/>
			<path class="st3" d="M3380.53,3586.15v430.47h-72.17v-430.47H3380.53z"/>
			<path class="st3" d="M3645.75,3920.13h72.59v11.69c0,58.8-44.14,88.26-132.51,88.26c-59.93,0-99.12-10.15-117.66-30.56
				c-18.48-20.43-27.67-63.59-27.67-129.62c0-58.67,9.66-98.07,28.99-118.3c19.31-20.18,57.1-30.26,113.17-30.26
				c53.81,0,89.96,9.87,108.2,29.5c18.28,19.68,27.49,58.25,27.49,115.88v22.11h-204.06c-0.5,6.69-0.66,11.04-0.66,13.2
				c0,29.62,4.56,49.4,13.78,59.31c9.09,9.9,27.25,14.87,54.74,14.87c26.45,0,43.62-2.92,51.65-8.79
				C3641.77,3951.72,3645.75,3939.25,3645.75,3920.13z M3646.43,3834.71l-0.39-12.01c0-23.98-4.09-39.53-12.47-46.79
				c-8.22-7.05-26.27-10.66-53.96-10.66c-26.96,0-44.52,4.39-52.63,12.9c-8.05,8.65-12.02,27.5-12.02,56.55H3646.43z"/>
		</g>
		<g>
			<path class="st3" d="M931.74,4320.19c-36.93-49.81-96.85-76.56-158.7-76.56c-110.66,0-185.36,84.83-185.36,192.77
				c0,109.75,75.61,189.09,188.2,189.09c59.02,0,118.06-28.54,155.87-73.74v216.79c-59.99,18.37-103.33,32.24-159.62,32.24
				c-96.78,0-189.01-36.88-261.01-102.41c-76.59-69.18-111.62-159.57-111.62-262.87c0-95.03,36-186.33,102.39-254.54
				c68.24-70.2,166.97-112.65,264.76-112.65c58.13,0,111.62,12.95,165.1,35.16V4320.19z"/>
			<path class="st3" d="M1224.22,4239.97v116.21h203.79v153.1h-203.79v119.9h214.92v153.08H1043.4v-695.45h395.73v153.15H1224.22z"
				/>
			<path class="st3" d="M1550.78,4086.82h180.77l331.18,425.22h1.88v-425.22h180.73v695.45h-180.73l-331.21-426.08h-1.85v426.08
				h-180.77V4086.82z"/>
			<path class="st3" d="M2640.32,4782.26h-180.85v-542.29h-149.48v-153.15h479.71v153.15h-149.37V4782.26z"/>
			<path class="st3" d="M3433.63,4782.26h-225.06l-170.75-267.42H3036v267.42h-180.79v-695.45h270.25
				c137.44,0,241.7,65.44,241.7,214.04c0,95.85-53.52,178.97-152.23,196.48L3433.63,4782.26z M3036,4398.59h17.55
				c59.02,0,125.45-11.08,125.45-86.71s-66.44-86.7-125.45-86.7H3036V4398.59z"/>
			<path class="st3" d="M3659.62,4661.47l-47.97,120.79h-191.87l267.51-695.45h197.4l261.94,695.45h-192.81l-45.14-120.79H3659.62z
				 M3786.04,4301.73h-1.88l-74.72,221.39h150.33L3786.04,4301.73z"/>
			<path class="st3" d="M4383.72,4629.19h216.79v153.08h-397.57v-695.45h180.78V4629.19z"/>
		</g>
		
			<linearGradient id="SVGID_3_" gradientUnits="userSpaceOnUse" x1="411.7327" y1="2358.7825" x2="2992.7727" y2="2358.7825" gradientTransform="matrix(1 0 0 1 916.912 -886.3484)">
			<stop  offset="0" style="stop-color:#FFA400"/>
			<stop  offset="1" style="stop-color:#FF7F40"/>
		</linearGradient>
		<path class="st4" d="M3909.68,342.91l-481.72,728.27c0,0-1045.86-460.63-1436.33,487.45c0,0-389.87,1069.8,943.38,1069.8
			c0,0-1366.82,302.53-1602.1-836.49C1332.91,1791.94,1108.83-82.78,3909.68,342.91z"/>
		
			<linearGradient id="SVGID_4_" gradientUnits="userSpaceOnUse" x1="-37.6572" y1="3246.8867" x2="3151.2229" y2="3246.8867" gradientTransform="matrix(1 0 0 1 916.912 -886.3484)">
			<stop  offset="0" style="stop-color:#54565A"/>
			<stop  offset="1" style="stop-color:#8C9091"/>
		</linearGradient>
		<path class="st5" d="M3178,2516.36l890.14,523.59c0,0-1392.81,754.15-2618.05,136.27c0,0-1209.53-586.49-107.3-1874.62
			c0,0-751.42,1382.33,641.33,1602.25C1984.11,2903.86,2602,2977.19,3178,2516.36z"/>
	</g>
</g>
</svg>
